<svg id="Group_80" data-name="Group 80" xmlns="http://www.w3.org/2000/svg" width="1428.314" height="1417.603" viewBox="0 0 1428.314 1417.603">
  <path id="Path_55" data-name="Path 55" d="M1447.451,708.713c0,391.459-319.7,708.711-714.075,708.711-394.457,0-714.153-317.252-714.153-708.711C19.223,317.332,338.919,0,733.376,0,1127.752,0,1447.451,317.332,1447.451,708.713Zm0,0" transform="translate(-19.137 0)" fill="#97caef"/>
  <path id="Path_56" data-name="Path 56" d="M536.651,240.583l2.366-8.36V214.086a44.658,44.658,0,0,1-10.254,0c-1.734-.868-.551-5.758-.551-5.758l8.439-7.177L519.774,204.7l-5.992,9.385L494.855,225.6l8.437,4.73,5.443,3.549,8.122,1.183v-5.283s9.464-2.366,11.75,1.183l-1.183,6.624ZM327.908,499.4a18.855,18.855,0,0,0-15.456,0,12.682,12.682,0,0,1-12.066,12.775l13.8,7.649,13.722-5.126,18.06-5.915,15.456,11.041c11.592-14.037,0-22.16,0-22.16ZM621.031,759.951l-13.407-2.838L584.44,742.444H564.014l-17.586-8.99h-7.018s1.419-9.858-.711-10.488c-2.128-.711-17.507-9.858-17.507-9.858l-11.986,4.258v-8.358l-8.517-3.549h-7.017l.708-7.019s6.309-12.379,2.839-14.509c-3.468-2.209-16.165-30.125-16.165-30.125l-18.926-10.488H441.783L424.2,626.6l-17.586-14.039-9.858-19.556-10.568-7.019s-11.907,7.728-14.745,7.019-20.424-7.019-20.424-7.019l-14.747-4.1L317.814,590.4v18.769l-7.017-4.732v-7.019l6.309-11.828,2.839-8.36-6.309-2.76-8.517,9.7-21.054,6.23-4.26,9.147-9.858,9.068-2.76,7.649L251.652,603.73a117.325,117.325,0,0,1-16.167,6.941,103.115,103.115,0,0,1-16.167-10.488l-7.728-14.59,4.258-19.556,3.47-20.269-13.326-8.437H187.617l-14.115-4.1,6.624-10.49,7.728-15.377,7.019-11.2s1.97-5.047,4.258-6.23c8.911-4.732,0-9.068,0-9.068s-18.926-1.419-21.844,0c-2.917,1.34-10.567,5.519-10.567,5.519v16.088L152.6,508.784l-21.844,4.653-14.747-14.747c-2.128-2.049-7.017-25.078-7.017-25.078l9.068-8.358,4.258-7.019.711-16.718,9.147-7.728,3.47-9.068,10.488-7.571L156.231,408l9.147-2.76L178,408c.711-4.651,23.973-2.76,23.973-2.76l9.149-.473-.711-5.126c4.26-3.47,18.3,0,18.3,0l18.848-1.579c4.179.868,7.649,9.385,7.649,9.385l-8.439,7.649,5.677,16.718,5.6,7.728-2.13,7.649,13.564-1.97.63-13.328.711-16.007-2.051-17.664,12.618-27.05L332.8,338.368l-.709-11.828,3.468-17.113,9.149,3.155L360.871,293.5l21.135-6.941,12.617-8.517,6.309-12.618,23.265-6.939,23.184-11.909-10.645,11.277-1.421,9.858,12.617-2.838,11.277-6.309,9.858-2.76,9.147-2.762,2.84-6.309h-6.309l-9.858-3.468c-6.388-4.732-14.194-10.49-14.194-10.49a7.726,7.726,0,0,1,2.049-6.309l6.388-5.677s2.76-3.392.711-3.392-17.586-3.311-17.586-3.311l-16.875,6.7h-9.622l11.986-10.33h13.407l14.747-3.549h30.676l16.875-3.47,12.066-6.466,14.747-1.5,4.258-15.694-9.858-8.358-14.194-7.256-2.838-16.482-7.728-16.8h-7.019l-.711,9.148h-11.2l-2.84,5.52-4.258,2.839-7.019,1.419-6.309-6.309,8.439-9.069-9.858-9.069-11.986-6.309h-12.46l-9.226,2.76-12.617,14.668-9.858,8.359,2.838,7.728-3.628,11.671,2.13,4.653-11.988,4.179-13.326,2.838-5.6-1.419-4.258,5.6,7.728,15.692-7.728,5.2H358.586l-8.911-11.356-2.13-6.466,6.387-3.47-4.732-8.358-14.826-.711L314.74,158.49h-9.147l-2.13-7.414-6.309-2.76,9.147-10.488,13.328-7.728,23.263-8.359,8.439-2.76,18.216-4.258,12.3-6.7,11.2-9.778h14.826l17.586-4.416h11.277l4.73-13.012H418.912L410.475,87.2H395.728a25.2,25.2,0,0,0-11.277-6.388V75.687l7.728-7.019,10.015-7.492a57.982,57.982,0,0,0,8.517-14.668l20.346,7.018,15.456-.789,10.568-.631,13.4.71,7.728,2.76c-2.128,5.6-10.566,1.42-10.566,1.42l-25.314,2.76-11.277,6.072,3.549-7.649-11.987.71-14.194,9.069,9.937,4.889h23.184L454.162,77.5l10.568-4.18,11.277,4.18,13.4,4.258-16.245,4.968-14.115,6.624-14.194,3.075-11.2,4.18,4.732,9.779,29.493-.71,18.69,11.356H502.03l.711-6.309,3.47-6.23,7.1-1.419-5.677-7.649-2.051-5.836h8.439l7.017,5.126c5.679,4.18,17.586-5.126,17.586-5.126l17.586-6.624-21.765-6.388-7.019-7.019c2.051-4.18-23.263-10.488-23.263-10.488L484.445,51.24l-4.73-4.889h-16.72l13.328-5.6,33.042,3.47,16.875-3.47,38.721-9.779,26.024-6.309,18.848-6.94-21.846-3.391s-15.456,4.258-17.586,4.258-20.424,1.341-22.552,1.341H498.562L483.183,23.4,497.3,26.951,488.862,31.6H474.114l-8.439,2.839,11.2-8.359-11.907-2.839-14.826,3.47L431.846,37.2l8.437,2.839,11.988-4.731,9.858,2.05L451.56,40.2l-4.179,5.6,7.019,2.05-18.926,1.419-33.044-5.6L389.1,59.757l-26.733,18.69,7.017,5.6-4.732,2.918-6.309,3.312-18.295-3.312L314.74,93.588s-23.186,5.5-43.925,21.134c-9.6,7.238-41.18,32.975-70.55,64.98a488.553,488.553,0,0,0-50.549,61.783s-45.453,58.426-77.332,129.689A750.538,750.538,0,0,0,35.4,475.2c-10.029,35.933-15.713,70.566-15.713,70.566l58.87-19.714,9.856,10.409,16.956,2.838,11.277,6.941,11.907-4.653,9.858,9.779L160.252,563.2l21.056,2.84,6.309,20.9s14.826,13.249,14.194,16.088,4.732,15.377,7.728,15.377a147.673,147.673,0,0,1,20.426,9.069l11.986,1.34L246.6,618.4h10.566v10.409l4.26,5.679,1.419,16.007,4.258,11.909-7.1,7.649-11.275,14.037-14.117,19.48,1.419,18.688-3.547,12.539,10.566,3.549-9.147,12.539q2.719,7.925,4.732,16.088a127.038,127.038,0,0,0,7.728,17.428l9.856,8.437,4.26,14.037,23.895,48.815,16.875,14.037,24.605,12.618s15.456,16.718,16.165,18.69,8.517,32.806,8.517,32.806l-.394,17.192,4.732,18.137,1.419,20.346,2.128,28.073,7.019,22.318,6.309,29.335-7.728,9.779,4.732,14.511,5.677,21.054,9.779,10.568-.632,16.718,2.051,16.718,43.689,46.134,8.358,9.068V1192.1l14.2-8.045V1171.2l-14.2-6.309v-9.779l6.941-6.23,7.017-11.2v-9.149c5.836-2.049,0-8.358,0-8.358h-9.7l-.711-8.99h9.147l3.785,5.519,7.492-5.519-5.6-11.2c1.419-3.47,11.277,0,11.277,0l16.8-9.858,7.1-8.281v-11.2l-8.045-7.175-7.1-11.2h8.437s12.7,6.309,16.877,0c4.258-6.309,10.566-14.669,10.566-14.669l7.807-18.137s14.747-26.576,16.167-28.627c1.419-2.128,0-28.152,0-28.152l23.186-18.69h15.535l12.617-20.977,9.858-13.8V885.812l3.468-22.318-5.519-21.843L614.8,815.784l14.745-14.037-5.6-25.786ZM777.8,211.324l4.732,2.762,6.388-5.6h9.147l8.36-2.76,3.785-5.126-1.815-7.177,3.628-3.785c.394-5.756-8.832-9.937-8.832-9.937H798.07l-6.466,7.334h-6.783l-2.445,8.36L783.4,201.7l-5.6,3.47Zm42.425-52.834-7.175,3.232v10.726l.866,2.76a31.694,31.694,0,0,1,.789,6.7l5.2,3.549,5.126,3.232,2.445,4.653S826.7,198,823.935,198l-6.466,2.049,2.445,4.338s-4.732,2.445-5.2,4.336l4.338,3.234L815.1,215.9h-8.832v4.732h18.454L832.3,215.9l11.2,1.972s9.226-1.972,11.2-1.972l-1.657-1.972,2.841-3.547,4.415-5.2-5.6-2.209-6.388-1.972.787-6.781-6.071-4.653-9.149-4.968-.787-9.147.787-7.885h-9.383l-1.973-4.021,5.521-5.128Zm52.443,34.146v-3h6.388l3.628-2.6v-9.858l4.653-2.445-1.578-7.885-7.492-2.6-11.2,3.549v5.756l-6.783.868-1.577,5.283,4.653,2.209-7.571,4.338-2.051,3.39,6.466,5.758Zm402.972,240.6,26.5,14.037,13.564-5.2,9.069,12.7,24.211,5.285,10.566,5.283,24.1-76.337s.7-3.146-17.319-38.325-38.616-80.023-86.193-136.269-89.841-92.5-89.841-92.5l-25.136-18.532-24.92,3-5.283,10.488-11.277-4.18-5.362-9.306h-10.568l4.653,4.653,3.864,7.571H1099.63v9.305l-11.909-1.735-7.254-1.1-4.021,2.051,3.785,2.287,5.2,1.183-4.732,1.735-6.309-2.524-7.886-2.681-2.366-5.2-5.757-4.653-6.7-.867-4.732-5.52,10.252.867,9.068,4.1,7.571.867s4.732-1.183,5.207-.315a59.185,59.185,0,0,0,11.117,2.287l6.151-4.653-10.409-7.649-18.375-5.441s-30.912-4.18-32.41-4.1a125.569,125.569,0,0,1-13.092-4.022l-10.8-2.6h-23.58l-35.88,6.624-19.794,12.539-23.58,21.056s-20.424,2.918-21.607,3.233a100.29,100.29,0,0,0-9.383,8.911l4.651,10.173-1.181,4.731,3.232,2.523,2.366,4.732,3.234,4.653,11.907-1.736,12.853-7.175,9.937,5.126,7.57,13.09,1.419,7.807,9.069,1.736,6.151-5.2,6.388-1.5,3.47-10.409.551-8.122,8.832-2.523V152.1l-3.232-2.287-4.1-2.681-1.5-9.305,13.407-8.438s7.1-6.309,7.1-7.492c0-1.1,3.468-4.968,3.468-4.968s5.521.394,7.335.631c1.736.315,11.041,3.47,11.041,3.47l3.549,2.6-10.883,5.2-6.309,6.388L983,138.38l4.417,10.173,11.356,5.757,10.173-2.05,16.167-.789s18.533,3.707,19.4,4.337c.868.553-5.283,2.523-5.283,2.523l-7.256,2.051-4.021,2.6-6.939-3.47a18.3,18.3,0,0,0-9.385-3.153,18.734,18.734,0,0,0-7.885,3.47l4.336,6.624,6.073,4.1s-2.524,7.492-4.336,7.177c-1.736-.236-4.653-5.443-4.653-5.443l-6.781-2.6-4.339,2.6.553,6.389-1.894,8.99-7.256,4.651-5.283,4.1-7.017-4.1-8.99,2.6-15.773-.866-3.47,3.153-5.6-2.287s-13.643.553-14.59.868a48.269,48.269,0,0,1-8.99-4.021l-3.47-7.807,4.339-5.2-2.051-2.366-1.734-4.338,2.917-3.468-4.415-1.1-7.255,7.175-.315,7.019s3.864,6.624,4.1,7.492a51.394,51.394,0,0,1,.315,6.073l-7.256,2.917-7.885,2.287,1.419,2.917,8.2,1.419-2.681,4.653-4.732.315-2.287,5.836-1.5,3.153L885.053,217l.315-4.1.236-5.2-2.6-2.6-3.785,4.1-4.1,5.2-9.383,1.734-4.417,3.47-2.917,6.309-7.019,3.234-5.519,3.468-8.439-4.336-1.183,2.049,1.736,4.26L836,236.955l-11.12-.868-6.151-.868-.866,8.124,10.8,1.734,5.2,4.653s4.1,4.89,4.969,4.89,6.783,1.5,6.783,1.5l-2.366,12.7-5.283,11.907-21.845-.315-23.895-.551-7.57,2.838-2.366,6.7,2.051,6.941-4.258,13.09-1.736,6.941a35.623,35.623,0,0,0,.789,7.1c.63.868,4.1,6.941,4.1,6.941l-2.6,9.858,7.885,2.285,13.092.868,7.017,3.785,5.283.868,8.675-3.785,13.171-1.736,12.222-10.173-1.97-12.379,7.492-9.385L869.6,300.515l6.939-2.366-.789-10.409,9.385-5.519,9.462,3.232,6.387-3.47,19.794-5.992,19.48,17.98,26.812,18.216s5.6,10.962,5.834,11.83a35.052,35.052,0,0,1-4.1,7.571H953.739l-5.6,1.262s1.734,4.258,2.838,4.258,13.171,5.519,13.171,5.519l3.785,2.919,2.049-.553-.315-5.519,1.183-5.2,4.1.551a34.455,34.455,0,0,0,4.338-5.756,75.906,75.906,0,0,1,4.1-7.492l-3.234-6.151,1.815-4.021,4.73.551.553,6.073h1.734l-.551-7.492-4.732-2.917-6.309-4.181-4.415-6.309-7.571-2.049L956.658,289l-2.051-6.941-8.122-4.021-2.13-6.388,2.366-6.624,5.2-.947.315,6.388,5.2,1.736,3.549-1.972,5.2,9.3L977,285.61l8.515,4.653,5.207.63,8.753,9.385,2.049,12.145,16.324,16.8,2.287,11.828,11.671,8.124,3.234-2.6-1.736-7.492,6.387-3.47-2.049-5.283-6.466-2.209-2.6-5.2,1.183-8.36-3.785-4.336,3.468.551,2.6,3.155,4.1-5.443,7.017.238,7.019,2.917,5.2,7.177,5.283,8.043s-3.47,2.051-3.785,2.917a26.079,26.079,0,0,0,2.917,6.388l6.7,6.073,5.283,7.256,10.409-.236,1.183,4.651,7.649.868,7.255-1.734,2.049-4.732,3.234,4.415,8.439,2.84,7.253-.553,6.151-6.7,5.522,2.366,4.1,2.6-1.5,5.756,3.707,11.909L1131.963,383V398.7H1100.1l-12.143,4.732-19.558-9.7-12.854,1.5-21.922-7.885h-17.35l-5.283,4.653,3,8.279-6.781,6.783-17.428-10.568-13.564,1.5L970.931,389,950.507,383l-14.2-6.781-10.881-5.283,12.854-14.984-3.785-12.7-9.069-5.362-53.7,6.073-21.133,8.279-13.643.711-14.115,5.283-17.35-3.785-11.435,13.486-13.564,8.99-12.3,25.55,3.234,11.2-15.852,15.062-15.85,5.992-7.57,14.039S715.5,485.6,714.005,488.6s0,21.765,0,21.765l6.783,21.688-15.852,36.827,5.994,17.979,8.358,16.482,21.924,30.755-.632,15.458L785.768,683.7l30.282-12.066,29.178,9.228L881.5,661.377s12.066,0,15.852,6.7c3.785,6.783,6.07,12.777,19.635,12.777,13.643,0,20.424,14.982,20.424,14.982l-5.992,17.271,3,8.99-6.073,14.037,14.194,29.258,10.568,22.473,9.858,21.767,2.285,27.759-2.285,15.771L945.538,883.21l5.283,46.528,6.072,10.488-2.287,7.492,10.645,11.277,6.783,26.182-6.072,24.839,9.068,18.69s8.36,20.267,9.069,22.554c.789,2.209,6.073,9.7,5.285,13.486-.711,3.706-3,13.564-3,13.564l3,14.981h38.561l18.218-5.992,44.555-45.03a150.792,150.792,0,0,0,11.356-15.062c.708-2.208,6.781-29.967,6.781-29.967l31.78-12.775V959.941l-6.86-19.479,16.639-15.771,44.636-25.55,3.785-19.48V845.908l-8.36-25.55,2.287-15.692-7.728-6.783,14.352-20.975,5.283-27.759,21.135-12.775,4.732-12.777,38.561-39.665,12.145-37.774,11.356-20.818V602.785l-10.568-3.707-12.143,9.7-16.639,1.5-17.35,4.73-14.432-9.068,1.579-11.277-18.139-20.188-18.216-10.566-8.281-26.971-17.743-16.8-1.5-20.975-12.933-18.69-15.852-35.25-16.639-16.482-1.5-13.564,6.86,3.075,7.571,5.994,3,11.277c5.992,0,8.279-11.277,8.279-11.277l5.283,11.277,5.285,14.037,16.639,24.763,9.068,1.5,10.566,21.765-.708,9.779,30.2,30.754,5.283,28.469,5.283,12.775,9.937,9.779,45.345-11.988,8.281-7.571,19.635-5.992V554.6l22.711-14.982,9.385-17.428,5.519-8.832,7.571-10.49-12.46-17.111-17.507-14.669-5.519-14.037-6.466,1.5-4.732,13.486-17.35,4.653-9.068-5.994-3-12.7-6.073,1.5L1262,442.936l-8.281-4.653-10.645-17.269,7.57-8.281Zm-353.921-110.4,1.577-7.177v-10.33a11.894,11.894,0,0,0-5.755-2.76,6.115,6.115,0,0,0-4.181,1.577v11.513a21.85,21.85,0,0,1,0,7.177Zm0-30.993a4.809,4.809,0,0,0-1.5-4.021,4.567,4.567,0,0,0-4.1-1.1l-2.76,7.885,2.76,5.994h5.6ZM715.5,86.963h28.312l15.456-22h35.487l5.758-14.116,21.844-11.435c10.33-8.99,0-25.156,0-25.156L777.8,8.735l-44.24,5.6L669.135,2.426l-39.668,17.9s-28.546,15.3-32.41,14.037a142.26,142.26,0,0,0-23.186,0S588.066,47.139,594.456,48.4a42.407,42.407,0,0,0,14.115,0s0,12.46,2.6,15.377c9.069,10.252-9.385,17.9-9.385,17.9V93.745s1.972,22.791,5.836,21.765c3.785-1.025,10.094,12.145,10.094,12.145l11.828,12.775h21.688l27.048-31.938,26.576-11.513Zm556.2,764.071-3.549-9.3-4.021,3.943-3.468,7.964-7.966,4.653-3.47,10.409-5.047,12.381-19.478,5.994-8.517,14.352-1.97,23.816-6.941,11.751-7.964,8.437,2.917,14.037,5.522,6.466-5.522,7.413,5.522,4.732H1226.2l10.49-15.377s8.515-17.822,8.515-19.4c0-1.5,4.021-17.824,4.021-17.824l14.433-18.688V880.844h10.015l-3-18.375ZM263.559,471.01,241.715,463.6s-6.151.868-13.249,2.523a81.376,81.376,0,0,0-15.3,4.653l31.071,10.488h12.539l20.977,17.9H291.87s11.592-5.047,7.728-14.039l-17.98-6.387Zm0,0" transform="translate(-10.255 46.547)" fill="#f19898"/>
  <path id="Path_57" data-name="Path 57" d="M802.853,928.944c-225.539-.081-437.829-105.987-572.6-285.474C95.56,463.907,54.079,231.823,118.586,17.246a704.3,704.3,0,0,0,23.186,757.683c154.643,226.88,427.1,345.091,699.957,303.532,272.777-41.481,497.053-235.238,576.071-497.683C1289.338,796.617,1055.441,929.1,802.853,928.944Zm0,0" transform="translate(-19.218 330.919)" opacity="0.05"/>
</svg>
