<svg xmlns="http://www.w3.org/2000/svg" width="130.963" height="120.049" viewBox="0 0 130.963 120.049">
  <g id="file-upload" transform="translate(0 -1)">
    <path id="Path_1574" data-name="Path 1574" d="M98.222,88.309H84.58a2.728,2.728,0,0,1,0-5.457H98.222a27.256,27.256,0,0,0,1.653-54.464,2.726,2.726,0,0,1-2.325-1.572A35.426,35.426,0,0,0,30.422,36.851a2.732,2.732,0,0,1-2.7,2.346,21.829,21.829,0,1,0-.437,43.654h19.1a2.728,2.728,0,1,1,0,5.457h-19.1a27.284,27.284,0,0,1-1.877-54.5,40.887,40.887,0,0,1,76.379-10.739,32.717,32.717,0,0,1-3.563,65.241Z" fill="#acacac"/>
    <path id="Path_1575" data-name="Path 1575" d="M14.228,59A2.729,2.729,0,0,1,11.5,56.268V13.978a2.728,2.728,0,0,1,5.457,0v42.29A2.729,2.729,0,0,1,14.228,59Z" transform="translate(51.253 45.682)" fill="#acacac"/>
    <path id="Path_1576" data-name="Path 1576" d="M39.009,30.1a2.74,2.74,0,0,1-1.932-.8L25.367,17.587,13.657,29.3A2.728,2.728,0,0,1,9.8,25.44L23.441,11.8a2.73,2.73,0,0,1,3.858,0L40.941,25.44a2.731,2.731,0,0,1-1.932,4.66Z" transform="translate(40.114 44.567)" fill="#acacac"/>
    <path id="Path_1577" data-name="Path 1577" d="M53.383,40.827h-38.2A8.2,8.2,0,0,1,7,32.642V21.728a2.728,2.728,0,1,1,5.457,0V32.642a2.733,2.733,0,0,0,2.728,2.728h38.2a2.733,2.733,0,0,0,2.728-2.728V21.728a2.728,2.728,0,1,1,5.457,0V32.642A8.2,8.2,0,0,1,53.383,40.827Z" transform="translate(31.198 80.222)" fill="#acacac"/>
  </g>
</svg>
