<svg xmlns="http://www.w3.org/2000/svg" width="68.58" height="126.692" viewBox="0 0 68.58 126.692">
  <g id="Group_600" data-name="Group 600" transform="translate(-154 -329.999)">
    <path id="Path_1033" data-name="Path 1033" d="M59.05,215.754s.335,9.921,7.394,27.717c0,0,6.573-14.33,7.254-28.018S59.05,215.754,59.05,215.754Z" transform="translate(121.846 213.221)" fill="#fc6500"/>
    <path id="Path_1034" data-name="Path 1034" d="M29.125,153.81,12.792,169.7,10.85,190.455l19.754-9.9L34.2,155.238Z" transform="translate(143.15 237.811)" fill="#233f71"/>
    <path id="Path_1035" data-name="Path 1035" d="M96.982,153.81,113.31,169.7l1.947,20.753L95.431,179.864,91.91,155.238Z" transform="translate(107.323 237.811)" fill="#233f71"/>
    <ellipse id="Ellipse_99" data-name="Ellipse 99" cx="8.119" cy="4.687" rx="8.119" ry="4.687" transform="translate(179.964 422.105)" fill="#424956"/>
    <path id="Path_1036" data-name="Path 1036" d="M49.87,205.1V200.88H74.462v4.375Z" transform="translate(125.904 217.006)" fill="#494949"/>
    <ellipse id="Ellipse_100" data-name="Ellipse 100" cx="12.31" cy="7.109" rx="12.31" ry="7.109" transform="translate(175.774 414.99)" fill="#2b303f"/>
    <ellipse id="Ellipse_101" data-name="Ellipse 101" cx="15.022" cy="8.672" rx="15.022" ry="8.672" transform="translate(173.023 407.027)" fill="#edeff9"/>
    <path id="Path_1037" data-name="Path 1037" d="M75.429,113.643h0v3.722c0,.753-.039,1.473-.067,2.176,0,.876-.061,1.708-.106,2.505s-.084,1.579-.139,2.3c-.229,3.153-.223,5.474-.614,6.384-2.126,4.972-9.319,2.232-12.868.446-1.311-.658-2.176-1.2-2.176-1.2h-.324a25.87,25.87,0,0,1-2.545,1.161c-3.722,1.507-10.357,4.18-12.2-.424a33.335,33.335,0,0,1-.859-6.412c-.05-.714-.095-1.479-.139-2.293s-.067-1.624-.1-2.5c0-.7-.039-1.417-.056-2.165v-1.674h0V113.62h0c-.1-19.469,1.964-50.6,8.783-63.887,1.97-3.845,4.336-6.194,7.165-6.333h.324c2.79.145,5.184,2.483,7.159,6.311C73.392,62.947,75.552,93.956,75.429,113.643Z" transform="translate(128.837 286.609)" fill="#bebebe"/>
    <circle id="Ellipse_102" data-name="Ellipse 102" cx="5.675" cy="5.675" r="5.675" transform="translate(182.448 370.545)" fill="#2b303f"/>
    <path id="Path_1038" data-name="Path 1038" d="M66.846,127.563a6.506,6.506,0,1,1,6.506-6.506A6.506,6.506,0,0,1,66.846,127.563Zm0-11.35a4.844,4.844,0,1,0,4.838,4.844A4.844,4.844,0,0,0,66.846,116.213Z" transform="translate(121.276 255.164)" fill="#424956"/>
    <path id="Path_1040" data-name="Path 1040" d="M75.388,189.39v2.053a9.215,9.215,0,0,1-4.542,5.022c-6.395,3.688-16.74,3.688-23.163,0a9.328,9.328,0,0,1-4.542-5.022h0V189.4A9.246,9.246,0,0,0,47.7,194.5c6.4,3.688,16.768,3.688,23.163,0C73.317,193.039,74.869,191.259,75.388,189.39Z" transform="translate(128.878 222.084)" fill="#233f71"/>
    <path id="Path_1041" data-name="Path 1041" d="M75.324,195.192c0,.748-.039,1.473-.067,2.171a9.46,9.46,0,0,1-4.464,4.749c-6.395,3.694-16.74,3.694-23.163,0a9.562,9.562,0,0,1-4.464-4.782c0-.7-.039-1.417-.056-2.159a9.217,9.217,0,0,0,4.514,4.955c6.4,3.694,16.768,3.694,23.163,0A9.32,9.32,0,0,0,75.324,195.192Z" transform="translate(128.892 219.529)" fill="#233f71"/>
    <path id="Path_1042" data-name="Path 1042" d="M75.293,184.845a9.692,9.692,0,0,1-4.341,4.464c-6.395,3.689-16.74,3.689-23.163,0A9.752,9.752,0,0,1,43.43,184.8c.045.815.089,1.579.14,2.293a9.976,9.976,0,0,0,4.219,4.2,22.192,22.192,0,0,0,8.839,2.634,28.2,28.2,0,0,0,5.022.039,22.4,22.4,0,0,0,9.28-2.673,10.011,10.011,0,0,0,4.2-4.157Z" transform="translate(128.75 224.113)" fill="#233f71"/>
    <path id="Path_1043" data-name="Path 1043" d="M73.448,49.713a24.96,24.96,0,0,1-14.648,0c1.97-3.845,4.336-6.194,7.165-6.333h.324C69.107,43.547,71.472,45.885,73.448,49.713Z" transform="translate(121.957 286.619)" fill="#233f71"/>
    <rect id="Rectangle_47" data-name="Rectangle 47" width="2.784" height="36.555" transform="translate(186.895 391.666)" fill="#233f71"/>
    <circle id="Ellipse_197" data-name="Ellipse 197" cx="5.675" cy="5.675" r="5.675" transform="translate(182.448 351.545)" fill="#2b303f"/>
    <path id="Path_1737" data-name="Path 1737" d="M66.846,127.563a6.506,6.506,0,1,1,6.506-6.506A6.506,6.506,0,0,1,66.846,127.563Zm0-11.35a4.844,4.844,0,1,0,4.838,4.844A4.844,4.844,0,0,0,66.846,116.213Z" transform="translate(121.276 236.164)" fill="#424956"/>
  </g>
</svg>
