<svg xmlns="http://www.w3.org/2000/svg" xmlns:xlink="http://www.w3.org/1999/xlink" width="243.452" height="314" viewBox="0 0 243.452 314">
  <defs>
    <linearGradient id="linear-gradient" x1="0.5" y1="0.5" x2="0.5" y2="1.047" gradientUnits="objectBoundingBox">
      <stop offset="0" stop-color="#d9e6f3" stop-opacity="0"/>
      <stop offset="1" stop-color="#929292" stop-opacity="0.439"/>
    </linearGradient>
  </defs>
  <g id="surface1" transform="translate(-0.031)" opacity="0.82">
    <path id="Path_48" data-name="Path 48" d="M72.747,115.85,42.96,98.773c-1.4-.793-1.216-2.178.391-3.1l29-16.622a6.059,6.059,0,0,1,5.414-.222L107.556,95.9c1.4.793,1.216,2.178-.381,3.1L78.161,115.617A6.062,6.062,0,0,1,72.747,115.85Zm0,0" transform="translate(71.67 133.64)" fill="#b0cfeb"/>
    <path id="Path_49" data-name="Path 49" d="M123.328,88.395v.011L48.085,131.514,4.68,156.385l.962.549,43.405-24.882,75.243-43.108Zm0,0" transform="translate(7.934 150.88)" fill="#b0cfeb"/>
    <path id="Path_50" data-name="Path 50" d="M109.274,94.7l-1.459.444L78.557,78.375a6.063,6.063,0,0,0-5.414.233l-29,16.622-.074.042L42.8,94.891v2.242a1.707,1.707,0,0,0,.909,1.173l29.8,17.066a6.06,6.06,0,0,0,5.414-.222l29.1-16.6a2.262,2.262,0,0,0,1.311-1.66Zm0,0" transform="translate(72.997 132.869)" fill="#d5d6e0"/>
    <path id="Path_51" data-name="Path 51" d="M73.531,114.641,43.745,97.6c-1.385-.793-1.206-2.178.391-3.1L73.15,77.876a6,6,0,0,1,5.4-.222l29.8,17.066c1.385.793,1.216,2.189-.391,3.1l-29,16.633A6.178,6.178,0,0,1,73.531,114.641Zm0,0" transform="translate(73.022 131.623)" fill="#e9eaf4"/>
    <path id="Path_52" data-name="Path 52" d="M75.6,87.606V85.089L72,86.03l-8.025-4.61a2.274,2.274,0,0,0-2.041.084l-7.8,4.473-3.69-.962v3.331a.09.09,0,0,0,0,.074v.063a.645.645,0,0,0,.349.444L62.08,95.452a2.3,2.3,0,0,0,2.051-.085l11-6.281a.877.877,0,0,0,.5-.624v-.835Zm0,0" transform="translate(86.027 138.632)" fill="#d5d6e0"/>
    <path id="Path_53" data-name="Path 53" d="M62.089,94.189,50.775,87.707c-.518-.307-.455-.825.148-1.174l11-6.281a2.287,2.287,0,0,1,2.062-.084L75.275,86.64c.529.3.465.825-.148,1.184l-11,6.281A2.275,2.275,0,0,1,62.089,94.189Zm0,0" transform="translate(86.018 136.489)" fill="#e9eaf4"/>
    <path id="Path_54" data-name="Path 54" d="M97.53,121.921,30.207,62.115l134.837-2.506Zm0,0" transform="translate(51.507 101.747)" fill="url(#linear-gradient)"/>
    <path id="Path_55" data-name="Path 55" d="M210.725,95.027c0,52.488-42.866,95.027-95.746,95.027S19.223,147.515,19.223,95.027,62.089,0,114.979,0,210.725,42.549,210.725,95.027Zm0,0" transform="translate(32.758)" fill="#97caef"/>
    <path id="Path_56" data-name="Path 56" d="M89,34.359l.317-1.121V30.806a5.988,5.988,0,0,1-1.375,0c-.233-.116-.074-.772-.074-.772L89,29.072l-2.263.476-.8,1.258L83.4,32.35l1.131.634.73.476,1.089.159V32.91s1.269-.317,1.575.159l-.159.888Zm-27.989,34.7a2.528,2.528,0,0,0-2.072,0,1.7,1.7,0,0,1-1.618,1.713l1.85,1.026,1.84-.687,2.422-.793,2.072,1.48c1.554-1.882,0-2.971,0-2.971ZM100.316,104l-1.8-.381L95.41,101.65H92.671l-2.358-1.205h-.941s.19-1.322-.1-1.406-2.347-1.322-2.347-1.322l-1.607.571V97.167l-1.142-.476H83.24l.1-.941s.846-1.66.381-1.945-2.167-4.039-2.167-4.039L79.01,88.359H76.282l-2.358-2.242-2.358-1.882-1.322-2.622-1.417-.941s-1.6,1.036-1.977.941-2.739-.941-2.739-.941l-1.977-.55L59.66,81.264v2.517l-.941-.634v-.941l.846-1.586.381-1.121-.846-.37-1.142,1.3-2.823.835-.571,1.226-1.322,1.216-.37,1.026-2.083-1.681a15.731,15.731,0,0,1-2.168.931,13.824,13.824,0,0,1-2.168-1.406l-1.036-1.956L45.988,78l.465-2.718-1.787-1.131H42.2L40.31,73.6l.888-1.407,1.036-2.062.941-1.5s.264-.677.571-.835c1.195-.634,0-1.216,0-1.216a14.912,14.912,0,0,0-2.929,0c-.391.18-1.417.74-1.417.74v2.157l-1.893.846-2.929.624L32.6,68.967A20.177,20.177,0,0,1,31.66,65.6l1.216-1.121.571-.941.1-2.242,1.226-1.036.465-1.216,1.406-1.015,1.353-1.227,1.226-.37,1.692.37c.1-.624,3.214-.37,3.214-.37l1.227-.063-.1-.687c.571-.465,2.453,0,2.453,0l2.527-.212c.56.116,1.026,1.258,1.026,1.258l-1.131,1.026L50.894,60l.751,1.036-.286,1.026,1.819-.264.084-1.787.1-2.146L53.083,55.5l1.692-3.627,6.894-4.4-.1-1.586.465-2.295,1.227.423,2.167-2.559,2.834-.931,1.692-1.142.846-1.692,3.119-.93,3.109-1.6-1.427,1.512L75.415,38l1.692-.381,1.512-.846,1.322-.37,1.226-.37.381-.846H80.7l-1.322-.465c-.856-.634-1.9-1.407-1.9-1.407a1.036,1.036,0,0,1,.275-.846l.856-.761s.37-.455.1-.455-2.358-.444-2.358-.444l-2.263.9h-1.29L74.4,30.32h1.8l1.977-.476h4.113l2.263-.465,1.618-.867,1.977-.2.571-2.1-1.322-1.121-1.9-.973-.381-2.21-1.036-2.252h-.941l-.1,1.227h-1.5l-.381.74L80.585,22l-.941.19-.846-.846,1.131-1.216L78.608,18.91,77,18.064H75.33l-1.237.37L72.4,20.4,71.08,21.522l.381,1.036-.486,1.565.286.624-1.607.56-1.787.381-.751-.19-.571.751,1.036,2.1-1.036.7H65.127l-1.195-1.523-.286-.867L64.5,26.2l-.634-1.121-1.988-.1-2.633-1.628H58.021l-.286-.994-.846-.37,1.227-1.406L59.9,19.545l3.119-1.121,1.131-.37,2.442-.571,1.65-.9,1.5-1.311h1.988l2.358-.592h1.512l.634-1.745H73.215l-1.131.856H70.107a3.379,3.379,0,0,0-1.512-.856v-.687l1.036-.941,1.343-1a7.775,7.775,0,0,0,1.142-1.967l2.728.941,2.072-.106,1.417-.085,1.8.1,1.036.37c-.285.751-1.417.19-1.417.19l-3.394.37-1.512.814L75.32,9.9l-1.607.1-1.9,1.216,1.332.656H76.25l1.692.624,1.417-.56,1.512.56,1.8.571-2.178.666-1.893.888-1.9.412-1.5.56.635,1.311,3.954-.1,2.506,1.523H84.36l.1-.846.465-.835.951-.19-.761-1.026-.275-.782h1.131l.941.687c.761.56,2.358-.687,2.358-.687l2.358-.888L88.706,12.9l-.941-.941c.275-.56-3.119-1.406-3.119-1.406L82,8.971l-.634-.656H79.126l1.787-.751,4.43.465,2.263-.465L92.8,6.253l3.489-.846,2.527-.93-2.929-.455s-2.072.571-2.358.571-2.739.18-3.024.18H83.9l-2.062.465,1.893.476-1.131.624H80.617l-1.131.381,1.5-1.121-1.6-.381L77.4,5.683,74.95,7.089l1.131.381,1.607-.634,1.322.275-1.417.381-.56.751.941.275-2.538.19-4.431-.751-1.787,2.157-3.584,2.506.941.751-.635.391-.846.444-2.453-.444-3.394.888a17.815,17.815,0,0,0-5.89,2.834A80.247,80.247,0,0,0,43.9,26.2,65.507,65.507,0,0,0,37.12,34.48,95.508,95.508,0,0,0,26.751,51.869a100.633,100.633,0,0,0-4.959,13.949c-1.345,4.818-2.107,9.462-2.107,9.462l7.893-2.643,1.322,1.4,2.274.381,1.512.931,1.6-.624L35.6,76.03l2.929,1.586L41.357,78l.846,2.8s1.988,1.777,1.9,2.157.634,2.062,1.036,2.062a19.8,19.8,0,0,1,2.739,1.216l1.607.18.624-1.4h1.417v1.4l.571.761.19,2.146.571,1.6-.952,1.026L50.4,93.826,48.5,96.438l.19,2.506-.476,1.681,1.417.476-1.226,1.681q.365,1.063.634,2.157a17.033,17.033,0,0,0,1.036,2.337l1.322,1.131.571,1.882,3.2,6.545,2.263,1.882,3.3,1.692s2.072,2.242,2.167,2.506,1.142,4.4,1.142,4.4L64,129.618l.635,2.432.19,2.728.285,3.764.941,2.992.846,3.933-1.036,1.311.635,1.946.761,2.823,1.311,1.417-.085,2.242.275,2.242,5.858,6.186,1.121,1.216v-2.908l1.9-1.079V159.14l-1.9-.846v-1.311l.931-.835.941-1.5V153.42c.783-.275,0-1.121,0-1.121H76.3l-.1-1.205h1.227l.508.74,1-.74-.751-1.5c.19-.465,1.512,0,1.512,0l2.252-1.322.952-1.11v-1.5l-1.079-.962-.951-1.5h1.131s1.7.846,2.263,0,1.417-1.967,1.417-1.967l1.047-2.432s1.977-3.563,2.168-3.838a24.917,24.917,0,0,0,0-3.775l3.109-2.506H94.1l1.692-2.813,1.322-1.85v-3.141l.465-2.992-.74-2.929,2.644-3.468,1.977-1.882-.751-3.458Zm21.021-73.562.634.37.856-.751h1.226l1.121-.37.508-.687-.243-.962.486-.508c.053-.772-1.184-1.332-1.184-1.332h-.687l-.867.983h-.91L121.95,28.3l.138.846-.751.465Zm5.689-7.084-.962.433v1.438l.116.37a4.25,4.25,0,0,1,.106.9l.7.476.687.433.328.624s-.106.624-.476.624l-.867.275.328.582s-.634.328-.7.581l.582.434-.529.529h-1.184v.634h2.474l1.015-.634,1.5.264s1.237-.264,1.5-.264l-.222-.264.381-.476.592-.7-.751-.3-.856-.264.106-.909-.814-.624-1.227-.666-.106-1.226.106-1.057H127.6l-.264-.539.74-.688Zm7.032,4.578v-.4h.856l.486-.349V25.857l.624-.328-.212-1.057-1-.349-1.5.476v.772l-.91.116-.211.708.624.3-1.015.582-.275.454.867.772ZM188.089,60.19l3.553,1.882,1.819-.7,1.216,1.7,3.246.709,1.417.708,3.232-10.236s.094-.422-2.322-5.139-5.178-10.73-11.557-18.272a120.266,120.266,0,0,0-12.046-12.4l-3.37-2.485-3.341.4-.708,1.406-1.512-.56-.719-1.248h-1.417l.624.624.518,1.015h-2.231v1.248l-1.6-.233-.973-.148-.539.275.508.307.7.159-.634.233-.846-.338-1.057-.36-.317-.7-.772-.624-.9-.116-.635-.74,1.375.116,1.216.55,1.015.116s.635-.159.7-.042a7.936,7.936,0,0,0,1.491.307l.825-.624-1.4-1.026-2.464-.73s-4.145-.56-4.346-.55a16.835,16.835,0,0,1-1.755-.539l-1.448-.349h-3.162l-4.811.888-2.654,1.681-3.162,2.823s-2.739.391-2.9.434a13.449,13.449,0,0,0-1.258,1.195l.624,1.364-.158.634.433.338.317.634.434.624,1.6-.233,1.723-.962,1.332.687,1.015,1.755.19,1.047,1.216.233.825-.7.856-.2.465-1.4.074-1.089,1.184-.338v-.719l-.433-.307-.55-.36-.2-1.248,1.8-1.131s.952-.846.952-1,.465-.666.465-.666.74.053.983.085,1.48.465,1.48.465l.476.349-1.459.7-.846.856-.635.423.592,1.364,1.523.772,1.364-.275,2.168-.106s2.485.5,2.6.581-.708.338-.708.338l-.973.275-.539.349-.93-.465a2.454,2.454,0,0,0-1.258-.423,2.512,2.512,0,0,0-1.057.465l.581.888.814.55s-.338,1-.581.962-.624-.73-.624-.73l-.909-.349-.582.349.074.857-.254,1.205-.973.624-.708.55-.941-.55-1.205.349-2.115-.116-.465.423-.751-.307s-1.829.074-1.956.116a6.472,6.472,0,0,1-1.205-.539l-.465-1.047.582-.7-.275-.317-.233-.582.391-.465-.592-.148-.973.962-.042.941s.518.888.55,1a6.891,6.891,0,0,1,.042.814l-.973.391-1.057.307.19.391,1.1.19-.359.624-.635.042-.307.783-.2.423-.856-.233.042-.55.032-.7-.349-.349-.508.55-.55.7-1.258.233-.592.465-.391.846-.941.434-.74.465-1.132-.581-.159.275.233.571-.264.317-1.491-.116-.825-.116-.116,1.089,1.448.233.7.624s.55.656.666.656.91.2.91.2l-.317,1.7-.708,1.6-2.929-.042-3.2-.074-1.015.381-.317.9.275.931-.571,1.755-.233.931a4.777,4.777,0,0,0,.106.951c.084.116.55.931.55.931l-.349,1.322,1.057.306,1.755.116.941.508.708.116,1.163-.508,1.766-.233,1.639-1.364-.264-1.66,1-1.258,2.157-1.353.93-.317-.106-1.4,1.258-.74,1.269.433.856-.465,2.654-.8,2.612,2.411,3.6,2.442s.751,1.47.782,1.586a4.7,4.7,0,0,1-.55,1.015h-2.02l-.751.169s.233.571.381.571,1.766.74,1.766.74l.508.391.275-.074-.042-.74.159-.7.55.074a4.619,4.619,0,0,0,.582-.772,10.181,10.181,0,0,1,.55-1l-.434-.825.243-.539.634.074.074.814h.233l-.074-1-.634-.391-.846-.561-.592-.846-1.015-.275-1.174-.814-.275-.931-1.089-.539-.286-.856.317-.888.7-.127.042.856.7.233.476-.264.7,1.248,1.449.814,1.142.624.7.084,1.174,1.258.275,1.628,2.189,2.252.307,1.586,1.565,1.089.434-.349-.233-1,.856-.465-.275-.708-.867-.3-.349-.7.159-1.121-.508-.581.465.074.349.423.55-.73.941.032.941.391.7.962.708,1.078s-.465.275-.508.391a3.5,3.5,0,0,0,.391.856l.9.814.708.973,1.4-.032.159.624,1.026.116.973-.233.275-.634.434.592,1.131.381.973-.074.825-.9.74.317.55.349-.2.772.5,1.6-.708,1.618v2.1h-4.272l-1.628.634-2.622-1.3-1.723.2-2.939-1.057h-2.326l-.708.624.4,1.11-.909.91-2.337-1.417-1.819.2-.708-1.205-2.739-.8-1.9-.909-1.459-.708,1.723-2.009-.508-1.7-1.216-.719-7.2.814-2.834,1.11-1.829.1-1.893.708-2.326-.508-1.533,1.808L121.7,52.641l-1.65,3.426.434,1.5-2.125,2.02-2.125.8-1.015,1.882s-2.231,4.938-2.432,5.34a14.022,14.022,0,0,0,0,2.918l.91,2.908-2.125,4.938.8,2.411L113.491,83l2.94,4.124-.085,2.073,6.059,4.578,4.06-1.618,3.912,1.237,4.864-2.612s1.618,0,2.125.9A2.467,2.467,0,0,0,140,93.392c1.829,0,2.739,2.009,2.739,2.009l-.8,2.316.4,1.205-.814,1.882,1.9,3.923,1.417,3.013,1.322,2.919.306,3.722-.306,2.115-2.337,4.029.708,6.239.814,1.406-.307,1,1.427,1.512.91,3.511-.814,3.331,1.216,2.506s1.121,2.717,1.216,3.024.814,1.3.709,1.808-.4,1.819-.4,1.819l.4,2.009h5.17l2.443-.8,5.974-6.038a20.217,20.217,0,0,0,1.523-2.02c.1-.3.909-4.018.909-4.018l4.261-1.713v-3.288l-.92-2.612,2.231-2.115,5.985-3.426.508-2.612v-4.526L176.67,112.1l.307-2.1-1.036-.91,1.924-2.812.708-3.722,2.834-1.713.634-1.713,5.17-5.319,1.628-5.065,1.523-2.791V82.924l-1.417-.5-1.628,1.3-2.231.2-2.326.634-1.935-1.216.212-1.512L178.6,79.128l-2.442-1.417-1.11-3.616-2.379-2.252-.2-2.812-1.734-2.506L168.612,61.8l-2.231-2.21-.2-1.819.92.412,1.015.8.4,1.512c.8,0,1.11-1.512,1.11-1.512l.708,1.512.709,1.882,2.231,3.32,1.216.2,1.417,2.918-.1,1.311,4.05,4.124.708,3.817.708,1.713,1.332,1.311,6.08-1.607,1.11-1.015,2.633-.8V76.464l3.045-2.009,1.258-2.337.74-1.184,1.015-1.407-1.671-2.294-2.347-1.967-.74-1.882-.867.2-.634,1.808-2.326.624-1.216-.8-.4-1.7-.814.2-1.216-2.22-1.11-.624-1.427-2.315,1.015-1.11Zm-47.455-14.8.211-.962V43.04a1.6,1.6,0,0,0-.772-.37.82.82,0,0,0-.561.211v1.544a2.929,2.929,0,0,1,0,.962Zm0-4.156a.645.645,0,0,0-.2-.539.612.612,0,0,0-.55-.148l-.37,1.057.37.8h.751ZM112.983,13.761h3.8l2.072-2.95h4.758l.772-1.893,2.929-1.533c1.385-1.205,0-3.373,0-3.373l-5.974-.74-5.932.751-8.639-1.6-5.319,2.4S97.62,6.877,97.1,6.708a19.075,19.075,0,0,0-3.109,0,10.564,10.564,0,0,0,2.76,1.882,5.686,5.686,0,0,0,1.893,0s0,1.671.349,2.062c1.216,1.375-1.258,2.4-1.258,2.4V14.67s.264,3.056.783,2.918,1.353,1.628,1.353,1.628l1.586,1.713h2.908l3.627-4.282,3.563-1.544Zm74.577,102.45-.476-1.248-.539.529-.465,1.068-1.068.624-.465,1.4-.677,1.66-2.612.8-1.142,1.924-.264,3.193-.931,1.576-1.068,1.131.391,1.882.74.867-.74.994.74.634h2.474l1.407-2.062s1.142-2.39,1.142-2.6.539-2.39.539-2.39l1.935-2.506v-3.479h1.343l-.4-2.464ZM52.385,65.255l-2.929-.994s-.825.116-1.777.338a10.911,10.911,0,0,0-2.051.624l4.166,1.406h1.681l2.813,2.4h1.893s1.554-.677,1.036-1.882l-2.411-.856Zm0,0" transform="translate(33.548 4.141)" fill="#ef9797"/>
    <path id="Path_57" data-name="Path 57" d="M124.291,139.49a96.056,96.056,0,0,1-76.777-38.277A94.5,94.5,0,0,1,32.542,17.246a94.436,94.436,0,0,0,3.109,101.593A96.057,96.057,0,0,0,206.746,92.807,95.858,95.858,0,0,1,124.291,139.49Zm0,0" transform="translate(32.751 29.437)" opacity="0.05"/>
    <path id="Path_58" data-name="Path 58" d="M17.235,131.383l-17.2-9.769,25.747-14.625,17.193,9.772Zm0,0" transform="translate(0 182.617)" fill="#b0cfeb"/>
    <path id="Path_59" data-name="Path 59" d="M15.5,119.023,1.258,110.859,15.5,102.7l14.243,8.164Zm0,0" transform="translate(2.094 175.29)" fill="#e9eaf4"/>
    <path id="Path_60" data-name="Path 60" d="M15.5,130.2,1.258,122.036V105.711L15.5,113.875Zm0,0" transform="translate(2.094 180.438)" fill="#c5c7d3"/>
    <path id="Path_61" data-name="Path 61" d="M20.763,122.036,6.52,130.2V113.875l14.243-8.164Zm0,0" transform="translate(11.075 180.438)" fill="#d5d6e0"/>
    <path id="Path_62" data-name="Path 62" d="M13.929,110.745a4.927,4.927,0,0,0,3.669-.433c.888,0,5.7-2.019,6.334-.309.571,1.5-1.512,2.888-2.622,3.14l-1.523.464-3.669,1.525a2.444,2.444,0,0,1-2.231-.317C13.189,114.151,13.252,111.644,13.929,110.745Zm0,0" transform="translate(22.804 186.591)" fill="#8b444f"/>
    <path id="Path_63" data-name="Path 63" d="M16.016,114.1c.973-.211,2.771-1.4,5.192-1.987.931-.222,2.527-1.259,2.7-2.431.211,1.372-1.66,2.6-2.7,2.842-2.421.593-4.219,1.789-5.192,1.99a2.474,2.474,0,0,1-2.242-.317,1.459,1.459,0,0,1-.317-.571A2.915,2.915,0,0,0,16.016,114.1Zm0,0" transform="translate(22.916 187.219)" fill="#cb6a79"/>
    <path id="Path_64" data-name="Path 64" d="M10.733,109.058a4.867,4.867,0,0,0,3.669-.444c.888,0,5.7-2.008,6.334-.3.571,1.5-1.512,2.886-2.612,3.14-2.432.582-4.219,1.787-5.192,1.987a2.5,2.5,0,0,1-2.242-.317C9.993,112.464,10.057,109.946,10.733,109.058Zm0,0" transform="translate(17.35 183.709)" fill="#8b444f"/>
    <path id="Path_65" data-name="Path 65" d="M12.821,112.423c.973-.211,2.76-1.408,5.192-1.987.931-.233,2.527-1.259,2.7-2.444.211,1.386-1.66,2.6-2.7,2.856-2.432.582-4.219,1.787-5.192,1.987a2.5,2.5,0,0,1-2.242-.317,1.338,1.338,0,0,1-.317-.571A2.95,2.95,0,0,0,12.821,112.423Zm0,0" transform="translate(17.462 184.331)" fill="#cb6a79"/>
    <path id="Path_66" data-name="Path 66" d="M9.605,117.368c3.733,1.638,7.264,1.881,10.151.36l2.982-1.713c.18,3.817.349,7.485.349,7.485s2.284,1.724,4.06.192c0,0,.381-5.362.751-10.638l3.151-1.808a4,4,0,0,0-.116.866c0,1.007.719,15.884.719,15.884s2.305,1.364,4.081-.171c0,0,1.195-17.246,1.48-20,.307-3.1-3.162-4.623-5.35-3.83L28.5,105.238c.074-.866.127-1.532.169-1.914.307-3.1-3.161-4.62-5.35-3.837-2,.73-15.491,5.751-15.491,5.751a33.292,33.292,0,0,0,.476,3.838l-5.329-.444C2.648,113.614,5.894,115.738,9.605,117.368Zm9.337-8.565,3.574-2.052a4.767,4.767,0,0,0-.127.761Zm0,0" transform="translate(4.986 169.468)" fill="#cb6a79"/>
    <path id="Path_67" data-name="Path 67" d="M1.879,97.16s.434,6.587,1.3,7.528,3.8,1.6,3.8,1.6L9.249,110S7.176,98.228,6.711,97.943A38.041,38.041,0,0,0,1.879,97.16Zm0,0" transform="translate(3.154 165.842)" fill="#ffcea9"/>
    <path id="Path_68" data-name="Path 68" d="M6.6,94.6a2.5,2.5,0,0,0-3.162.952c-.835,1.375-1.7,6.069-1.766,6.873A3.338,3.338,0,0,0,4.6,103.767Zm0,0" transform="translate(2.794 161.087)" fill="#d2d1d1"/>
    <path id="Path_69" data-name="Path 69" d="M4.17,102.555c1.142.063,2,.349,2.136,0a14.1,14.1,0,0,0,.264-1.777c-.127-.328-.243-.687-.243-.687-1.438-.878-1.9-2.421-2.083-4.219-.317-3.066,1.353-5.763,4.43-6.08,2.908-.306,5.065,1.724,5.625,4.515.307,1.375.92,3.976.1,6.239-.465,1.258-1.068,2.273-1.66,2.474a15.917,15.917,0,0,1-1.724-.159s-.148.856-.254,1.406-.063.835,1.026,1.512-1.65,2.051-3.458,1.914-3.838-1.216-4.388-2.379C3.356,104.046,3.4,102.524,4.17,102.555Zm0,0" transform="translate(5.991 153.215)" fill="#ffcea9"/>
    <path id="Path_70" data-name="Path 70" d="M28.92,103.258a.913.913,0,0,1-.465.793l-8.744,5.021a.91.91,0,0,1-.931,0L6.536,102.04a.885.885,0,0,1-.465-.79v-.1Zm0,0" transform="translate(10.308 172.656)" fill="#ebebeb"/>
    <path id="Path_71" data-name="Path 71" d="M20.147,102.716,11.4,107.738a.885.885,0,0,1-.465.127v-5.931h9.675A.918.918,0,0,1,20.147,102.716Zm0,0" transform="translate(18.616 173.991)" fill="#ebebeb"/>
    <path id="Path_72" data-name="Path 72" d="M19.581,112.107a.62.62,0,0,1-.634,0l-12.763-7.3a.18.18,0,0,1,0-.338L15.563,99.1l13.344,7.656Zm0,0" transform="translate(10.3 169.156)" fill="#f4f4f4"/>
    <path id="Path_73" data-name="Path 73" d="M8.047,102.765l.063.03,4.082,2.339,2.242-1.28.063-.032-4.145-2.379Zm0,0" transform="translate(13.682 173.149)"/>
    <path id="Path_74" data-name="Path 74" d="M8.07,102.747l4.082,2.339,2.242-1.28-4.082-2.336Zm0,0" transform="translate(13.722 173.197)"/>
    <path id="Path_75" data-name="Path 75" d="M13.248,102.36l.592.349a.287.287,0,0,0,.19,0l.561-.328c.053,0,.053-.073,0-.106L14,101.937a.2.2,0,0,0-.19,0l-.55.317C13.216,102.254,13.205,102.308,13.248,102.36Zm0,0" transform="translate(22.513 173.955)"/>
    <path id="Path_76" data-name="Path 76" d="M12.948,102.173l.581.338a.214.214,0,0,0,.19,0l.561-.319c.053-.03.063-.084,0-.106l-.592-.338a.192.192,0,0,0-.18,0l-.56.319C12.906,102.1,12.9,102.141,12.948,102.173Zm0,0" transform="translate(21.987 173.635)"/>
    <path id="Path_77" data-name="Path 77" d="M12.638,102l.581.338a.2.2,0,0,0,.19,0l.561-.317c.053-.033.063-.087,0-.106l-.592-.338a.2.2,0,0,0-.19,0l-.56.317A.065.065,0,0,0,12.638,102Zm0,0" transform="translate(21.462 173.335)"/>
    <path id="Path_78" data-name="Path 78" d="M12.329,101.821l.592.338a.178.178,0,0,0,.18,0l.571-.317c.053-.032.063-.084,0-.106l-.592-.338a.2.2,0,0,0-.19,0l-.56.317A.06.06,0,0,0,12.329,101.821Zm0,0" transform="translate(20.936 173.035)"/>
    <path id="Path_79" data-name="Path 79" d="M12.02,101.645l.592.338a.178.178,0,0,0,.18,0l.571-.317c.053-.033.063-.084,0-.106l-.592-.338a.178.178,0,0,0-.18,0l-.571.317A.06.06,0,0,0,12.02,101.645Zm0,0" transform="translate(20.409 172.734)"/>
    <path id="Path_80" data-name="Path 80" d="M11.709,101.477l.592.338a.214.214,0,0,0,.19,0l.56-.319c.053-.03.063-.084,0-.106l-.581-.349a.214.214,0,0,0-.191,0l-.571.328C11.677,101.379,11.667,101.444,11.709,101.477Zm0,0" transform="translate(19.885 172.429)"/>
    <path id="Path_81" data-name="Path 81" d="M11.409,101.3l.592.338a.257.257,0,0,0,.18,0l.56-.328c.063,0,.063-.076,0-.106l-.581-.338a.2.2,0,0,0-.19,0l-.561.328C11.367,101.225,11.356,101.268,11.409,101.3Zm0,0" transform="translate(19.36 172.129)"/>
    <path id="Path_82" data-name="Path 82" d="M11.1,101.124l.592.338a.286.286,0,0,0,.19,0l.55-.328c.064-.032.064-.073,0-.106l-.581-.338a.2.2,0,0,0-.19,0l-.561.317C11.058,101.041,11.048,101.092,11.1,101.124Zm0,0" transform="translate(18.833 171.828)"/>
    <path id="Path_83" data-name="Path 83" d="M10.789,100.938l.592.338a.2.2,0,0,0,.19,0l.56-.317c.053-.032.053-.084,0-.106l-.592-.338a.2.2,0,0,0-.19,0l-.561.317A.06.06,0,0,0,10.789,100.938Zm0,0" transform="translate(18.309 171.528)"/>
    <path id="Path_84" data-name="Path 84" d="M10.49,100.76l.582.338a.2.2,0,0,0,.19,0l.56-.317c.053-.03.064-.084,0-.106l-.592-.338a.192.192,0,0,0-.18,0l-.561.328C10.437,100.7,10.437,100.731,10.49,100.76Zm0,0" transform="translate(17.784 171.229)"/>
    <path id="Path_85" data-name="Path 85" d="M10.181,100.587l.581.338a.213.213,0,0,0,.19,0l.56-.317c.053-.033.064-.087,0-.108l-.592-.338a.192.192,0,0,0-.18,0l-.56.33C10.128,100.511,10.128,100.555,10.181,100.587Zm0,0" transform="translate(17.257 170.928)"/>
    <path id="Path_86" data-name="Path 86" d="M9.879,100.411l.582.338a.2.2,0,0,0,.19,0l.571-.317c.042-.033.053-.087,0-.106l-.592-.339a.2.2,0,0,0-.19,0l-.56.318C9.826,100.338,9.816,100.378,9.879,100.411Zm0,0" transform="translate(16.735 170.628)"/>
    <path id="Path_87" data-name="Path 87" d="M9.562,100.241l.592.327a.178.178,0,0,0,.18,0l.571-.317c.053,0,.053-.084,0-.106l-.592-.338a.182.182,0,0,0-.18,0l-.571.328C9.519,100.167,9.509,100.21,9.562,100.241Zm0,0" transform="translate(16.206 170.321)"/>
    <path id="Path_88" data-name="Path 88" d="M9.112,99.98l.983.56a.2.2,0,0,0,.19,0l.56-.317c.053-.032.063-.085,0-.106l-.994-.571a.2.2,0,0,0-.19,0l-.56.328C9.059,99.906,9.059,99.948,9.112,99.98Zm0,0" transform="translate(15.43 169.875)"/>
    <path id="Path_89" data-name="Path 89" d="M12.5,102.261l.592.338a.192.192,0,0,0,.18,0l.571-.319c.053-.03.063-.084,0-.116l-.592-.338a.326.326,0,0,0-.19,0l-.56.33A.06.06,0,0,0,12.5,102.261Zm0,0" transform="translate(21.223 173.78)"/>
    <path id="Path_90" data-name="Path 90" d="M12.188,102.084l.592.338a.178.178,0,0,0,.18,0l.571-.328c.053-.032.063-.076,0-.106l-.592-.338a.257.257,0,0,0-.18,0l-.571.328A.06.06,0,0,0,12.188,102.084Zm0,0" transform="translate(20.696 173.48)"/>
    <path id="Path_91" data-name="Path 91" d="M11.879,101.905l.592.328a.2.2,0,0,0,.19,0l.561-.317c.053-.033.063-.084,0-.106l-.592-.338a.178.178,0,0,0-.18,0l-.571.317C11.837,101.843,11.837,101.905,11.879,101.905Zm0,0" transform="translate(20.169 173.161)"/>
    <path id="Path_92" data-name="Path 92" d="M11.571,101.727l.592.338a.2.2,0,0,0,.19,0l.561-.317c.053-.032.063-.084,0-.106l-.592-.338a.178.178,0,0,0-.18,0l-.571.317C11.529,101.654,11.529,101.708,11.571,101.727Zm0,0" transform="translate(19.643 172.874)"/>
    <path id="Path_93" data-name="Path 93" d="M11.282,101.56l.592.338a.2.2,0,0,0,.19,0l.55-.317c.063,0,.063-.084,0-.116l-.581-.338a.214.214,0,0,0-.191,0l-.571.328C11.229,101.487,11.219,101.53,11.282,101.56Zm0,0" transform="translate(19.128 172.575)"/>
    <path id="Path_94" data-name="Path 94" d="M10.955,101.386l.592.328a.214.214,0,0,0,.19,0l.56-.317c.053,0,.053-.087,0-.106l-.592-.338a.2.2,0,0,0-.19,0l-.56.328A.064.064,0,0,0,10.955,101.386Zm0,0" transform="translate(18.598 172.275)"/>
    <path id="Path_95" data-name="Path 95" d="M10.646,101.21l.592.328a.2.2,0,0,0,.19,0l.56-.317c.053-.033.053-.084,0-.106l-.592-.338a.2.2,0,0,0-.191,0l-.55.317C10.614,101.127,10.6,101.21,10.646,101.21Zm0,0" transform="translate(18.072 171.975)"/>
    <path id="Path_96" data-name="Path 96" d="M10.332,101.025l.582.338a.2.2,0,0,0,.19,0l.56-.317c.053-.032.063-.084,0-.116l-.592-.338a.287.287,0,0,0-.191,0l-.55.328C10.332,100.952,10.29,100.993,10.332,101.025Zm0,0" transform="translate(17.551 171.673)"/>
    <path id="Path_97" data-name="Path 97" d="M10.038,100.853l.582.338a.287.287,0,0,0,.19,0l.56-.328c.053-.03.064-.073,0-.106l-.592-.338a.192.192,0,0,0-.18,0l-.561.328C10,100.78,9.985,100.823,10.038,100.853Zm0,0" transform="translate(17.02 171.369)"/>
    <path id="Path_98" data-name="Path 98" d="M9.73,100.68l.582.338a.325.325,0,0,0,.19,0l.56-.328c.053-.032.064-.076,0-.108l-.592-.338a.192.192,0,0,0-.18,0l-.56.319A.065.065,0,0,0,9.73,100.68Zm0,0" transform="translate(16.493 171.068)"/>
    <path id="Path_99" data-name="Path 99" d="M9.418,100.506l.582.338a.214.214,0,0,0,.19,0l.56-.319c.053,0,.063-.084,0-.114l-.592-.338a.257.257,0,0,0-.18,0l-.56.328C9.376,100.4,9.376,100.452,9.418,100.506Zm0,0" transform="translate(15.969 170.787)"/>
    <path id="Path_100" data-name="Path 100" d="M9.113,100.316l.582.338a.2.2,0,0,0,.19,0l.56-.317c.053-.033.063-.084,0-.106l-.592-.339a.2.2,0,0,0-.19,0l-.56.317C9.071,100.243,9.06,100.295,9.113,100.316Zm0,0" transform="translate(15.439 170.468)"/>
    <path id="Path_101" data-name="Path 101" d="M12.805,102.434,13.8,103a.178.178,0,0,0,.18,0l.56-.317c.063-.032.063-.084,0-.106l-.983-.571a.2.2,0,0,0-.19,0l-.56.317C12.763,102.361,12.763,102.415,12.805,102.434Zm0,0" transform="translate(21.75 174.081)"/>
    <path id="Path_102" data-name="Path 102" d="M10.074,99.714l.592.338c.053,0,.053.074,0,.1l-.592.349a.263.263,0,0,1-.18,0l-.042-.032a.143.143,0,0,0-.159,0l-.634.358a.178.178,0,0,1-.18,0l-.37-.211c-.053-.03-.053-.073,0-.094l.582-.349.127-.063.085-.053L9.4,100l.5-.286A.182.182,0,0,1,10.074,99.714Zm0,0" transform="translate(14.404 170.161)"/>
    <path id="Path_103" data-name="Path 103" d="M12.062,103.032l.592.338a.178.178,0,0,0,.18,0l.561-.328c.063,0,.063-.073,0-.106l-.582-.328a.2.2,0,0,0-.19,0l-.56.317C12.019,102.959,12.009,103.01,12.062,103.032Zm0,0" transform="translate(20.473 175.102)"/>
    <path id="Path_104" data-name="Path 104" d="M11.723,102.856l.581.338a.2.2,0,0,0,.19,0l.56-.317c.053,0,.064-.084,0-.106l-.581-.338a.2.2,0,0,0-.19,0l-.56.317Zm0,0" transform="translate(19.956 174.802)"/>
    <path id="Path_105" data-name="Path 105" d="M11.451,102.681l.581.338a.2.2,0,0,0,.19,0l.561-.317c.053-.03.063-.084,0-.106l-.592-.349a.257.257,0,0,0-.18,0l-.56.328C11.4,102.608,11.4,102.652,11.451,102.681Zm0,0" transform="translate(19.424 174.499)"/>
    <path id="Path_106" data-name="Path 106" d="M8.838,101.19l.582.338a.2.2,0,0,0,.19,0l.56-.328c.053-.03.063-.073,0-.106l-.592-.338a.2.2,0,0,0-.19,0l-.56.328C8.786,101.117,8.786,101.161,8.838,101.19Zm0,0" transform="translate(14.963 171.941)"/>
    <path id="Path_107" data-name="Path 107" d="M8.526,101.011l.592.338a.192.192,0,0,0,.18,0l.56-.33c.063-.03.063-.073,0-.106l-.582-.338a.325.325,0,0,0-.19,0l-.56.33C8.484,100.905,8.474,100.978,8.526,101.011Zm0,0" transform="translate(14.439 171.647)"/>
    <path id="Path_108" data-name="Path 108" d="M8.222,100.839l.582.338a.2.2,0,0,0,.19,0l.56-.328c.053-.033.063-.076,0-.106l-.592-.338a.2.2,0,0,0-.19,0l-.55.328C8.179,100.764,8.169,100.807,8.222,100.839Zm0,0" transform="translate(13.919 171.342)"/>
    <path id="Path_109" data-name="Path 109" d="M7.911,100.657l.582.338a.2.2,0,0,0,.19,0l.571-.317c.042-.033.053-.084,0-.106l-.592-.338a.2.2,0,0,0-.19,0l-.56.317A.06.06,0,0,0,7.911,100.657Zm0,0" transform="translate(13.395 171.048)"/>
    <path id="Path_110" data-name="Path 110" d="M11.064,102.451l.8.466a.192.192,0,0,0,.18,0l.561-.319c.063-.03.063-.084,0-.106l-.8-.455a.192.192,0,0,0-.18,0l-.56.319C11.011,102.375,11.011,102.43,11.064,102.451Zm0,0" transform="translate(18.764 174.129)"/>
    <path id="Path_111" data-name="Path 111" d="M9.136,101.36l.8.455a.2.2,0,0,0,.19,0l.56-.317c.053-.032.063-.084,0-.106l-.793-.455a.2.2,0,0,0-.19,0l-.55.317C9.093,101.287,9.093,101.338,9.136,101.36Zm0,0" transform="translate(15.49 172.248)"/>
    <path id="Path_112" data-name="Path 112" d="M9.526,101.579l3.912,2.241a.178.178,0,0,0,.18,0l.571-.317c.053-.033.063-.084,0-.106l-3.912-2.241a.2.2,0,0,0-.19,0l-.56.317C9.484,101.506,9.474,101.557,9.526,101.579Zm0,0" transform="translate(16.146 172.622)"/>
    <path id="Path_113" data-name="Path 113" d="M12.111,102.391l.592.328a.214.214,0,0,0,.19,0l.56-.319c.053-.03.064-.084,0-.106l-.581-.338a.213.213,0,0,0-.19,0l-.571.33C12.08,102.326,12.069,102.326,12.111,102.391Zm0,0" transform="translate(20.572 173.989)"/>
    <path id="Path_114" data-name="Path 114" d="M11.812,102.214l.592.338a.257.257,0,0,0,.18,0l.561-.328c.063,0,.063-.076,0-.106l-.582-.338a.2.2,0,0,0-.19,0l-.56.328C11.769,102.139,11.759,102.182,11.812,102.214Zm0,0" transform="translate(20.047 173.689)"/>
    <path id="Path_115" data-name="Path 115" d="M11.518,102.038l.581.338a.286.286,0,0,0,.19,0l.571-.328c.042-.032.053-.073,0-.106l-.592-.338a.2.2,0,0,0-.19,0l-.56.317C11.455,101.955,11.455,102.006,11.518,102.038Zm0,0" transform="translate(19.526 173.388)"/>
    <path id="Path_116" data-name="Path 116" d="M11.2,101.852l.581.338a.2.2,0,0,0,.19,0l.561-.317c.053-.033.063-.073,0-.106l-.592-.338a.178.178,0,0,0-.18,0l-.56.317C11.148,101.779,11.148,101.833,11.2,101.852Zm0,0" transform="translate(18.998 173.088)"/>
    <path id="Path_117" data-name="Path 117" d="M10.89,101.677l.581.338a.214.214,0,0,0,.19,0l.561-.33c.053-.03.063-.073,0-.106l-.582-.328a.213.213,0,0,0-.19,0l-.56.317C10.848,101.6,10.837,101.645,10.89,101.677Zm0,0" transform="translate(18.473 172.789)"/>
    <path id="Path_118" data-name="Path 118" d="M10.551,101.5l.592.338a.192.192,0,0,0,.18,0l.571-.328c.053-.032.063-.076,0-.106l-.592-.328a.178.178,0,0,0-.18,0l-.571.317Zm0,0" transform="translate(17.956 172.489)"/>
    <path id="Path_119" data-name="Path 119" d="M10.268,101.325l.592.338a.2.2,0,0,0,.19,0l.56-.328c.053-.032.053-.073,0-.106l-.592-.328a.2.2,0,0,0-.19,0l-.56.317C10.236,101.252,10.225,101.3,10.268,101.325Zm0,0" transform="translate(17.425 172.188)"/>
    <path id="Path_120" data-name="Path 120" d="M9.968,101.15l.582.338a.2.2,0,0,0,.19,0l.56-.317c.053-.033.063-.084,0-.116l-.592-.338a.257.257,0,0,0-.18,0l-.56.328C9.926,101.077,9.915,101.118,9.968,101.15Zm0,0" transform="translate(16.9 171.886)"/>
    <path id="Path_121" data-name="Path 121" d="M9.662,100.97l.582.338a.214.214,0,0,0,.19,0l.571-.319c.042,0,.053-.084,0-.106l-.592-.338a.214.214,0,0,0-.19,0l-.56.317C9.609,100.905,9.609,100.97,9.662,100.97Zm0,0" transform="translate(16.371 171.582)"/>
    <path id="Path_122" data-name="Path 122" d="M9.348,100.8l.592.338a.192.192,0,0,0,.18,0l.571-.328c.053,0,.063-.076,0-.108l-.592-.338a.291.291,0,0,0-.18,0l-.571.319A.069.069,0,0,0,9.348,100.8Zm0,0" transform="translate(15.849 171.287)"/>
    <path id="Path_123" data-name="Path 123" d="M9.037,100.628l.592.338a.287.287,0,0,0,.19,0l.56-.328c.053-.032.063-.076,0-.106L9.8,100.2a.2.2,0,0,0-.19,0l-.571.317C9.005,100.555,8.995,100.6,9.037,100.628Zm0,0" transform="translate(15.324 170.982)"/>
    <path id="Path_124" data-name="Path 124" d="M8.737,100.452l.592.328a.178.178,0,0,0,.18,0l.56-.317c.063-.032.063-.084,0-.106l-.582-.338a.2.2,0,0,0-.19,0l-.56.328C8.7,100.379,8.685,100.42,8.737,100.452Zm0,0" transform="translate(14.799 170.681)"/>
    <path id="Path_125" data-name="Path 125" d="M12.422,102.545l1.216.72a.2.2,0,0,0,.19,0l.56-.317c.053-.032.063-.076,0-.106l-1.216-.7a.178.178,0,0,0-.18,0l-.571.328C12.38,102.472,12.38,102.515,12.422,102.545Zm0,0" transform="translate(21.096 174.308)"/>
    <path id="Path_126" data-name="Path 126" d="M11.981,102.646l.592.338a.256.256,0,0,0,.18,0l.571-.328c.053,0,.064-.073,0-.106l-.592-.338a.192.192,0,0,0-.18,0l-.571.309C11.928,102.573,11.917,102.616,11.981,102.646Zm0,0" transform="translate(20.322 174.429)"/>
    <path id="Path_127" data-name="Path 127" d="M11.658,102.473l.592.338a.326.326,0,0,0,.19,0l.56-.328c.053-.033.053-.076,0-.108l-.592-.338a.192.192,0,0,0-.18,0l-.561.33A.06.06,0,0,0,11.658,102.473Zm0,0" transform="translate(19.799 174.129)"/>
    <path id="Path_128" data-name="Path 128" d="M11.358,102.286l.582.349a.287.287,0,0,0,.19,0l.56-.328c.064-.032.064-.076,0-.106l-.592-.338a.178.178,0,0,0-.18,0l-.561.317C11.316,102.213,11.306,102.264,11.358,102.286Zm0,0" transform="translate(19.273 173.829)"/>
    <path id="Path_129" data-name="Path 129" d="M11.019,102.11l.592.338a.2.2,0,0,0,.19,0l.56-.317c.053-.033.053-.084,0-.106l-.592-.338a.2.2,0,0,0-.19,0l-.55.317A.4.4,0,0,0,11.019,102.11Zm0,0" transform="translate(18.756 173.528)"/>
    <path id="Path_130" data-name="Path 130" d="M10.739,101.934l.592.338a.2.2,0,0,0,.19,0l.56-.317c.053-.032.064-.084,0-.106l-.592-.338a.178.178,0,0,0-.18,0l-.571.317C10.7,101.839,10.7,101.915,10.739,101.934Zm0,0" transform="translate(18.222 173.228)"/>
    <path id="Path_131" data-name="Path 131" d="M10.427,101.767l.592.33a.214.214,0,0,0,.19,0l.561-.319c.063-.03.063-.084,0-.106l-.582-.338a.213.213,0,0,0-.19,0l-.56.328C10.4,101.694,10.385,101.737,10.427,101.767Zm0,0" transform="translate(17.699 172.929)"/>
    <path id="Path_132" data-name="Path 132" d="M10.131,101.593l.592.328a.2.2,0,0,0,.19,0l.55-.317c.063-.032.063-.087,0-.106l-.582-.338a.2.2,0,0,0-.19,0l-.56.317A.062.062,0,0,0,10.131,101.593Zm0,0" transform="translate(17.171 172.629)"/>
    <path id="Path_133" data-name="Path 133" d="M9.826,101.408l.581.338a.2.2,0,0,0,.19,0l.561-.317c.053,0,.063-.084,0-.116l-.592-.338a.287.287,0,0,0-.19,0l-.55.328C9.773,101.335,9.773,101.376,9.826,101.408Zm0,0" transform="translate(16.651 172.327)"/>
    <path id="Path_134" data-name="Path 134" d="M9.518,101.231l.582.338a.2.2,0,0,0,.19,0l.56-.317c.053-.032.063-.084,0-.106l-.592-.338a.2.2,0,0,0-.19,0l-.56.317C9.465,101.158,9.465,101.2,9.518,101.231Zm0,0" transform="translate(16.123 172.028)"/>
    <path id="Path_135" data-name="Path 135" d="M9.206,101.055l.592.338a.178.178,0,0,0,.18,0l.571-.317c.053-.03.063-.084,0-.106l-.592-.338a.2.2,0,0,0-.19,0l-.56.317C9.164,100.982,9.153,101.036,9.206,101.055Zm0,0" transform="translate(15.6 171.727)"/>
    <path id="Path_136" data-name="Path 136" d="M8.895,100.88l.592.338a.214.214,0,0,0,.19,0l.56-.328c.053-.033.063-.076,0-.106l-.592-.33a.214.214,0,0,0-.19,0l-.56.319A.06.06,0,0,0,8.895,100.88Zm0,0" transform="translate(15.075 171.428)"/>
    <path id="Path_137" data-name="Path 137" d="M8.207,100.485l1.628.931a.178.178,0,0,0,.18,0l.56-.328c.063-.033.063-.076,0-.106l-1.618-.92a.178.178,0,0,0-.18,0l-.571.317C8.165,100.412,8.165,100.463,8.207,100.485Zm0,0" transform="translate(13.902 170.755)"/>
    <path id="Path_138" data-name="Path 138" d="M12.281,102.826l.8.466a.2.2,0,0,0,.19,0l.55-.328c.064-.032.064-.076,0-.106l-.8-.466a.287.287,0,0,0-.191,0l-.56.328C12.239,102.732,12.228,102.783,12.281,102.826Zm0,0" transform="translate(20.846 174.747)"/>
    <path id="Path_139" data-name="Path 139" d="M22.933,113.587,9.578,105.931V95.516l.1-.243.116-.053a.949.949,0,0,1,.92,0l12.223,7a.937.937,0,0,1,.455.793v9.782C23.3,113.3,23.208,113.417,22.933,113.587Zm0,0" transform="translate(16.296 162.327)" fill="#f4f4f4"/>
    <path id="Path_140" data-name="Path 140" d="M21.706,103.478,9.578,95.854v-.338l.1-.243.116-.053a.949.949,0,0,1,.92,0l12.223,7a.947.947,0,0,1,.349.359Zm0,0" transform="translate(16.296 162.327)" fill="#eaeff3"/>
    <path id="Path_141" data-name="Path 141" d="M9.885,95.179l12.826,7.349a.454.454,0,0,1,.222.381v10.585L9.578,105.838V95.359a.218.218,0,0,1,.106-.18A.223.223,0,0,1,9.885,95.179Zm0,0" transform="translate(16.296 162.42)"/>
    <path id="Path_142" data-name="Path 142" d="M9.885,95.179l12.826,7.349a.454.454,0,0,1,.222.381v10.585L9.578,105.838V95.359a.218.218,0,0,1,.106-.18A.223.223,0,0,1,9.885,95.179Zm0,0" transform="translate(16.296 162.42)" fill="#f4f4f4"/>
    <path id="Path_143" data-name="Path 143" d="M22.933,107v-.382L9.578,98.961v.381Zm0,0" transform="translate(16.296 168.916)" fill="#dcdcdd"/>
    <path id="Path_144" data-name="Path 144" d="M9.707,104.926V95.367l.159.1v9.379Zm0,0" transform="translate(16.516 162.782)"/>
    <path id="Path_145" data-name="Path 145" d="M9.766,95.4v9.379l12.414,7.094v-9.368Zm0,0" transform="translate(16.616 162.842)" fill="#8b444f"/>
    <path id="Path_146" data-name="Path 146" d="M9.707,98.952l12.572,7.2v-.192L9.866,98.867Zm0,0" transform="translate(16.516 168.756)" fill="#152d6a"/>
    <path id="Path_147" data-name="Path 147" d="M8.172,94.719c-.317.782.486,1.745,2.643,2.421s2.347-.19,2.347-.19a44.522,44.522,0,0,1,4.187,2.136c1.258.9,1.861,3.489,2.041,7.877.2,5.064.211,12.562.042,13.883a7.809,7.809,0,0,1-5.5,2.136c-3.088-.254-8.29-2.961-9.559-5.065.042-4.442.56-5.17-.169-7.728-1.65-5.859-2.527-8.259-1.724-12.15.666-3.214,1.6-3.616,2.876-3.584A27.852,27.852,0,0,1,8.172,94.719Zm0,0" transform="translate(3.67 161.221)" fill="#d9d9d9"/>
    <path id="Path_148" data-name="Path 148" d="M16.566,109.363c-2.527.625-3.13-.961-3.468-2.274-.8-3.182-1.269-6.048-1.84-7.856-.708-2.136-1.449-2.474-2.5-2.887-1.216-.486-2.273.539-1.861,3.246a53.4,53.4,0,0,0,2.316,9.253,8.214,8.214,0,0,0,2.083,3.606c1.311,1.045,3.278,1,6.26.263a33.119,33.119,0,0,0,5.065-2.176c.634-.3,1.142-.5,2.379-1.069a8.523,8.523,0,0,0,3.172-2.463c.624-.931.73-1.375.624-1.586s-.455-.2-.8.18a6.812,6.812,0,0,1-1.829,1.683s.8-.826,1.237-1.355a6.57,6.57,0,0,0,.962-1.554c.233-.55-.243-1.29-.634-.9s-.529.782-1.184,1.565a7.31,7.31,0,0,1-1.174,1.11,11.735,11.735,0,0,0,1.078-1.723,2.815,2.815,0,0,0,.4-1.565c0-.286-.433-.635-.8-.085a10.406,10.406,0,0,1-1.364,2.062c-.582.6-1.068.941-1.089.782s.349-.5.561-1.195,0-1.427-.391-1.5-.307-.063-.634.592A18.709,18.709,0,0,0,22,105.589a4.454,4.454,0,0,1-1.047,1.788C20.361,108.031,18.976,108.749,16.566,109.363Zm0,0" transform="translate(11.571 164.255)" fill="#ffcea9"/>
    <path id="Path_149" data-name="Path 149" d="M8.33,96.142c1.681-.254,2.876.508,3.637,3.056s1.258,4.631,1.258,4.631a4.621,4.621,0,0,1-2.834,1.893c-2.03.486-2.76-.476-2.76-.476s-.56-2.665-.909-4.483S6.236,96.449,8.33,96.142Zm0,0" transform="translate(11.073 164.026)" fill="#d2d1d1"/>
    <path id="Path_150" data-name="Path 150" d="M14.018,94.416s2.675-4.039-3.13-4.864c-4.187-.592-6.862,2.072-7.18,4.97a8.943,8.943,0,0,0,2.665,6.767,5.021,5.021,0,0,0,3.606-.433,20.15,20.15,0,0,0,.085-2.263S8.023,94.342,14.018,94.416Zm0,0" transform="translate(6.22 152.715)" fill="#8b444f"/>
    <path id="Path_151" data-name="Path 151" d="M17.9,117.815V105.688l-9.7,5.625,3.733,7.666Zm0,0" transform="translate(13.942 180.398)" fill="#d5d6e0"/>
    <path id="Path_152" data-name="Path 152" d="M9.434,107.3l3.722-2.147,2.633,1.513-3.859,2.168Zm0,0" transform="translate(16.049 179.484)" fill="#e9eaf4"/>
    <path id="Path_153" data-name="Path 153" d="M59.337,83.562c0-.814-1.163-1.48-2.59-1.48s-2.59.666-2.59,1.48,1.163,1.48,2.59,1.48S59.337,84.377,59.337,83.562Zm0,0" transform="translate(92.386 140.105)" fill="#d5d6e0"/>
  </g>
</svg>
