<svg xmlns="http://www.w3.org/2000/svg" width="86" height="86" viewBox="0 0 86 86">
  <g id="Group_84" data-name="Group 84" transform="translate(-145 -751)">
    <circle id="Ellipse_94" data-name="Ellipse 94" cx="43" cy="43" r="43" transform="translate(145 751)" fill="#cb6a79" opacity="0.4"/>
    <g id="Group_42" data-name="Group 42" transform="translate(169.049 762.238)">
      <path id="Path_586" data-name="Path 586" d="M269.1,266.351l-17.705-10.2a.652.652,0,0,1,.026-1.146l2.227-1.15a.659.659,0,0,1,.626.015l18.3,10.538a.654.654,0,0,1-.026,1.148l-1.616.832A1.91,1.91,0,0,1,269.1,266.351Z" transform="translate(-238.283 -207.177)" fill="#d6d8e5" opacity="0.4"/>
      <path id="Path_587" data-name="Path 587" d="M277.8,57.212,262.706,48.5a5.519,5.519,0,0,1-2.316-4.422V1.985c0-1.7,1.038-2.488,2.316-1.75L277.8,8.963a5.519,5.519,0,0,1,2.316,4.422V55.473C280.112,57.168,279.074,57.95,277.8,57.212Z" transform="translate(-245.898 0.043)" fill="#b1b4c4"/>
      <path id="Path_588" data-name="Path 588" d="M356.59,304.459l1.2-.6-1.146-1.965Z" transform="translate(-324.433 -246.446)" fill="#b1b4c4"/>
      <path id="Path_590" data-name="Path 590" d="M272.633,59.864l-15.089-8.711a5.517,5.517,0,0,1-2.314-4.422V4.645c0-1.7,1.036-2.488,2.314-1.75l15.089,8.711a5.517,5.517,0,0,1,2.314,4.422V58.116C274.937,59.82,273.9,60.6,272.633,59.864Z" transform="translate(-241.686 -2.129)" fill="#616e84"/>
      <path id="Path_591" data-name="Path 591" d="M274.016,16.619V58.7c0,1.706-1.036,2.488-2.314,1.752l-5.917-3.417-1.836-1.061-7.336-4.233A5.518,5.518,0,0,1,254.3,47.32V5.235c0-1.7,1.036-2.488,2.314-1.752L271.7,12.195A5.572,5.572,0,0,1,274.016,16.619Z" transform="translate(-240.926 -2.611)" fill="#20232d"/>
      <path id="Path_592" data-name="Path 592" d="M277.738,23.742v40.99c0,1.032-.725,1.452-1.62.935L271.4,62.943l-.411-.241-.14-.081-1.019-.589-2.951-1.7h0l-1.225-.707-.492-.285-3.355-1.93A3.58,3.58,0,0,1,260.19,54.6V13.614c0-1.034.724-1.453,1.618-.937l5.891,3.4V16.1a2.793,2.793,0,0,0,1.271,2.183c.7.4,1.263.075,1.263-.735v-.018l5.891,3.4A3.607,3.607,0,0,1,277.738,23.742Z" transform="translate(-245.735 -10.162)" fill="#fff"/>
      <ellipse id="Ellipse_67" data-name="Ellipse 67" cx="0.392" cy="0.678" rx="0.392" ry="0.678" transform="translate(22.78 6.745) rotate(-29.887)" fill="#2b303f"/>
      <path id="Path_593" data-name="Path 593" d="M307.1,37.71a.446.446,0,0,1-.2-.354c0-.129.09-.184.2-.116a.441.441,0,0,1,.2.347C307.3,37.723,307.21,37.774,307.1,37.71Z" transform="translate(-283.867 -30.37)" fill="#fff" opacity="0.1"/>
      <path id="Path_594" data-name="Path 594" d="M364,95.65h0c-.123.072-.224,0-.224-.169V93.687a.538.538,0,0,1,.224-.426h0c.123-.07.222,0,.222.169v1.794A.533.533,0,0,1,364,95.65Z" transform="translate(-330.302 -76.106)" fill="#757b89"/>
      <path id="Path_595" data-name="Path 595" d="M364,111.66h0c-.123.072-.224,0-.224-.167v-1.8a.538.538,0,0,1,.224-.426h0c.123-.07.222,0,.222.169v1.794a.531.531,0,0,1-.222.426Z" transform="translate(-330.302 -89.176)" fill="#757b89"/>
      <ellipse id="Ellipse_68" data-name="Ellipse 68" cx="6.972" cy="4.025" rx="6.972" ry="4.025" transform="translate(0 57.855)" fill="#d6d8e5" opacity="0.4"/>
      <g id="Men_2" transform="translate(0.415 20.421)">
        <path id="Path_638" data-name="Path 638" d="M184.514,166.22c-.083.72-.942,3.827-.758,4.89s3.122,2.846,3.122,2.846l.408-1.823-1.627-1.592.441-3.017Z" transform="translate(-183.73 -156.11)" fill="#ffcea9"/>
        <path id="Path_639" data-name="Path 639" d="M189,149.012a1.285,1.285,0,0,0-1.634.494,14.865,14.865,0,0,0-.918,3.588,1.73,1.73,0,0,0,1.515.7Z" transform="translate(-185.951 -141.965)" fill="#ededed"/>
        <path id="Path_640" data-name="Path 640" d="M217.379,334.888a2.514,2.514,0,0,0,1.908-.23c.459.015,2.938-1.048,3.28-.156.3.782-.78,1.506-1.355,1.653-1.254.3-2.182.929-2.686,1.036a1.281,1.281,0,0,1-1.161-.163A2.259,2.259,0,0,1,217.379,334.888Z" transform="translate(-210.974 -293.199)" fill="#0f2046"/>
        <path id="Path_641" data-name="Path 641" d="M218.914,339.248c.5-.107,1.432-.735,2.686-1.036.483-.117,1.313-.645,1.4-1.273.112.72-.859,1.359-1.4,1.489-1.254.3-2.182.929-2.686,1.036a1.28,1.28,0,0,1-1.161-.163.743.743,0,0,1-.163-.3A1.5,1.5,0,0,0,218.914,339.248Z" transform="translate(-211.372 -295.481)" fill="#284688"/>
        <path id="Path_642" data-name="Path 642" d="M195.432,325.034a2.514,2.514,0,0,0,1.9-.23c.459.015,2.938-1.05,3.28-.156.3.782-.779,1.506-1.353,1.653-1.256.3-2.183.929-2.688,1.036a1.275,1.275,0,0,1-1.161-.165A2.288,2.288,0,0,1,195.432,325.034Z" transform="translate(-193.056 -285.155)" fill="#0f2046"/>
        <path id="Path_643" data-name="Path 643" d="M196.974,329.4c.5-.107,1.432-.735,2.688-1.036.481-.117,1.311-.645,1.394-1.273.112.72-.858,1.359-1.394,1.489-1.256.3-2.183.929-2.688,1.036a1.275,1.275,0,0,1-1.161-.165.724.724,0,0,1-.163-.3A1.5,1.5,0,0,0,196.974,329.4Z" transform="translate(-193.461 -287.44)" fill="#284688"/>
        <path id="Path_644" data-name="Path 644" d="M195.382,229.089a15.109,15.109,0,0,1,.573-2.721s-.171-2.347-.255-4.572c-.1-2.527-.975-4.75-.283-6.765l7.788,1.733s-.472,10.07-.575,11.29a22.8,22.8,0,0,1-.351,2.828c-.356,1.954-.933,6.611-.933,6.611a2.92,2.92,0,0,1-1.906.213s.059-5.876.112-7.29c.064-1.719.118-1.588.118-1.588l-.257-4.284-.169-2.132s-.217,1.565-.356,2.962c-.123,1.217-.417,2.321-.746,4.591-.285,1.969-.747,5.92-.747,5.92a2.641,2.641,0,0,1-1.943.083A63.612,63.612,0,0,1,195.382,229.089Z" transform="translate(-193.056 -195.957)" fill="#233f71"/>
        <path id="Path_645" data-name="Path 645" d="M201.123,120.086c.593.028,1.036.184,1.1,0a7.53,7.53,0,0,0,.136-.927c-.068-.173-.127-.358-.127-.358a2.853,2.853,0,1,1,4.135-3.021,5.978,5.978,0,0,1,.048,3.256c-.239.661-.551,1.184-.858,1.285a7.591,7.591,0,0,1-.892-.079h0s-.081.444-.136.735-.033.437.536.788-.861,1.071-1.794,1a2.933,2.933,0,0,1-2.26-1.232C200.688,120.861,200.715,120.066,201.123,120.086Z" transform="translate(-197.658 -112.995)" fill="#ffcea9"/>
        <path id="Path_646" data-name="Path 646" d="M193.483,149.6c-.165.411.253.918,1.368,1.263s1.214-.1,1.214-.1a19.913,19.913,0,0,1,2.167,1.116c.67.468.966,1.822,1.056,4.106.1,2.644.114,6.567.026,7.244a4.048,4.048,0,0,1-2.85,1.115c-1.6-.13-4.293-1.548-4.945-2.641.017-2.319.288-2.7-.086-4.04-.859-3.057-1.313-4.31-.894-6.341.343-1.675.826-1.882,1.487-1.867A13.792,13.792,0,0,1,193.483,149.6Z" transform="translate(-189.159 -142.425)" fill="#f4f4f4"/>
        <path id="Path_647" data-name="Path 647" d="M231.33,169.8c-1.32-.307-3.037-.459-3.623-.856-1.418-.96-2.584-1.928-3.443-2.424a1.9,1.9,0,0,0-1.965-.264c-.643.233-.692,1,.406,1.912a28.545,28.545,0,0,0,4.111,2.8,50.6,50.6,0,0,0,7.026.815c.367.015.646.04,1.355.068a4.376,4.376,0,0,0,2.051-.389c.522-.279.667-.463.656-.593-.013-.163-.163-.206-.417-.1a3.6,3.6,0,0,1-1.24.345s.566-.184.892-.336a3.558,3.558,0,0,0,.813-.5c.235-.2.193-.652-.064-.551s-.432.239-.918.446a3.545,3.545,0,0,1-.806.237,6.606,6.606,0,0,0,.918-.551,1.489,1.489,0,0,0,.551-.632c.061-.136-.046-.389-.349-.228a5.339,5.339,0,0,1-1.12.635c-.409.14-.718.184-.685.1s.279-.145.54-.417.34-.665.184-.793-.13-.1-.428.127a9.828,9.828,0,0,0-1.026.692,2.242,2.242,0,0,1-.905.58A5,5,0,0,1,231.33,169.8Z" transform="translate(-214.844 -156.004)" fill="#ffcea9"/>
        <path id="Path_648" data-name="Path 648" d="M220.013,161.786c.622-.634,1.355-.69,2.464.136s1.983,1.533,1.983,1.533a2.387,2.387,0,0,1-.584,1.666c-.685.834-1.285.661-1.285.661s-1.072-.935-1.789-1.583S219.243,162.567,220.013,161.786Z" transform="translate(-213.101 -152.099)" fill="#ededed"/>
        <path id="Path_649" data-name="Path 649" d="M207.144,113.743s1.386-2.106-1.616-2.536a3.071,3.071,0,0,0-3.717,2.593,4.727,4.727,0,0,0,1.375,3.533,2.565,2.565,0,0,0,1.871-.226,10.761,10.761,0,0,0,.04-1.181S204.044,113.7,207.144,113.743Z" transform="translate(-198.477 -111.164)" fill="#240c00"/>
      </g>
    </g>
  </g>
</svg>
