<svg id="Group_83" data-name="Group 83" xmlns="http://www.w3.org/2000/svg" width="109.608" height="208.686" viewBox="0 0 109.608 208.686">
  <path id="Path_586" data-name="Path 586" d="M308.165,293.567,252.1,261.284a2.064,2.064,0,0,1,.081-3.628l7.053-3.64a2.088,2.088,0,0,1,1.983.046l57.948,33.37a2.07,2.07,0,0,1-.082,3.634l-5.117,2.634A6.048,6.048,0,0,1,308.165,293.567Z" transform="translate(-210.597 -106.197)" fill="#d6d8e5" opacity="0.4"/>
  <path id="Path_587" data-name="Path 587" d="M315.506,181.251l-47.784-27.584c-4.07-2.326-7.332-8.606-7.332-14V6.378c0-5.4,3.285-7.879,7.332-5.541l47.784,27.637c4.07,2.326,7.332,8.606,7.332,14V175.744C322.838,181.111,319.553,183.588,315.506,181.251Z" transform="translate(-214.502 0.043)" fill="#b1b4c4"/>
  <path id="Path_588" data-name="Path 588" d="M356.59,310.025l3.785-1.913-3.628-6.222Z" transform="translate(-254.766 -126.33)" fill="#b1b4c4"/>
  <path id="Path_590" data-name="Path 590" d="M310.335,183.887,262.556,156.3c-4.07-2.326-7.326-8.606-7.326-14V9.038c0-5.4,3.279-7.879,7.326-5.541l47.778,27.584c4.07,2.326,7.326,8.606,7.326,14V178.352C317.632,183.748,314.352,186.225,310.335,183.887Z" transform="translate(-212.342 -1.071)" fill="#616e84"/>
  <path id="Path_591" data-name="Path 591" d="M316.731,45.673V178.93c0,5.4-3.279,7.879-7.326,5.547L290.67,173.657l-5.815-3.361-23.229-13.4c-4.07-2.326-7.326-8.606-7.326-14.007V9.628c0-5.378,3.279-7.879,7.326-5.547L309.4,31.665C313.434,34,316.731,40.3,316.731,45.673Z" transform="translate(-211.953 -1.318)" fill="#20232d"/>
  <path id="Path_592" data-name="Path 592" d="M315.754,48.189V177.981c0,3.268-2.3,4.6-5.128,2.96l-14.938-8.623-1.3-.762-.442-.256-3.227-1.866-9.344-5.384h0l-3.878-2.239-1.558-.9L265.313,154.8a11.337,11.337,0,0,1-5.123-8.885V16.122c0-3.274,2.291-4.6,5.123-2.965l18.653,10.774v.052a8.844,8.844,0,0,0,4.024,6.914c2.209,1.262,4,.238,4-2.326v-.058l18.653,10.774A11.422,11.422,0,0,1,315.754,48.189Z" transform="translate(-214.418 -5.189)" fill="#fff"/>
  <ellipse id="Ellipse_67" data-name="Ellipse 67" cx="1.243" cy="2.147" rx="1.243" ry="2.147" transform="translate(72.131 21.359) rotate(-29.887)" fill="#2b303f"/>
  <path id="Path_593" data-name="Path 593" d="M307.54,38.792a1.413,1.413,0,0,1-.64-1.122c0-.407.285-.581.634-.366a1.4,1.4,0,0,1,.634,1.1C308.168,38.832,307.883,39,307.54,38.792Z" transform="translate(-233.968 -15.55)" fill="#fff" opacity="0.1"/>
  <path id="Path_594" data-name="Path 594" d="M364.489,100.884h0c-.39.227-.709,0-.709-.535V94.668a1.7,1.7,0,0,1,.709-1.349h0c.39-.221.7,0,.7.535v5.681A1.687,1.687,0,0,1,364.489,100.884Z" transform="translate(-257.775 -38.998)" fill="#757b89"/>
  <path id="Path_595" data-name="Path 595" d="M364.489,116.894h0c-.39.227-.709,0-.709-.529v-5.687a1.7,1.7,0,0,1,.709-1.349h0c.39-.221.7,0,.7.535v5.681a1.681,1.681,0,0,1-.7,1.349Z" transform="translate(-257.775 -45.699)" fill="#757b89"/>
  <ellipse id="Ellipse_68" data-name="Ellipse 68" cx="22.078" cy="12.745" rx="22.078" ry="12.745" transform="translate(0 183.195)" fill="#d6d8e5" opacity="0.4"/>
  <g id="Men_2" transform="translate(1.314 64.662)">
    <path id="Path_638" data-name="Path 638" d="M186.213,166.22c-.262,2.279-2.983,12.118-2.4,15.484s9.885,9.013,9.885,9.013l1.291-5.774-5.152-5.041,1.4-9.553Z" transform="translate(-183.73 -134.208)" fill="#ffcea9"/>
    <path id="Path_639" data-name="Path 639" d="M194.532,149.269a4.07,4.07,0,0,0-5.175,1.564c-1.366,2.268-2.785,10.036-2.907,11.362,0,0,1.919,2.651,4.8,2.21Z" transform="translate(-184.869 -126.956)" fill="#ededed"/>
    <path id="Path_640" data-name="Path 640" d="M217.979,336.5a7.96,7.96,0,0,0,6.041-.727c1.454.047,9.3-3.32,10.385-.494.936,2.477-2.471,4.768-4.291,5.233-3.971.96-6.908,2.942-8.507,3.28-1.163.25-2.727.413-3.675-.518C216.77,342.125,216.868,337.974,217.979,336.5Z" transform="translate(-197.698 -204.492)" fill="#0f2046"/>
    <path id="Path_641" data-name="Path 641" d="M221.782,344.249c1.6-.337,4.535-2.326,8.507-3.279,1.529-.372,4.157-2.041,4.419-4.029.355,2.279-2.721,4.3-4.419,4.716-3.971.959-6.908,2.942-8.507,3.279-1.163.25-2.727.413-3.675-.518a2.352,2.352,0,0,1-.518-.954A4.745,4.745,0,0,0,221.782,344.249Z" transform="translate(-197.902 -205.662)" fill="#284688"/>
    <path id="Path_642" data-name="Path 642" d="M196.035,326.645a7.961,7.961,0,0,0,6.006-.727c1.454.047,9.3-3.326,10.385-.494.936,2.477-2.465,4.768-4.285,5.233-3.977.959-6.913,2.942-8.512,3.279-1.163.25-2.727.413-3.675-.523C194.826,332.262,194.925,328.122,196.035,326.645Z" transform="translate(-188.512 -200.367)" fill="#0f2046"/>
    <path id="Path_643" data-name="Path 643" d="M199.842,334.4c1.6-.337,4.535-2.326,8.512-3.279,1.523-.372,4.152-2.041,4.413-4.029.355,2.279-2.715,4.3-4.413,4.716-3.977.959-6.914,2.942-8.512,3.279-1.163.25-2.727.413-3.675-.523a2.294,2.294,0,0,1-.518-.948A4.745,4.745,0,0,0,199.842,334.4Z" transform="translate(-188.719 -201.539)" fill="#284688"/>
    <path id="Path_644" data-name="Path 644" d="M195.878,259.546a47.844,47.844,0,0,1,1.814-8.617s-.541-7.431-.808-14.478c-.308-8-3.087-15.042-.9-21.421l24.66,5.489s-1.494,31.887-1.82,35.748a72.193,72.193,0,0,1-1.111,8.954c-1.128,6.187-2.954,20.932-2.954,20.932-2.611,1.512-6.036.674-6.036.674s.186-18.607.355-23.084c.2-5.442.372-5.03.372-5.03l-.814-13.565-.535-6.751s-.686,4.954-1.128,9.379c-.39,3.855-1.32,7.35-2.361,14.536-.9,6.233-2.367,18.746-2.367,18.746-2.611,1.518-6.152.262-6.152.262S195.175,264.948,195.878,259.546Z" transform="translate(-188.511 -154.637)" fill="#233f71"/>
    <path id="Path_645" data-name="Path 645" d="M201.843,134.556c1.878.087,3.279.581,3.489,0a23.848,23.848,0,0,0,.43-2.936c-.215-.547-.4-1.134-.4-1.134-2.361-1.448-3.105-4-3.419-6.978-.529-5.076,2.215-9.518,7.292-10.053,4.774-.494,8.286,2.861,9.222,7.466.506,2.273,1.512,6.57.151,10.309-.756,2.093-1.744,3.75-2.715,4.07a24.044,24.044,0,0,1-2.826-.25h0s-.256,1.407-.43,2.326-.1,1.384,1.7,2.494-2.727,3.39-5.681,3.169-6.256-1.959-7.158-3.9C200.465,137.01,200.552,134.492,201.843,134.556Z" transform="translate(-190.871 -112.103)" fill="#ffcea9"/>
    <path id="Path_646" data-name="Path 646" d="M200.207,149.918c-.523,1.3.8,2.907,4.332,4s3.843-.32,3.843-.32a63.048,63.048,0,0,1,6.861,3.535c2.122,1.483,3.058,5.768,3.343,13,.331,8.373.36,20.793.081,22.938,0,0-3.96,3.942-9.024,3.529s-13.594-4.9-15.659-8.361c.052-7.344.913-8.536-.273-12.792-2.721-9.681-4.157-13.647-2.832-20.078,1.087-5.3,2.617-5.96,4.71-5.913A43.672,43.672,0,0,1,200.207,149.918Z" transform="translate(-186.514 -127.191)" fill="#f4f4f4"/>
    <path id="Path_647" data-name="Path 647" d="M251.885,177.829c-4.181-.971-9.617-1.454-11.472-2.71-4.489-3.041-8.181-6.105-10.9-7.675-3.21-1.855-4.489-1.459-6.222-.837-2.035.738-2.192,3.151,1.285,6.053a90.389,90.389,0,0,0,13.019,8.867c1.477.878,17.9,2.413,22.247,2.582,1.163.047,2.047.128,4.291.215a13.856,13.856,0,0,0,6.495-1.233c1.651-.884,2.111-1.465,2.076-1.878-.041-.517-.517-.651-1.32-.331a11.389,11.389,0,0,1-3.925,1.093s1.791-.581,2.826-1.064a11.266,11.266,0,0,0,2.576-1.57c.744-.628.611-2.064-.2-1.744s-1.366.756-2.907,1.413a11.225,11.225,0,0,1-2.553.75,20.921,20.921,0,0,0,2.907-1.744,4.715,4.715,0,0,0,1.744-2c.192-.43-.145-1.233-1.1-.721a16.906,16.906,0,0,1-3.547,2.012c-1.3.442-2.273.581-2.169.32s.884-.459,1.709-1.32,1.076-2.1.581-2.512-.413-.32-1.355.4a31.12,31.12,0,0,0-3.25,2.192,7.1,7.1,0,0,1-2.867,1.837C258.415,178.713,255.856,178.748,251.885,177.829Z" transform="translate(-199.682 -134.153)" fill="#ffcea9"/>
    <path id="Path_648" data-name="Path 648" d="M220.674,162.826c1.971-2.006,4.291-2.186,7.8.43s6.28,4.855,6.28,4.855a7.559,7.559,0,0,1-1.849,5.274c-2.169,2.64-4.07,2.093-4.07,2.093s-3.4-2.96-5.663-5.012S218.238,165.3,220.674,162.826Z" transform="translate(-198.788 -132.151)" fill="#ededed"/>
    <path id="Path_649" data-name="Path 649" d="M218.735,119.331s4.39-6.669-5.117-8.03c-6.855-.977-11.263,3.425-11.769,8.21-.488,4.564,2.326,9.3,4.355,11.187a8.123,8.123,0,0,0,5.925-.715,34.08,34.08,0,0,0,.128-3.739S208.92,119.209,218.735,119.331Z" transform="translate(-191.291 -111.164)" fill="#240c00"/>
  </g>
</svg>
