<svg xmlns="http://www.w3.org/2000/svg" xmlns:xlink="http://www.w3.org/1999/xlink" width="86" height="86" viewBox="0 0 86 86">
  <defs>
    <linearGradient id="linear-gradient" x1="-1.812" y1="7.404" x2="-1.812" y2="6.912" gradientUnits="objectBoundingBox">
      <stop offset="0.21" stop-color="#fff" stop-opacity="0"/>
      <stop offset="1" stop-color="#fff" stop-opacity="0.2"/>
    </linearGradient>
  </defs>
  <g id="Group_85" data-name="Group 85" transform="translate(-145 -1001)">
    <circle id="Ellipse_93" data-name="Ellipse 93" cx="43" cy="43" r="43" transform="translate(145 1001)" fill="#cb6a79" opacity="0.4"/>
    <g id="Group_46" data-name="Group 46" transform="translate(156.773 1011.886)">
      <path id="Path_823" data-name="Path 823" d="M243.418,48.319,209.432,28.7a2.066,2.066,0,0,1-.862-1.649V.759c0-.636.386-.928.862-.652l33.986,19.622a2.067,2.067,0,0,1,.864,1.649V47.66C244.282,48.3,243.895,48.594,243.418,48.319Z" transform="translate(-183.106 -0.003)" fill="#b1b4c4"/>
      <path id="Path_824" data-name="Path 824" d="M443.74,318.623l.377-.216-.164-1.117Z" transform="translate(-383.252 -270.036)" fill="#b1b4c4"/>
      <path id="Path_826" data-name="Path 826" d="M241.32,49.525,207.334,29.9a2.069,2.069,0,0,1-.864-1.649V1.966c0-.636.387-.928.864-.654L241.32,20.935a2.065,2.065,0,0,1,.864,1.649V48.873C242.184,49.509,241.8,49.8,241.32,49.525Z" transform="translate(-181.318 -1.029)" fill="#e4e7f2"/>
      <path id="Path_827" data-name="Path 827" d="M240.92,49.755,206.934,30.133a2.069,2.069,0,0,1-.864-1.649V2.194c0-.634.387-.926.864-.652L240.92,21.165a2.063,2.063,0,0,1,.862,1.649V49.1C241.782,49.739,241.4,50.031,240.92,49.755Z" transform="translate(-180.978 -1.225)" fill="#d6d8e5"/>
      <path id="Path_828" data-name="Path 828" d="M243.81,51.391,209,31.291l.018-25.758c0-.264.185-.371.414-.238l33.986,19.622a.917.917,0,0,1,.414.716Z" transform="translate(-183.472 -4.459)" fill="#1e212d"/>
      <path id="Path_829" data-name="Path 829" d="M243.714,51.357,208.9,31.258l.018-25.765c0-.264.186-.371.414-.238l33.986,19.629a.911.911,0,0,1,.414.716Z" transform="translate(-183.387 -4.425)" opacity="0.5" fill="url(#linear-gradient)"/>
      <path id="Path_830" data-name="Path 830" d="M71.9,233.553,37.911,213.93c-.477-.274-.417-.755.134-1.074l22.767-13.145a2.068,2.068,0,0,1,1.86-.076l33.986,19.622c.477.276.417.755-.134,1.074L73.757,233.476A2.058,2.058,0,0,1,71.9,233.553Z" transform="translate(-37.59 -169.746)" fill="#d6d8e5" opacity="0.4"/>
      <path id="Path_831" data-name="Path 831" d="M76.887,230.56,42.9,210.939c-.477-.276-.417-.755.134-1.074L65.8,196.72a2.07,2.07,0,0,1,1.859-.077l33.987,19.623c.477.274.417.755-.134,1.074L78.747,230.484A2.069,2.069,0,0,1,76.887,230.56Z" transform="translate(-41.836 -167.2)" fill="#b1b4c4"/>
      <path id="Path_833" data-name="Path 833" d="M438.313,329.1v-.625l-.533.183.353.518Z" transform="translate(-378.179 -279.551)" fill="#b1b4c4"/>
      <path id="Path_834" data-name="Path 834" d="M76.887,226.934,42.9,207.312c-.477-.276-.417-.757.134-1.074L65.8,193.094a2.061,2.061,0,0,1,1.859-.077l33.987,19.622c.477.276.417.757-.134,1.074L78.747,226.857A2.064,2.064,0,0,1,76.887,226.934Z" transform="translate(-41.836 -164.113)" fill="#e4e7f2"/>
      <path id="Path_835" data-name="Path 835" d="M76.887,226.34,42.9,206.718c-.477-.276-.417-.757.134-1.074L65.8,192.494a2.061,2.061,0,0,1,1.859-.077l33.987,19.628c.477.276.417.757-.134,1.074L78.747,226.263A2.064,2.064,0,0,1,76.887,226.34Z" transform="translate(-41.836 -163.602)" fill="#d6d8e5"/>
      <path id="Path_836" data-name="Path 836" d="M184.732,211.541l-1.582-.914c-.13-.074-.113-.2.036-.29l1.506-.871a.559.559,0,0,1,.5-.021l1.582.913c.128.074.113.206-.037.3l-1.509.871A.562.562,0,0,1,184.732,211.541Z" transform="translate(-161.397 -178.209)" fill="#2b303f"/>
      <path id="Path_837" data-name="Path 837" d="M199.772,220.178l-1.582-.913c-.13-.074-.113-.206.036-.3l1.51-.873a.559.559,0,0,1,.5-.021l1.583.914c.13.074.113.2-.036.29l-1.51.871A.561.561,0,0,1,199.772,220.178Z" transform="translate(-174.197 -185.554)" fill="#2b303f"/>
      <path id="Path_838" data-name="Path 838" d="M214.987,229.011,213.4,228.1c-.128-.074-.113-.2.037-.29l1.51-.871a.559.559,0,0,1,.5-.021l1.582.913c.13.074.113.206-.036.29l-1.51.873A.563.563,0,0,1,214.987,229.011Z" transform="translate(-187.146 -193.077)" fill="#2b303f"/>
      <path id="Path_839" data-name="Path 839" d="M229.857,237.591l-1.583-.913c-.128-.074-.113-.206.037-.29l1.509-.873a.562.562,0,0,1,.5-.021l1.582.914c.13.074.113.2-.036.3l-1.51.871A.558.558,0,0,1,229.857,237.591Z" transform="translate(-199.802 -200.379)" fill="#2b303f"/>
      <path id="Path_840" data-name="Path 840" d="M244.9,246.278l-1.583-.914c-.128-.074-.112-.2.037-.29l1.51-.871a.554.554,0,0,1,.5-.021l1.582.913c.13.074.113.2-.036.3l-1.51.873A.563.563,0,0,1,244.9,246.278Z" transform="translate(-212.605 -207.772)" fill="#2b303f"/>
      <path id="Path_841" data-name="Path 841" d="M259.942,254.927l-1.582-.913c-.13-.074-.113-.206.036-.3l1.51-.871a.558.558,0,0,1,.5-.021l1.583.913c.128.074.112.206-.037.3l-1.51.871A.558.558,0,0,1,259.942,254.927Z" transform="translate(-225.406 -215.129)" fill="#2b303f"/>
      <path id="Path_842" data-name="Path 842" d="M274.982,263.671l-1.582-.914c-.13-.074-.113-.2.036-.29l1.51-.868a.563.563,0,0,1,.5-.021l1.583.914c.128.074.113.2-.037.29l-1.51.871A.558.558,0,0,1,274.982,263.671Z" transform="translate(-238.206 -222.579)" fill="#2b303f"/>
      <path id="Path_843" data-name="Path 843" d="M290.022,272.331l-1.582-.914c-.13-.074-.113-.2.036-.29l1.51-.871a.558.558,0,0,1,.5-.021l1.583.913c.13.075.113.206-.036.3l-1.5.865A.562.562,0,0,1,290.022,272.331Z" transform="translate(-251.006 -229.946)" fill="#2b303f"/>
      <path id="Path_844" data-name="Path 844" d="M305.08,281.011l-1.58-.913c-.13-.075-.113-.206.036-.29l1.51-.873a.559.559,0,0,1,.5-.021l1.583.914c.13.074.113.2-.036.3l-1.512.864A.558.558,0,0,1,305.08,281.011Z" transform="translate(-263.823 -237.333)" fill="#2b303f"/>
      <path id="Path_845" data-name="Path 845" d="M320.09,289.68l-1.586-.919c-.128-.074-.113-.2.037-.29l1.512-.876a.562.562,0,0,1,.5-.021l1.582.914c.13.074.113.206-.036.3l-1.515.868A.559.559,0,0,1,320.09,289.68Z" transform="translate(-276.594 -244.703)" fill="#2b303f"/>
      <path id="Path_846" data-name="Path 846" d="M335.15,298.381l-1.583-.913c-.128-.074-.112-.206.037-.29l1.51-.873a.559.559,0,0,1,.5-.021l1.582.914c.13.074.113.2-.036.3l-1.51.871a.559.559,0,0,1-.5.013Z" transform="translate(-289.414 -252.116)" fill="#2b303f"/>
      <path id="Path_847" data-name="Path 847" d="M350.192,307.068l-1.582-.914c-.13-.074-.113-.2.036-.29l1.51-.871a.554.554,0,0,1,.5-.021l1.582.913c.13.075.113.2-.036.29l-1.51.873A.563.563,0,0,1,350.192,307.068Z" transform="translate(-302.215 -259.509)" fill="#2b303f"/>
      <path id="Path_848" data-name="Path 848" d="M365.232,315.7l-1.582-.913c-.13-.074-.113-.206.036-.3l1.51-.871a.559.559,0,0,1,.5-.021l1.583.913c.128.074.112.206-.037.3l-1.51.871A.558.558,0,0,1,365.232,315.7Z" transform="translate(-315.015 -266.848)" fill="#2b303f"/>
      <path id="Path_849" data-name="Path 849" d="M381.351,325.058l-2.661-1.537c-.13-.074-.113-.2.036-.29l1.51-.873a.563.563,0,0,1,.5-.021l2.661,1.537c.13.074.113.206-.036.29l-1.51.873A.559.559,0,0,1,381.351,325.058Z" transform="translate(-327.815 -274.29)" fill="#2b303f"/>
      <path id="Path_850" data-name="Path 850" d="M192.462,232.866l-1.582-.91c-.13-.074-.113-.2.036-.29l1.51-.871a.561.561,0,0,1,.5-.021l1.582.913c.13.074.113.206-.036.3l-1.51.865a.559.559,0,0,1-.5.016Z" transform="translate(-167.976 -196.362)" fill="#2b303f"/>
      <path id="Path_851" data-name="Path 851" d="M207.532,241.541l-1.582-.914c-.13-.074-.113-.2.036-.29l1.51-.871a.559.559,0,0,1,.5-.021l1.583.913c.128.074.113.206-.037.29l-1.509.873A.561.561,0,0,1,207.532,241.541Z" transform="translate(-180.802 -203.741)" fill="#2b303f"/>
      <path id="Path_852" data-name="Path 852" d="M222.6,250.2l-1.582-.914c-.13-.074-.113-.2.036-.3l1.51-.871a.559.559,0,0,1,.5-.021l1.583.913c.128.074.112.206-.037.29l-1.51.873A.563.563,0,0,1,222.6,250.2Z" transform="translate(-193.627 -211.103)" fill="#2b303f"/>
      <path id="Path_853" data-name="Path 853" d="M237.67,258.938l-1.583-.914c-.128-.075-.112-.2.037-.29l1.515-.871a.554.554,0,0,1,.5-.021l1.582.913c.13.074.113.2-.036.29l-1.51.873A.563.563,0,0,1,237.67,258.938Z" transform="translate(-206.451 -218.547)" fill="#2b303f"/>
      <path id="Path_854" data-name="Path 854" d="M252.613,267.566l-1.583-.914c-.13-.074-.113-.2.036-.29l1.51-.873a.563.563,0,0,1,.5-.021l1.583.914c.13.074.113.2-.036.29l-1.51.873A.563.563,0,0,1,252.613,267.566Z" transform="translate(-219.168 -225.889)" fill="#2b303f"/>
      <path id="Path_855" data-name="Path 855" d="M267.682,276.266l-1.582-.914c-.13-.074-.113-.2.036-.29l1.513-.873a.563.563,0,0,1,.5-.021l1.582.914c.128.074.113.2-.037.3l-1.509.871A.561.561,0,0,1,267.682,276.266Z" transform="translate(-231.993 -233.294)" fill="#2b303f"/>
      <path id="Path_856" data-name="Path 856" d="M282.752,284.922l-1.582-.913c-.13-.074-.113-.2.036-.3l1.51-.873a.563.563,0,0,1,.5-.021l1.582.914c.13.074.113.2-.036.29l-1.51.871A.559.559,0,0,1,282.752,284.922Z" transform="translate(-244.819 -240.655)" fill="#2b303f"/>
      <path id="Path_857" data-name="Path 857" d="M297.817,293.669l-1.583-.913c-.128-.074-.113-.206.037-.29l1.509-.871a.561.561,0,0,1,.5-.021l1.582.914c.13.074.113.2-.036.29l-1.51.871A.558.558,0,0,1,297.817,293.669Z" transform="translate(-257.64 -248.107)" fill="#2b303f"/>
      <path id="Path_858" data-name="Path 858" d="M312.883,302.361l-1.583-.913c-.13-.074-.113-.206.036-.29l1.51-.873a.558.558,0,0,1,.5-.021l1.583.914c.13.074.113.2-.036.29l-1.51.871A.559.559,0,0,1,312.883,302.361Z" transform="translate(-270.462 -255.503)" fill="#2b303f"/>
      <path id="Path_859" data-name="Path 859" d="M327.952,311.027l-1.582-.913c-.13-.074-.113-.206.036-.3l1.51-.871a.559.559,0,0,1,.5-.021l1.583.914c.128.074.113.2-.037.29l-1.509.871A.562.562,0,0,1,327.952,311.027Z" transform="translate(-283.287 -262.874)" fill="#2b303f"/>
      <path id="Path_860" data-name="Path 860" d="M343.022,319.7l-1.582-.913c-.13-.074-.113-.206.036-.3l1.51-.871a.559.559,0,0,1,.5-.021l1.582.913c.13.076.113.206-.036.3l-1.51.871A.559.559,0,0,1,343.022,319.7Z" transform="translate(-296.113 -270.252)" fill="#2b303f"/>
      <path id="Path_861" data-name="Path 861" d="M358.087,328.427l-1.583-.913c-.128-.074-.113-.206.037-.3l1.51-.871a.558.558,0,0,1,.5-.021l1.582.913c.13.074.113.205-.036.3l-1.512.871A.558.558,0,0,1,358.087,328.427Z" transform="translate(-308.934 -277.682)" fill="#2b303f"/>
      <path id="Path_862" data-name="Path 862" d="M171.232,220.541,168.57,219c-.13-.074-.113-.2.036-.3l1.51-.871a.559.559,0,0,1,.5-.021l2.661,1.535c.13.074.113.206-.036.3l-1.51.871A.559.559,0,0,1,171.232,220.541Z" transform="translate(-148.989 -185.333)" fill="#2b303f"/>
      <path id="Path_863" data-name="Path 863" d="M365.984,335.9l-1.582-.914a.515.515,0,0,0-.469,0l-1.6.922a.149.149,0,0,0,0,.271l.125.071a.133.133,0,0,1,0,.25l-1.69.971c-.13.076-.131.2,0,.271l1.007.582a.521.521,0,0,0,.469,0l1.579-.911.326-.188.235-.137.237-.136,1.36-.785C366.112,336.1,366.114,335.984,365.984,335.9Z" transform="translate(-312.557 -285.05)" fill="#2b303f"/>
      <path id="Path_864" data-name="Path 864" d="M126.457,245.241l-1.583-.913c-.128-.074-.113-.206.036-.29l1.51-.873a.561.561,0,0,1,.5-.021l1.582.914c.13.074.113.2-.036.3l-1.51.871a.558.558,0,0,1-.5.013Z" transform="translate(-111.8 -206.89)" fill="#2b303f"/>
      <path id="Path_865" data-name="Path 865" d="M141.47,253.824l-1.58-.919c-.13-.074-.113-.206.036-.3l1.51-.873a.559.559,0,0,1,.5-.021l1.583.914c.13.074.113.2-.036.29l-1.51.88a.558.558,0,0,1-.506.025Z" transform="translate(-124.58 -214.184)" fill="#2b303f"/>
      <path id="Path_866" data-name="Path 866" d="M156.462,262.561l-1.582-.913c-.13-.074-.113-.206.036-.29l1.51-.873a.558.558,0,0,1,.5-.021l1.583.914c.13.075.113.2-.036.29l-1.51.871A.562.562,0,0,1,156.462,262.561Z" transform="translate(-137.338 -221.631)" fill="#2b303f"/>
      <path id="Path_867" data-name="Path 867" d="M284.2,336.311l-1.583-.914c-.13-.074-.113-.2.036-.29l1.51-.871a.559.559,0,0,1,.5-.021l1.583.913c.13.074.113.206-.036.29l-1.51.873A.559.559,0,0,1,284.2,336.311Z" transform="translate(-246.053 -284.397)" fill="#2b303f"/>
      <path id="Path_868" data-name="Path 868" d="M299.2,344.928l-1.582-.914c-.13-.074-.113-.2.036-.3l1.51-.871a.559.559,0,0,1,.5-.021l1.583.913c.13.074.113.206-.036.29l-1.51.873A.561.561,0,0,1,299.2,344.928Z" transform="translate(-258.819 -291.725)" fill="#2b303f"/>
      <path id="Path_869" data-name="Path 869" d="M314.2,353.665l-1.582-.914c-.13-.074-.113-.2.036-.29l1.51-.865a.559.559,0,0,1,.5-.021l1.583.914c.128.074.113.206-.037.29l-1.509.873A.566.566,0,0,1,314.2,353.665Z" transform="translate(-271.585 -299.172)" fill="#2b303f"/>
      <path id="Path_870" data-name="Path 870" d="M329.2,362.288l-1.582-.914c-.13-.074-.113-.2.036-.29l1.51-.871a.554.554,0,0,1,.5-.021l1.583.913c.128.074.112.2-.037.29l-1.51.873A.563.563,0,0,1,329.2,362.288Z" transform="translate(-284.351 -306.505)" fill="#2b303f"/>
      <path id="Path_871" data-name="Path 871" d="M172.048,271.519l-2.158-1.245c-.13-.074-.113-.206.036-.3l1.51-.871a.558.558,0,0,1,.5-.021l2.158,1.247c.13.074.113.2-.036.3l-1.51.871A.559.559,0,0,1,172.048,271.519Z" transform="translate(-150.112 -228.967)" fill="#2b303f"/>
      <path id="Path_872" data-name="Path 872" d="M265.918,325.753l-2.158-1.247c-.13-.074-.113-.2.036-.29l1.51-.871a.559.559,0,0,1,.5-.021l2.158,1.25c.13.074.113.206-.036.29l-1.51.873A.558.558,0,0,1,265.918,325.753Z" transform="translate(-230.002 -275.129)" fill="#2b303f"/>
      <path id="Path_873" data-name="Path 873" d="M199.269,287.241l-10.519-6.073c-.13-.074-.113-.206.036-.29L190.3,280a.558.558,0,0,1,.5-.021l10.52,6.073c.13.074.113.206-.036.29l-1.51.873A.562.562,0,0,1,199.269,287.241Z" transform="translate(-166.163 -238.244)" fill="#2b303f"/>
      <path id="Path_874" data-name="Path 874" d="M181.98,243.664l-1.583-.914c-.128-.074-.112-.2.037-.29l1.51-.864a.559.559,0,0,1,.5-.021l1.582.913c.13.074.113.206-.036.29l-1.51.873A.558.558,0,0,1,181.98,243.664Z" transform="translate(-159.055 -205.554)" fill="#2b303f"/>
      <path id="Path_875" data-name="Path 875" d="M197,252.291l-1.582-.913c-.13-.074-.113-.206.036-.29l1.51-.873a.559.559,0,0,1,.5-.021l1.583.914c.13.074.113.2-.036.29l-1.51.871A.562.562,0,0,1,197,252.291Z" transform="translate(-171.84 -212.89)" fill="#2b303f"/>
      <path id="Path_876" data-name="Path 876" d="M212.03,260.928l-1.583-.914c-.128-.075-.112-.2.037-.3l1.51-.871a.558.558,0,0,1,.5-.021l1.582.913c.13.074.113.206-.036.29l-1.5.88A.558.558,0,0,1,212.03,260.928Z" transform="translate(-184.63 -220.235)" fill="#2b303f"/>
      <path id="Path_877" data-name="Path 877" d="M227.077,269.667l-1.577-.913c-.13-.074-.113-.206.036-.29l1.506-.868a.558.558,0,0,1,.5-.021l1.583.914c.128.074.113.2-.036.29l-1.507.867A.561.561,0,0,1,227.077,269.667Z" transform="translate(-197.44 -227.682)" fill="#2b303f"/>
      <path id="Path_878" data-name="Path 878" d="M242.089,278.321l-1.582-.914c-.128-.074-.112-.2.037-.29l1.51-.871a.559.559,0,0,1,.5-.021l1.582.913c.13.074.113.2-.036.29l-1.512.873A.563.563,0,0,1,242.089,278.321Z" transform="translate(-210.213 -235.044)" fill="#2b303f"/>
      <path id="Path_879" data-name="Path 879" d="M257.085,286.957l-1.585-.913c-.13-.074-.113-.206.036-.3l1.51-.871a.559.559,0,0,1,.5-.021l1.583.913c.128.076.113.206-.037.3l-1.51.871A.562.562,0,0,1,257.085,286.957Z" transform="translate(-222.972 -242.388)" fill="#2b303f"/>
      <path id="Path_880" data-name="Path 880" d="M272.093,295.666l-1.589-.914c-.128-.074-.113-.2.037-.29l1.516-.871a.558.558,0,0,1,.5-.022l1.582.916c.13.074.113.2-.036.29l-1.51.873A.563.563,0,0,1,272.093,295.666Z" transform="translate(-235.742 -249.805)" fill="#2b303f"/>
      <path id="Path_881" data-name="Path 881" d="M287.152,304.307l-1.582-.913c-.13-.074-.113-.206.036-.3l1.51-.871a.559.559,0,0,1,.5-.021l1.583.913c.128.074.113.206-.037.3l-1.509.871A.561.561,0,0,1,287.152,304.307Z" transform="translate(-248.564 -257.154)" fill="#2b303f"/>
      <path id="Path_882" data-name="Path 882" d="M302.177,313.015l-1.583-.914c-.128-.074-.113-.2.037-.29l1.509-.873a.566.566,0,0,1,.5-.021l1.582.914c.13.074.113.2-.036.3l-1.51.871A.559.559,0,0,1,302.177,313.015Z" transform="translate(-261.351 -264.57)" fill="#2b303f"/>
      <path id="Path_883" data-name="Path 883" d="M317.2,321.68l-1.582-.913c-.13-.076-.113-.206.036-.3l1.51-.874a.559.559,0,0,1,.5-.021l1.583.914c.128.074.112.206-.037.3l-1.51.871A.558.558,0,0,1,317.2,321.68Z" transform="translate(-274.138 -271.938)" fill="#2b303f"/>
      <path id="Path_884" data-name="Path 884" d="M332.227,330.364l-1.583-.913c-.128-.075-.113-.2.036-.29l1.51-.873a.566.566,0,0,1,.5-.021l1.582.914c.13.074.113.2-.036.29l-1.51.871A.558.558,0,0,1,332.227,330.364Z" transform="translate(-286.925 -279.336)" fill="#2b303f"/>
      <path id="Path_885" data-name="Path 885" d="M347.252,339.041l-1.582-.914c-.13-.074-.113-.2.036-.29l1.51-.871a.559.559,0,0,1,.5-.021l1.583.913c.128.075.112.206-.037.29l-1.51.873A.558.558,0,0,1,347.252,339.041Z" transform="translate(-299.713 -286.721)" fill="#2b303f"/>
      <path id="Path_886" data-name="Path 886" d="M157.267,229.332l-3.276-1.888c-.13-.074-.113-.206.036-.3l1.51-.871a.559.559,0,0,1,.5-.021l3.276,1.89c.13.074.113.2-.036.29l-1.51.871A.562.562,0,0,1,157.267,229.332Z" transform="translate(-136.58 -192.516)" fill="#2b303f"/>
      <path id="Path_887" data-name="Path 887" d="M159.942,247.7l-1.582-.913c-.13-.076-.113-.206.036-.3l1.51-.871a.558.558,0,0,1,.5-.021l1.583.913c.128.074.112.206-.037.3l-1.51.871A.559.559,0,0,1,159.942,247.7Z" transform="translate(-140.299 -208.975)" fill="#2b303f"/>
      <path id="Path_888" data-name="Path 888" d="M174.962,256.358l-1.582-.913c-.13-.074-.113-.206.036-.3l1.51-.873a.558.558,0,0,1,.5-.021l1.583.914c.13.074.113.2-.036.29l-1.51.871A.561.561,0,0,1,174.962,256.358Z" transform="translate(-153.082 -216.346)" fill="#2b303f"/>
      <path id="Path_889" data-name="Path 889" d="M189.983,265.076l-1.583-.914c-.13-.074-.113-.2.036-.29l1.51-.871a.562.562,0,0,1,.5-.022l1.582.914c.13.074.113.2-.036.3l-1.51.873A.563.563,0,0,1,189.983,265.076Z" transform="translate(-165.865 -223.771)" fill="#2b303f"/>
      <path id="Path_890" data-name="Path 890" d="M205.01,273.731l-1.583-.914c-.128-.075-.112-.2.037-.29l1.51-.871a.559.559,0,0,1,.5-.021l1.582.913c.13.074.113.206-.036.3l-1.51.871a.558.558,0,0,1-.5.015Z" transform="translate(-178.655 -231.137)" fill="#2b303f"/>
      <path id="Path_891" data-name="Path 891" d="M220.074,282.421l-1.574-.913c-.13-.075-.113-.206.036-.29l1.51-.873a.558.558,0,0,1,.5-.021l1.583.914c.128.074.112.2-.037.29l-1.51.871a.559.559,0,0,1-.511.021Z" transform="translate(-191.483 -238.533)" fill="#2b303f"/>
      <path id="Path_892" data-name="Path 892" d="M235.077,291.053l-1.577-.914c-.13-.074-.113-.2.036-.3l1.51-.873a.563.563,0,0,1,.5-.021l1.583.914c.128.074.113.2-.037.29l-1.51.88A.566.566,0,0,1,235.077,291.053Z" transform="translate(-204.248 -245.872)" fill="#2b303f"/>
      <path id="Path_893" data-name="Path 893" d="M250.082,299.765l-1.582-.908c-.13-.074-.113-.2.036-.29l1.51-.871a.558.558,0,0,1,.5-.021l1.583.913c.13.074.113.206-.036.3l-1.512.865A.558.558,0,0,1,250.082,299.765Z" transform="translate(-217.015 -253.299)" fill="#2b303f"/>
      <path id="Path_894" data-name="Path 894" d="M265.089,308.407l-1.585-.913c-.128-.075-.113-.206.037-.3l1.509-.871a.561.561,0,0,1,.5-.021l1.582.913c.13.076.113.206-.036.3l-1.512.871A.558.558,0,0,1,265.089,308.407Z" transform="translate(-229.785 -260.644)" fill="#2b303f"/>
      <path id="Path_895" data-name="Path 895" d="M280.088,317.114,278.5,316.2c-.13-.074-.113-.2.036-.29l1.51-.873a.563.563,0,0,1,.5-.021l1.582.914c.13.074.113.2-.036.29l-1.51.871A.554.554,0,0,1,280.088,317.114Z" transform="translate(-242.547 -268.06)" fill="#2b303f"/>
      <path id="Path_896" data-name="Path 896" d="M295.142,325.791l-1.582-.914c-.13-.074-.113-.2.036-.29l1.51-.871a.559.559,0,0,1,.5-.021l1.583.913c.128.074.112.206-.037.29l-1.51.873A.559.559,0,0,1,295.142,325.791Z" transform="translate(-255.364 -275.444)" fill="#2b303f"/>
      <path id="Path_897" data-name="Path 897" d="M310.162,334.427l-1.582-.913c-.13-.074-.113-.206.036-.3l1.51-.871a.559.559,0,0,1,.5-.021l1.583.913c.13.074.113.206-.036.3l-1.51.871A.561.561,0,0,1,310.162,334.427Z" transform="translate(-268.147 -282.789)" fill="#2b303f"/>
      <path id="Path_898" data-name="Path 898" d="M327.952,344.733l-4.352-2.513c-.13-.074-.113-.206.036-.29l1.51-.873a.566.566,0,0,1,.5-.021L330,343.549c.128.074.112.206-.037.3l-1.51.865A.559.559,0,0,1,327.952,344.733Z" transform="translate(-280.93 -290.204)" fill="#2b303f"/>
      <path id="Path_899" data-name="Path 899" d="M141.654,237.15l-2.154-1.241c-.13-.074-.113-.2.036-.3l1.51-.871a.562.562,0,0,1,.5-.022l2.157,1.247c.13.074.113.2-.036.3l-1.51.873A.563.563,0,0,1,141.654,237.15Z" transform="translate(-124.248 -199.719)" fill="#2b303f"/>
      <path id="Path_900" data-name="Path 900" d="M230.074,222.751,198.3,204.408c-.13-.074-.113-.206.036-.3l.755-.435a.559.559,0,0,1,.5-.021l31.774,18.351c.13.074.113.2-.036.29l-.755.43A.559.559,0,0,1,230.074,222.751Z" transform="translate(-174.291 -173.282)" fill="#2b303f"/>
      <path id="Path_901" data-name="Path 901" d="M136.921,294.474a.474.474,0,0,1-.219.228l-8.744,5.049a1.075,1.075,0,0,1-.97.039l-14.939-8.619a.329.329,0,0,1-.149-.158c-.055-.133.021-.287.219-.4l8.744-5.049a1.08,1.08,0,0,1,.97-.04l14.939,8.628A.264.264,0,0,1,136.921,294.474Z" transform="translate(-100.818 -242.918)" fill="#b1b4c4"/>
      <path id="Path_902" data-name="Path 902" d="M137.02,295.479a.474.474,0,0,1-.219.228l-8.744,5.049a1.075,1.075,0,0,1-.97.039l-14.939-8.619a.329.329,0,0,1-.149-.158.487.487,0,0,1,.219-.228l8.744-5.047a1.08,1.08,0,0,1,.97-.04l14.939,8.62A.331.331,0,0,1,137.02,295.479Z" transform="translate(-100.918 -243.922)" fill="#c3c6d1"/>
      <path id="Path_903" data-name="Path 903" d="M245.444,212.141,213.664,193.8a.559.559,0,0,1-.234-.447v-.372c0-.173.1-.252.234-.177l31.78,18.345a.558.558,0,0,1,.234.447v.374C245.684,212.137,245.574,212.216,245.444,212.141Z" transform="translate(-187.242 -164.063)" fill="#2b303f"/>
      <path id="Path_1014" data-name="Path 1014" d="M178.806,20.922c-2.345-1.353-4.318-.645-4.884,1.531a3.852,3.852,0,0,0-.334-.216c-1.478-.853-2.707-.328-2.955,1.152-1.7-.986-3.043-.213-3.043,1.682a6.671,6.671,0,0,0,2.626,4.936c.122.086.238.164.357.232a3.54,3.54,0,0,0,.342.174L183.8,37.876c2.339,1.35,4.24.268,4.248-2.421a9.3,9.3,0,0,0-4.22-7.309c-.055-.033-.107-.06-.161-.089a11.237,11.237,0,0,0-4.857-7.135" transform="translate(-135.6 -3.945)" fill="#cecece"/>
    </g>
  </g>
</svg>
