<svg xmlns="http://www.w3.org/2000/svg" xmlns:xlink="http://www.w3.org/1999/xlink" width="195.158" height="204.142" viewBox="0 0 195.158 204.142">
  <defs>
    <linearGradient id="linear-gradient" x1="-1.812" y1="7.404" x2="-1.812" y2="6.912" gradientUnits="objectBoundingBox">
      <stop offset="0.21" stop-color="#fff" stop-opacity="0"/>
      <stop offset="1" stop-color="#fff" stop-opacity="0.2"/>
    </linearGradient>
  </defs>
  <g id="Group_77" data-name="Group 77" transform="translate(-850.201 -1372.537)">
    <path id="Path_823" data-name="Path 823" d="M319.739,154.135,211.321,91.54a6.59,6.59,0,0,1-2.751-5.259V2.415c0-2.029,1.231-2.96,2.751-2.081L319.739,62.929a6.594,6.594,0,0,1,2.756,5.259v83.846C322.5,154.083,321.26,155.014,319.739,154.135Z" transform="translate(722.864 1372.534)" fill="#b1b4c4"/>
    <path id="Path_824" data-name="Path 824" d="M443.74,321.542l1.2-.689-.523-3.563Z" transform="translate(599.425 1205.991)" fill="#b1b4c4"/>
    <path id="Path_826" data-name="Path 826" d="M317.644,155.343,209.226,92.748a6.6,6.6,0,0,1-2.756-5.259V3.623c0-2.029,1.235-2.96,2.756-2.086l108.419,62.6A6.587,6.587,0,0,1,320.4,69.4v83.865C320.4,155.29,319.164,156.222,317.644,155.343Z" transform="translate(723.967 1371.901)" fill="#e4e7f2"/>
    <path id="Path_827" data-name="Path 827" d="M317.244,155.573,208.826,92.978a6.6,6.6,0,0,1-2.756-5.259V3.848c0-2.024,1.235-2.955,2.756-2.081l108.419,62.6A6.583,6.583,0,0,1,320,69.626v83.865C319.995,155.52,318.764,156.451,317.244,155.573Z" transform="translate(724.177 1371.78)" fill="#d6d8e5"/>
    <path id="Path_828" data-name="Path 828" d="M320.046,152.469,209,88.349l.057-82.169c0-.841.589-1.183,1.321-.76L318.8,68.015a2.927,2.927,0,0,1,1.321,2.285Z" transform="translate(722.639 1369.786)" fill="#1e212d"/>
    <path id="Path_829" data-name="Path 829" d="M319.96,152.448,208.9,88.333l.057-82.193c0-.841.594-1.183,1.321-.76L318.7,68a2.908,2.908,0,0,1,1.321,2.285Z" transform="translate(722.691 1369.807)" opacity="0.5" fill="url(#linear-gradient)"/>
    <path id="Path_830" data-name="Path 830" d="M147.058,308.244l-108.442-62.6c-1.52-.874-1.33-2.409.428-3.426l72.629-41.933a6.6,6.6,0,0,1,5.934-.242l108.419,62.595c1.52.879,1.33,2.409-.428,3.426L152.969,308A6.566,6.566,0,0,1,147.058,308.244Z" transform="translate(812.611 1267.845)" fill="#d6d8e5" opacity="0.4"/>
    <path id="Path_831" data-name="Path 831" d="M152.025,305.248,43.606,242.653c-1.52-.879-1.33-2.409.428-3.426L116.663,197.3a6.6,6.6,0,0,1,5.929-.247l108.423,62.6c1.52.874,1.33,2.409-.428,3.426l-72.629,41.933A6.6,6.6,0,0,1,152.025,305.248Z" transform="translate(809.992 1269.415)" fill="#b1b4c4"/>
    <path id="Path_833" data-name="Path 833" d="M439.481,330.465v-2l-1.7.584,1.126,1.653Z" transform="translate(602.553 1200.123)" fill="#b1b4c4"/>
    <path id="Path_834" data-name="Path 834" d="M152.025,301.624,43.606,239.029c-1.52-.879-1.33-2.414.428-3.425l72.629-41.933a6.574,6.574,0,0,1,5.929-.247l108.423,62.595c1.52.879,1.33,2.414-.428,3.426l-72.629,41.933A6.585,6.585,0,0,1,152.025,301.624Z" transform="translate(809.992 1271.32)" fill="#e4e7f2"/>
    <path id="Path_835" data-name="Path 835" d="M152.025,301.043,43.606,238.448c-1.52-.879-1.33-2.414.428-3.425l72.629-41.952a6.574,6.574,0,0,1,5.929-.247l108.423,62.614c1.52.879,1.33,2.414-.428,3.426L157.959,300.8A6.585,6.585,0,0,1,152.025,301.043Z" transform="translate(809.992 1271.635)" fill="#d6d8e5"/>
    <path id="Path_836" data-name="Path 836" d="M188.387,216.243l-5.046-2.917c-.413-.238-.361-.651.114-.926l4.8-2.779a1.782,1.782,0,0,1,1.606-.067l5.046,2.912c.409.238.361.656-.119.95l-4.813,2.779A1.791,1.791,0,0,1,188.387,216.243Z" transform="translate(736.253 1262.625)" fill="#2b303f"/>
    <path id="Path_837" data-name="Path 837" d="M203.427,224.9l-5.046-2.912c-.413-.238-.361-.656.114-.95l4.818-2.784a1.782,1.782,0,0,1,1.606-.067l5.05,2.917c.413.238.361.651-.114.926l-4.818,2.779A1.791,1.791,0,0,1,203.427,224.9Z" transform="translate(728.359 1258.096)" fill="#2b303f"/>
    <path id="Path_838" data-name="Path 838" d="M218.645,233.713l-5.05-2.917c-.409-.238-.361-.651.119-.926l4.818-2.779a1.782,1.782,0,0,1,1.606-.066l5.046,2.912c.413.238.361.656-.114.926l-4.818,2.784A1.8,1.8,0,0,1,218.645,233.713Z" transform="translate(720.372 1253.455)" fill="#2b303f"/>
    <path id="Path_839" data-name="Path 839" d="M233.515,242.293l-5.05-2.912c-.409-.238-.361-.656.119-.926l4.813-2.784a1.791,1.791,0,0,1,1.611-.067l5.046,2.917c.413.238.361.651-.114.95l-4.818,2.779A1.781,1.781,0,0,1,233.515,242.293Z" transform="translate(712.567 1248.952)" fill="#2b303f"/>
    <path id="Path_840" data-name="Path 840" d="M248.556,250.981l-5.05-2.917c-.409-.238-.356-.651.119-.926l4.818-2.779a1.767,1.767,0,0,1,1.606-.066l5.046,2.912c.413.238.361.651-.114.95l-4.818,2.784a1.8,1.8,0,0,1-1.606.043Z" transform="translate(704.671 1244.392)" fill="#2b303f"/>
    <path id="Path_841" data-name="Path 841" d="M263.6,259.642l-5.046-2.912c-.413-.238-.361-.656.114-.95L263.483,253a1.782,1.782,0,0,1,1.606-.067l5.05,2.912c.409.238.356.656-.119.95l-4.818,2.779A1.782,1.782,0,0,1,263.6,259.642Z" transform="translate(696.776 1239.855)" fill="#2b303f"/>
    <path id="Path_842" data-name="Path 842" d="M278.637,268.365l-5.046-2.917c-.413-.238-.361-.651.114-.926l4.818-2.77a1.8,1.8,0,0,1,1.606-.066l5.05,2.917c.409.238.361.651-.119.926l-4.818,2.779a1.781,1.781,0,0,1-1.606.057Z" transform="translate(688.881 1235.261)" fill="#2b303f"/>
    <path id="Path_843" data-name="Path 843" d="M293.677,277.033l-5.046-2.917c-.413-.238-.361-.651.114-.926l4.818-2.779a1.782,1.782,0,0,1,1.606-.067l5.05,2.912c.413.238.361.656-.114.95l-4.794,2.76A1.791,1.791,0,0,1,293.677,277.033Z" transform="translate(680.987 1230.717)" fill="#2b303f"/>
    <path id="Path_844" data-name="Path 844" d="M308.733,285.713l-5.041-2.912c-.413-.238-.361-.656.114-.926l4.818-2.784a1.781,1.781,0,0,1,1.606-.067l5.05,2.917c.413.238.361.651-.114.95l-4.822,2.756A1.781,1.781,0,0,1,308.733,285.713Z" transform="translate(673.082 1226.161)" fill="#2b303f"/>
    <path id="Path_845" data-name="Path 845" d="M323.754,294.4l-5.06-2.931c-.409-.238-.361-.651.119-.926l4.822-2.794a1.791,1.791,0,0,1,1.611-.066l5.046,2.917c.413.238.361.656-.114.95l-4.832,2.77A1.782,1.782,0,0,1,323.754,294.4Z" transform="translate(665.206 1221.615)" fill="#2b303f"/>
    <path id="Path_846" data-name="Path 846" d="M338.806,303.083l-5.05-2.912c-.409-.238-.356-.656.119-.926l4.818-2.784a1.782,1.782,0,0,1,1.606-.067l5.046,2.917c.413.238.361.651-.114.95l-4.818,2.779a1.782,1.782,0,0,1-1.606.043Z" transform="translate(657.299 1217.043)" fill="#2b303f"/>
    <path id="Path_847" data-name="Path 847" d="M353.847,311.771l-5.046-2.917c-.413-.238-.361-.651.114-.926l4.818-2.779a1.768,1.768,0,0,1,1.606-.067l5.046,2.912c.413.238.361.651-.114.927l-4.818,2.784A1.8,1.8,0,0,1,353.847,311.771Z" transform="translate(649.404 1212.484)" fill="#2b303f"/>
    <path id="Path_848" data-name="Path 848" d="M368.887,320.412l-5.046-2.912c-.413-.238-.361-.656.114-.95l4.818-2.779a1.782,1.782,0,0,1,1.606-.067l5.05,2.912c.409.238.356.656-.119.95l-4.818,2.779A1.781,1.781,0,0,1,368.887,320.412Z" transform="translate(641.509 1207.958)" fill="#2b303f"/>
    <path id="Path_849" data-name="Path 849" d="M387.372,331.126l-8.49-4.9c-.413-.238-.361-.651.114-.926l4.818-2.784a1.8,1.8,0,0,1,1.606-.066l8.49,4.9c.413.238.361.656-.114.926l-4.818,2.784A1.782,1.782,0,0,1,387.372,331.126Z" transform="translate(633.615 1203.368)" fill="#2b303f"/>
    <path id="Path_850" data-name="Path 850" d="M196.117,237.559l-5.046-2.9c-.413-.238-.361-.651.114-.926L196,230.95a1.791,1.791,0,0,1,1.611-.066l5.046,2.912c.413.238.361.656-.114.95l-4.818,2.76a1.782,1.782,0,0,1-1.611.052Z" transform="translate(732.196 1251.429)" fill="#2b303f"/>
    <path id="Path_851" data-name="Path 851" d="M211.187,246.243l-5.046-2.917c-.413-.238-.361-.651.114-.926l4.818-2.779a1.782,1.782,0,0,1,1.606-.066l5.05,2.912c.409.238.361.656-.119.926l-4.813,2.784A1.791,1.791,0,0,1,211.187,246.243Z" transform="translate(724.285 1246.879)" fill="#2b303f"/>
    <path id="Path_852" data-name="Path 852" d="M226.257,254.917,221.212,252c-.413-.238-.361-.651.114-.95l4.818-2.779a1.782,1.782,0,0,1,1.606-.066l5.05,2.912c.409.238.356.656-.119.926l-4.818,2.784A1.8,1.8,0,0,1,226.257,254.917Z" transform="translate(716.375 1242.338)" fill="#2b303f"/>
    <path id="Path_853" data-name="Path 853" d="M241.326,263.641l-5.05-2.917c-.409-.238-.356-.651.119-.927l4.832-2.779a1.767,1.767,0,0,1,1.606-.066l5.046,2.912c.413.238.361.651-.114.926l-4.818,2.784A1.8,1.8,0,0,1,241.326,263.641Z" transform="translate(708.466 1237.747)" fill="#2b303f"/>
    <path id="Path_854" data-name="Path 854" d="M256.272,272.27l-5.05-2.917c-.413-.238-.361-.651.114-.926l4.818-2.784a1.8,1.8,0,0,1,1.606-.067l5.05,2.917c.413.238.361.651-.114.926l-4.818,2.784A1.8,1.8,0,0,1,256.272,272.27Z" transform="translate(700.623 1233.219)" fill="#2b303f"/>
    <path id="Path_855" data-name="Path 855" d="M271.337,280.97l-5.046-2.917c-.413-.238-.361-.651.114-.926l4.827-2.784a1.8,1.8,0,0,1,1.606-.066l5.046,2.917c.409.238.361.651-.119.95l-4.813,2.779A1.791,1.791,0,0,1,271.337,280.97Z" transform="translate(692.713 1228.652)" fill="#2b303f"/>
    <path id="Path_856" data-name="Path 856" d="M286.407,289.639l-5.046-2.912c-.413-.238-.361-.651.114-.95l4.818-2.784a1.8,1.8,0,0,1,1.606-.067l5.046,2.917c.413.238.361.651-.114.927l-4.818,2.779A1.782,1.782,0,0,1,286.407,289.639Z" transform="translate(684.803 1224.112)" fill="#2b303f"/>
    <path id="Path_857" data-name="Path 857" d="M301.475,298.368l-5.05-2.912c-.409-.238-.361-.656.119-.926l4.813-2.779a1.791,1.791,0,0,1,1.611-.067l5.046,2.917c.413.238.361.651-.114.926l-4.818,2.779A1.781,1.781,0,0,1,301.475,298.368Z" transform="translate(676.895 1219.516)" fill="#2b303f"/>
    <path id="Path_858" data-name="Path 858" d="M316.542,307.063l-5.05-2.912c-.413-.238-.361-.656.114-.926l4.818-2.784a1.782,1.782,0,0,1,1.606-.067l5.05,2.917c.413.238.361.651-.114.926L318.148,307A1.782,1.782,0,0,1,316.542,307.063Z" transform="translate(668.988 1214.954)" fill="#2b303f"/>
    <path id="Path_859" data-name="Path 859" d="M331.607,315.742l-5.046-2.912c-.413-.238-.361-.656.114-.95l4.818-2.779a1.782,1.782,0,0,1,1.606-.067l5.05,2.917c.409.238.361.651-.119.926l-4.813,2.779A1.791,1.791,0,0,1,331.607,315.742Z" transform="translate(661.077 1210.409)" fill="#2b303f"/>
    <path id="Path_860" data-name="Path 860" d="M346.677,324.412l-5.046-2.912c-.413-.238-.361-.656.114-.95l4.818-2.779a1.782,1.782,0,0,1,1.606-.066l5.046,2.912c.413.242.361.656-.114.95l-4.818,2.779A1.781,1.781,0,0,1,346.677,324.412Z" transform="translate(653.167 1205.858)" fill="#2b303f"/>
    <path id="Path_861" data-name="Path 861" d="M361.745,333.142l-5.05-2.912c-.409-.238-.361-.656.119-.95l4.818-2.779a1.782,1.782,0,0,1,1.606-.067l5.046,2.912c.413.238.361.656-.114.95l-4.822,2.779A1.782,1.782,0,0,1,361.745,333.142Z" transform="translate(645.26 1201.276)" fill="#2b303f"/>
    <path id="Path_862" data-name="Path 862" d="M177.252,226.623l-8.49-4.9c-.413-.238-.361-.651.114-.95l4.818-2.779a1.782,1.782,0,0,1,1.606-.066l8.49,4.9c.413.238.361.656-.114.95l-4.818,2.779A1.782,1.782,0,0,1,177.252,226.623Z" transform="translate(743.906 1258.232)" fill="#2b303f"/>
    <path id="Path_863" data-name="Path 863" d="M377.614,338.028l-5.046-2.917a1.644,1.644,0,0,0-1.5,0l-5.093,2.941a.475.475,0,0,0,0,.865l.4.228a.423.423,0,0,1,0,.8l-5.392,3.1c-.413.242-.418.627,0,.865l3.212,1.858a1.663,1.663,0,0,0,1.5,0l5.036-2.908,1.04-.6.751-.437.755-.432,4.338-2.5C378.023,338.65,378.027,338.289,377.614,338.028Z" transform="translate(643.026 1196.732)" fill="#2b303f"/>
    <path id="Path_864" data-name="Path 864" d="M130.114,249.943l-5.05-2.912c-.409-.238-.361-.656.114-.926L130,243.32a1.791,1.791,0,0,1,1.611-.067l5.046,2.917c.413.238.361.651-.114.95L131.72,249.9a1.781,1.781,0,0,1-1.606.043Z" transform="translate(766.842 1244.937)" fill="#2b303f"/>
    <path id="Path_865" data-name="Path 865" d="M145.123,258.556l-5.041-2.931c-.413-.238-.361-.656.114-.95l4.818-2.784a1.782,1.782,0,0,1,1.606-.066l5.05,2.917c.413.238.361.651-.114.926l-4.818,2.808a1.782,1.782,0,0,1-1.615.081Z" transform="translate(758.96 1240.438)" fill="#2b303f"/>
    <path id="Path_866" data-name="Path 866" d="M160.117,267.263l-5.046-2.912c-.413-.238-.361-.656.114-.926L160,260.64a1.782,1.782,0,0,1,1.606-.067l5.05,2.917c.413.238.361.651-.114.926l-4.818,2.779A1.791,1.791,0,0,1,160.117,267.263Z" transform="translate(751.092 1235.845)" fill="#2b303f"/>
    <path id="Path_867" data-name="Path 867" d="M287.862,341.013l-5.05-2.917c-.413-.238-.361-.651.114-.926l4.818-2.779a1.782,1.782,0,0,1,1.606-.067l5.05,2.912c.413.238.361.656-.114.926l-4.818,2.784A1.782,1.782,0,0,1,287.862,341.013Z" transform="translate(684.042 1197.134)" fill="#2b303f"/>
    <path id="Path_868" data-name="Path 868" d="M302.857,349.647l-5.046-2.917c-.413-.238-.361-.651.114-.95L302.743,343a1.782,1.782,0,0,1,1.606-.067l5.05,2.912c.413.238.361.656-.114.926l-4.818,2.784A1.791,1.791,0,0,1,302.857,349.647Z" transform="translate(676.168 1192.615)" fill="#2b303f"/>
    <path id="Path_869" data-name="Path 869" d="M317.857,358.354l-5.046-2.917c-.413-.238-.361-.651.114-.926l4.818-2.76a1.782,1.782,0,0,1,1.606-.066l5.05,2.917c.409.238.361.656-.119.926l-4.813,2.784A1.805,1.805,0,0,1,317.857,358.354Z" transform="translate(668.295 1188.022)" fill="#2b303f"/>
    <path id="Path_870" data-name="Path 870" d="M332.857,366.991l-5.046-2.917c-.413-.238-.361-.651.114-.926l4.818-2.779a1.768,1.768,0,0,1,1.606-.067l5.05,2.912c.409.238.356.651-.119.926l-4.818,2.784A1.8,1.8,0,0,1,332.857,366.991Z" transform="translate(660.421 1183.499)" fill="#2b303f"/>
    <path id="Path_871" data-name="Path 871" d="M176.966,276.962l-6.884-3.972c-.413-.238-.361-.656.114-.95l4.818-2.779a1.782,1.782,0,0,1,1.606-.067l6.884,3.977c.413.238.361.651-.114.95l-4.818,2.779A1.782,1.782,0,0,1,176.966,276.962Z" transform="translate(743.213 1231.321)" fill="#2b303f"/>
    <path id="Path_872" data-name="Path 872" d="M270.836,331.183l-6.884-3.977c-.413-.238-.361-.651.114-.926l4.818-2.779a1.782,1.782,0,0,1,1.606-.067l6.884,3.986c.413.238.361.656-.114.926l-4.818,2.784A1.781,1.781,0,0,1,270.836,331.183Z" transform="translate(693.941 1202.85)" fill="#2b303f"/>
    <path id="Path_873" data-name="Path 873" d="M222.5,303.245l-33.557-19.375c-.413-.238-.361-.656.114-.926l4.818-2.784a1.782,1.782,0,0,1,1.606-.066l33.561,19.375c.413.238.361.656-.114.926l-4.818,2.784A1.791,1.791,0,0,1,222.5,303.245Z" transform="translate(733.313 1225.599)" fill="#2b303f"/>
    <path id="Path_874" data-name="Path 874" d="M185.636,248.349l-5.05-2.917c-.409-.238-.356-.651.119-.926l4.818-2.756a1.782,1.782,0,0,1,1.606-.066l5.046,2.912c.413.238.361.656-.114.926l-4.818,2.784A1.782,1.782,0,0,1,185.636,248.349Z" transform="translate(737.697 1245.76)" fill="#2b303f"/>
    <path id="Path_875" data-name="Path 875" d="M200.657,256.993l-5.046-2.912c-.413-.238-.361-.656.114-.926l4.818-2.784a1.782,1.782,0,0,1,1.606-.067l5.05,2.917c.413.238.361.651-.114.926l-4.818,2.779A1.791,1.791,0,0,1,200.657,256.993Z" transform="translate(729.813 1241.236)" fill="#2b303f"/>
    <path id="Path_876" data-name="Path 876" d="M215.686,265.647l-5.05-2.917c-.409-.238-.356-.651.119-.95L215.572,259a1.782,1.782,0,0,1,1.606-.067l5.046,2.912c.413.238.361.656-.114.926l-4.794,2.808A1.782,1.782,0,0,1,215.686,265.647Z" transform="translate(721.924 1236.706)" fill="#2b303f"/>
    <path id="Path_877" data-name="Path 877" d="M230.723,274.359l-5.031-2.912c-.413-.238-.361-.656.114-.926l4.8-2.77a1.782,1.782,0,0,1,1.606-.067l5.05,2.917c.409.238.361.651-.114.926l-4.808,2.765A1.791,1.791,0,0,1,230.723,274.359Z" transform="translate(714.024 1232.113)" fill="#2b303f"/>
    <path id="Path_878" data-name="Path 878" d="M245.742,283.023l-5.046-2.917c-.409-.238-.356-.651.119-.926l4.818-2.779a1.782,1.782,0,0,1,1.606-.066l5.046,2.912c.413.238.361.651-.114.926l-4.822,2.784A1.8,1.8,0,0,1,245.742,283.023Z" transform="translate(706.146 1227.573)" fill="#2b303f"/>
    <path id="Path_879" data-name="Path 879" d="M260.747,291.672l-5.055-2.912c-.413-.238-.361-.656.114-.95l4.818-2.779a1.782,1.782,0,0,1,1.606-.067l5.05,2.912c.409.242.361.656-.119.95l-4.818,2.779A1.791,1.791,0,0,1,260.747,291.672Z" transform="translate(698.277 1223.043)" fill="#2b303f"/>
    <path id="Path_880" data-name="Path 880" d="M275.764,300.37l-5.069-2.917c-.409-.238-.361-.651.119-.926l4.837-2.779a1.782,1.782,0,0,1,1.606-.071L282.3,296.6c.413.238.361.651-.114.926l-4.818,2.784A1.8,1.8,0,0,1,275.764,300.37Z" transform="translate(690.401 1218.469)" fill="#2b303f"/>
    <path id="Path_881" data-name="Path 881" d="M290.807,309.022l-5.046-2.912c-.413-.238-.361-.656.114-.95l4.818-2.779a1.782,1.782,0,0,1,1.606-.066l5.05,2.912c.409.238.361.656-.119.95l-4.813,2.779A1.791,1.791,0,0,1,290.807,309.022Z" transform="translate(682.493 1213.936)" fill="#2b303f"/>
    <path id="Path_882" data-name="Path 882" d="M305.835,317.72l-5.05-2.917c-.409-.238-.361-.651.119-.926l4.813-2.784a1.805,1.805,0,0,1,1.611-.066l5.046,2.917c.413.238.361.651-.114.95l-4.818,2.779A1.782,1.782,0,0,1,305.835,317.72Z" transform="translate(674.606 1209.362)" fill="#2b303f"/>
    <path id="Path_883" data-name="Path 883" d="M320.857,326.4l-5.046-2.912c-.413-.242-.361-.656.114-.95l4.818-2.789a1.782,1.782,0,0,1,1.606-.067l5.05,2.917c.409.238.356.656-.119.95l-4.818,2.779A1.782,1.782,0,0,1,320.857,326.4Z" transform="translate(666.72 1204.819)" fill="#2b303f"/>
    <path id="Path_884" data-name="Path 884" d="M335.884,335.065l-5.05-2.912c-.409-.238-.361-.651.114-.926l4.818-2.784a1.806,1.806,0,0,1,1.611-.067l5.046,2.917c.413.238.361.651-.114.926L337.49,335A1.782,1.782,0,0,1,335.884,335.065Z" transform="translate(658.834 1200.255)" fill="#2b303f"/>
    <path id="Path_885" data-name="Path 885" d="M350.907,343.743l-5.046-2.917c-.413-.238-.361-.651.114-.926l4.818-2.779a1.782,1.782,0,0,1,1.606-.066l5.05,2.912c.409.238.356.656-.119.926l-4.818,2.784A1.781,1.781,0,0,1,350.907,343.743Z" transform="translate(650.947 1195.701)" fill="#2b303f"/>
    <path id="Path_886" data-name="Path 886" d="M164.634,236.184l-10.452-6.024c-.413-.238-.361-.656.114-.95l4.818-2.779a1.782,1.782,0,0,1,1.606-.067l10.452,6.029c.413.238.361.651-.114.926L166.24,236.1A1.791,1.791,0,0,1,164.634,236.184Z" transform="translate(751.559 1253.802)" fill="#2b303f"/>
    <path id="Path_887" data-name="Path 887" d="M163.6,252.412l-5.046-2.912c-.413-.242-.361-.656.114-.95l4.818-2.779a1.782,1.782,0,0,1,1.606-.067l5.05,2.912c.409.238.356.656-.119.95l-4.818,2.779a1.782,1.782,0,0,1-1.606.066Z" transform="translate(749.265 1243.65)" fill="#2b303f"/>
    <path id="Path_888" data-name="Path 888" d="M178.617,261.077l-5.046-2.912c-.413-.238-.361-.656.114-.95l4.818-2.784a1.782,1.782,0,0,1,1.606-.066l5.05,2.917c.413.238.361.651-.114.926l-4.818,2.779A1.791,1.791,0,0,1,178.617,261.077Z" transform="translate(741.381 1239.105)" fill="#2b303f"/>
    <path id="Path_889" data-name="Path 889" d="M193.642,269.78l-5.05-2.917c-.413-.238-.361-.651.114-.926l4.818-2.779a1.791,1.791,0,0,1,1.611-.071L200.179,266c.413.238.361.651-.114.95l-4.818,2.784A1.8,1.8,0,0,1,193.642,269.78Z" transform="translate(733.497 1234.526)" fill="#2b303f"/>
    <path id="Path_890" data-name="Path 890" d="M208.666,278.433l-5.05-2.917c-.409-.238-.356-.651.119-.926l4.818-2.779a1.782,1.782,0,0,1,1.606-.066l5.046,2.912c.413.238.361.656-.114.95l-4.818,2.779a1.782,1.782,0,0,1-1.606.048Z" transform="translate(725.609 1229.982)" fill="#2b303f"/>
    <path id="Path_891" data-name="Path 891" d="M223.714,287.123l-5.022-2.912c-.413-.238-.361-.656.114-.926l4.818-2.784a1.782,1.782,0,0,1,1.606-.067l5.05,2.917c.409.238.356.651-.119.926l-4.818,2.779a1.782,1.782,0,0,1-1.63.067Z" transform="translate(717.698 1225.421)" fill="#2b303f"/>
    <path id="Path_892" data-name="Path 892" d="M238.723,295.773l-5.031-2.917c-.413-.238-.361-.651.114-.95l4.818-2.784a1.8,1.8,0,0,1,1.606-.067l5.05,2.917c.409.238.361.651-.119.926l-4.818,2.808A1.805,1.805,0,0,1,238.723,295.773Z" transform="translate(709.825 1220.894)" fill="#2b303f"/>
    <path id="Path_893" data-name="Path 893" d="M253.737,304.454l-5.046-2.9c-.413-.238-.361-.651.114-.926l4.818-2.779a1.781,1.781,0,0,1,1.606-.067l5.05,2.912c.413.238.361.656-.114.95l-4.822,2.76A1.781,1.781,0,0,1,253.737,304.454Z" transform="translate(701.951 1216.314)" fill="#2b303f"/>
    <path id="Path_894" data-name="Path 894" d="M268.749,313.122l-5.055-2.912c-.409-.238-.361-.656.119-.95l4.813-2.779a1.791,1.791,0,0,1,1.611-.067l5.046,2.912c.413.242.361.656-.114.95l-4.822,2.779A1.782,1.782,0,0,1,268.749,313.122Z" transform="translate(694.075 1211.784)" fill="#2b303f"/>
    <path id="Path_895" data-name="Path 895" d="M283.756,321.815l-5.065-2.912c-.413-.238-.361-.651.114-.926l4.818-2.784a1.8,1.8,0,0,1,1.606-.067l5.046,2.917c.413.238.361.651-.114.927l-4.818,2.779A1.767,1.767,0,0,1,283.756,321.815Z" transform="translate(686.204 1207.21)" fill="#2b303f"/>
    <path id="Path_896" data-name="Path 896" d="M298.8,330.493l-5.046-2.917c-.413-.238-.361-.651.114-.926l4.818-2.779a1.782,1.782,0,0,1,1.606-.067l5.05,2.912c.409.238.356.656-.119.926l-4.818,2.784a1.782,1.782,0,0,1-1.606.067Z" transform="translate(678.299 1202.656)" fill="#2b303f"/>
    <path id="Path_897" data-name="Path 897" d="M313.817,339.142l-5.046-2.912c-.413-.238-.361-.656.114-.95L313.7,332.5a1.782,1.782,0,0,1,1.606-.066l5.05,2.912c.413.238.361.656-.114.95l-4.818,2.779A1.791,1.791,0,0,1,313.817,339.142Z" transform="translate(670.415 1198.126)" fill="#2b303f"/>
    <path id="Path_898" data-name="Path 898" d="M337.674,352.938l-13.883-8.015c-.413-.238-.361-.656.114-.927l4.818-2.784a1.806,1.806,0,0,1,1.611-.066l13.882,8.015c.409.238.356.656-.119.95l-4.818,2.76a1.782,1.782,0,0,1-1.606.067Z" transform="translate(662.531 1193.552)" fill="#2b303f"/>
    <path id="Path_899" data-name="Path 899" d="M146.562,242.584l-6.87-3.958c-.413-.238-.361-.651.114-.95l4.818-2.779a1.791,1.791,0,0,1,1.611-.071l6.88,3.977c.413.238.361.651-.114.95l-4.818,2.784A1.8,1.8,0,0,1,146.562,242.584Z" transform="translate(759.165 1249.359)" fill="#2b303f"/>
    <path id="Path_900" data-name="Path 900" d="M299.855,264.686,198.492,206.168c-.413-.238-.361-.656.114-.95l2.409-1.387a1.782,1.782,0,0,1,1.606-.067l101.363,58.542c.413.238.361.651-.114.926l-2.409,1.373A1.782,1.782,0,0,1,299.855,264.686Z" transform="translate(728.301 1265.665)" fill="#2b303f"/>
    <path id="Path_901" data-name="Path 901" d="M191.756,314.291a1.511,1.511,0,0,1-.7.727l-27.893,16.106a3.43,3.43,0,0,1-3.093.124l-47.658-27.494a1.05,1.05,0,0,1-.475-.5c-.176-.423.067-.917.7-1.283L140.53,285.86a3.444,3.444,0,0,1,3.093-.128l47.658,27.523A.841.841,0,0,1,191.756,314.291Z" transform="translate(773.615 1222.716)" fill="#b1b4c4"/>
    <path id="Path_902" data-name="Path 902" d="M191.817,314.91a1.511,1.511,0,0,1-.7.727l-27.893,16.106a3.43,3.43,0,0,1-3.093.124l-47.658-27.494a1.05,1.05,0,0,1-.475-.5,1.553,1.553,0,0,1,.7-.727l27.893-16.1a3.444,3.444,0,0,1,3.093-.128l47.658,27.5A1.055,1.055,0,0,1,191.817,314.91Z" transform="translate(773.554 1222.097)" fill="#c3c6d1"/>
    <path id="Path_903" data-name="Path 903" d="M315.558,254.563,214.176,196.04a1.782,1.782,0,0,1-.746-1.425v-1.188c0-.551.333-.8.746-.565l101.382,58.523a1.782,1.782,0,0,1,.746,1.425V254C316.323,254.549,315.972,254.8,315.558,254.563Z" transform="translate(720.313 1271.35)" fill="#2b303f"/>
    <path id="Path_1014" data-name="Path 1014" d="M203.37,22.431c-7.481-4.317-13.774-2.057-15.579,4.883a12.274,12.274,0,0,0-1.064-.689C182.01,23.9,178.091,25.58,177.3,30.3c-5.434-3.144-9.708-.679-9.708,5.367,0,5.614,3.643,12.349,8.379,15.745.389.275.76.522,1.14.741a11.3,11.3,0,0,0,1.092.556l41.1,23.806c7.462,4.308,13.527.855,13.551-7.723s-6-19-13.461-23.316c-.176-.1-.342-.19-.513-.285-1.767-8.963-8.027-18.448-15.494-22.761" transform="translate(784.663 1404.264)" fill="#d3d3dd"/>
  </g>
</svg>
