<svg xmlns="http://www.w3.org/2000/svg" width="86" height="86" viewBox="0 0 86 86">
  <g id="Group_86" data-name="Group 86" transform="translate(-145 -1258)">
    <circle id="Ellipse_95" data-name="Ellipse 95" cx="43" cy="43" r="43" transform="translate(145 1258)" fill="#cb6a79" opacity="0.4"/>
    <g id="Group_52" data-name="Group 52" transform="translate(59.388 50.596)">
      <path id="Path_1033" data-name="Path 1033" d="M59.05,212.591s.167,4.947,3.686,13.819c0,0,3.277-7.145,3.617-13.969S59.05,212.591,59.05,212.591Z" transform="translate(65.21 1057.14)" fill="#cb6a79"/>
      <path id="Path_1034" data-name="Path 1034" d="M19.962,153.81l-8.143,7.924-.968,10.347,9.849-4.938,1.792-12.62Z" transform="translate(100 1097.297)" fill="#233f71"/>
      <path id="Path_1035" data-name="Path 1035" d="M94.439,153.81l8.141,7.924.971,10.347L93.666,166.8,91.91,154.522Z" transform="translate(41.492 1097.297)" fill="#233f71"/>
      <ellipse id="Ellipse_99" data-name="Ellipse 99" cx="4.048" cy="2.337" rx="4.048" ry="2.337" transform="translate(123.795 1266.306)" fill="#424956"/>
      <path id="Path_1036" data-name="Path 1036" d="M49.87,202.983v-2.1H62.131v2.181Z" transform="translate(71.836 1063.323)" fill="#494949"/>
      <ellipse id="Ellipse_100" data-name="Ellipse 100" cx="6.137" cy="3.544" rx="6.137" ry="3.544" transform="translate(121.706 1262.759)" fill="#2b303f"/>
      <ellipse id="Ellipse_101" data-name="Ellipse 101" cx="7.49" cy="4.324" rx="7.49" ry="4.324" transform="translate(120.334 1258.789)" fill="#edeff9"/>
      <path id="Path_1037" data-name="Path 1037" d="M59.286,78.422h0v1.856c0,.376-.019.734-.033,1.085,0,.437-.031.851-.053,1.249s-.042.787-.07,1.146a17.008,17.008,0,0,1-.306,3.183c-1.06,2.479-4.646,1.113-6.416.223-.654-.328-1.085-.6-1.085-.6h-.161a12.9,12.9,0,0,1-1.269.579c-1.856.751-5.164,2.084-6.082-.211a16.621,16.621,0,0,1-.428-3.2c-.025-.356-.047-.737-.07-1.143s-.033-.81-.05-1.246c0-.348-.019-.707-.028-1.079v-.835h0V78.411h0c-.05-9.707.979-25.229,4.379-31.853.982-1.917,2.162-3.088,3.572-3.158h.161c1.391.072,2.585,1.238,3.57,3.147C58.27,53.146,59.347,68.607,59.286,78.422Z" transform="translate(76.626 1176.989)" fill="#edeff9"/>
      <circle id="Ellipse_102" data-name="Ellipse 102" cx="2.829" cy="2.829" r="2.829" transform="translate(125.034 1240.599)" fill="#2b303f"/>
      <path id="Path_1038" data-name="Path 1038" d="M63.584,121.038a3.244,3.244,0,1,1,3.244-3.244A3.244,3.244,0,0,1,63.584,121.038Zm0-5.659A2.415,2.415,0,1,0,66,117.794,2.415,2.415,0,0,0,63.584,115.379Z" transform="translate(64.279 1125.634)" fill="#424956"/>
      <circle id="Ellipse_103" data-name="Ellipse 103" cx="2.829" cy="2.829" r="2.829" transform="translate(125.034 1232.28)" fill="#2b303f"/>
      <path id="Path_1039" data-name="Path 1039" d="M63.57,91.154A3.247,3.247,0,1,1,66.814,87.9,3.247,3.247,0,0,1,63.57,91.154Zm0-5.659a2.415,2.415,0,1,0,0-.006Z" transform="translate(64.293 1147.208)" fill="#424956"/>
      <path id="Path_1040" data-name="Path 1040" d="M59.218,189.39v1.024a4.594,4.594,0,0,1-2.265,2.5,12.777,12.777,0,0,1-11.549,0,4.651,4.651,0,0,1-2.265-2.5h0v-1.021a4.61,4.61,0,0,0,2.276,2.546,12.777,12.777,0,0,0,11.549,0A4.621,4.621,0,0,0,59.218,189.39Z" transform="translate(76.694 1071.616)" fill="#233f71"/>
      <path id="Path_1041" data-name="Path 1041" d="M59.172,195.181c0,.373-.019.734-.033,1.082a4.717,4.717,0,0,1-2.226,2.368,12.76,12.76,0,0,1-11.549,0,4.767,4.767,0,0,1-2.226-2.384c0-.348-.019-.707-.028-1.077a4.6,4.6,0,0,0,2.251,2.471,12.76,12.76,0,0,0,11.549,0A4.647,4.647,0,0,0,59.172,195.181Z" transform="translate(76.715 1067.444)" fill="#233f71"/>
      <path id="Path_1042" data-name="Path 1042" d="M59.316,184.822a4.832,4.832,0,0,1-2.165,2.226,12.777,12.777,0,0,1-11.549,0A4.862,4.862,0,0,1,43.43,184.8c.022.406.045.787.07,1.143a4.974,4.974,0,0,0,2.1,2.095,11.065,11.065,0,0,0,4.407,1.313,14.062,14.062,0,0,0,2.5.019,11.168,11.168,0,0,0,4.627-1.333,4.991,4.991,0,0,0,2.095-2.073Z" transform="translate(76.484 1074.929)" fill="#233f71"/>
      <path id="Path_1043" data-name="Path 1043" d="M66.1,46.538a12.445,12.445,0,0,1-7.3,0c.982-1.917,2.162-3.088,3.572-3.158h.161C63.939,43.463,65.118,44.629,66.1,46.538Z" transform="translate(65.391 1177.004)" fill="#233f71"/>
      <rect id="Rectangle_47" data-name="Rectangle 47" width="1.388" height="18.226" transform="translate(127.251 1251.13)" fill="#233f71"/>
    </g>
  </g>
</svg>
