<svg xmlns="http://www.w3.org/2000/svg" width="19.5" height="20.237" viewBox="0 0 19.5 20.237">
  <g id="exit" transform="translate(0 0)">
    <g id="Group_133" data-name="Group 133" transform="translate(0 0)">
      <path id="Path_1090" data-name="Path 1090" d="M37.539,15.924a.368.368,0,0,0,0-.281.376.376,0,0,0-.08-.12l-4.415-4.415a.368.368,0,1,0-.52.52l3.787,3.787H28.369a.368.368,0,1,0,0,.736h7.942l-3.787,3.787a.368.368,0,1,0,.52.52l4.415-4.415A.37.37,0,0,0,37.539,15.924Z" transform="translate(-18.067 -6.952)" fill="#0F2046"/>
      <path id="Path_1091" data-name="Path 1091" d="M13.879,10.67a.368.368,0,0,0-.368.368v5.887H9.832V2.944a.368.368,0,0,0-.256-.351L3.739.736h9.772V6.623a.368.368,0,0,0,.736,0V.368A.368.368,0,0,0,13.879,0H1.369a.337.337,0,0,0-.033.007.339.339,0,0,0-.058.012.358.358,0,0,0-.1.04c-.01.006-.021.006-.03.013S1.132.09,1.121.1L1.1.116a.383.383,0,0,0-.068.1c0,.007-.005.015-.008.022A.367.367,0,0,0,1,.368V17.293a.363.363,0,0,0,.026.131.368.368,0,0,0,.02.038.354.354,0,0,0,.049.072c.011.012.021.022.033.033a.364.364,0,0,0,.071.048.326.326,0,0,0,.041.021l.017.009L9.353,20.22a.38.38,0,0,0,.111.017.367.367,0,0,0,.368-.368V17.661h4.047a.368.368,0,0,0,.368-.368V11.038A.368.368,0,0,0,13.879,10.67ZM9.1,19.366,1.737,17.024V.871L9.1,3.212Z" transform="translate(-1.001)" fill="#0F2046"/>
    </g>
  </g>
</svg>
