<svg id="gear" xmlns="http://www.w3.org/2000/svg" width="21.722" height="21.722" viewBox="0 0 21.722 21.722">
  <path id="Path_1103" data-name="Path 1103" d="M21.395,9.46l-1.258-.242a2.188,2.188,0,0,1-1.351-3.442l.79-1.078a.4.4,0,0,0-.04-.522L17.829,2.47a.4.4,0,0,0-.51-.049l-1.061.718a2.188,2.188,0,0,1-3.389-1.479l-.2-1.32a.4.4,0,0,0-.4-.341H9.855a.4.4,0,0,0-.4.327L9.148,1.952a2.188,2.188,0,0,1-3.375,1.4L4.4,2.422a.4.4,0,0,0-.51.049L2.185,4.177a.4.4,0,0,0-.04.523l.79,1.078A2.187,2.187,0,0,1,1.584,9.218L.326,9.461A.4.4,0,0,0,0,9.855v2.414a.4.4,0,0,0,.341.4l1.321.2A2.188,2.188,0,0,1,3.14,16.259L2.422,17.32a.4.4,0,0,0,.049.51l1.706,1.706a.4.4,0,0,0,.522.04l1.078-.79a2.188,2.188,0,0,1,3.442,1.351L9.46,21.4a.4.4,0,0,0,.4.326h2.414a.4.4,0,0,0,.4-.341l.143-.929a2.187,2.187,0,0,1,3.456-1.431l.758.556a.4.4,0,0,0,.522-.04l1.706-1.706a.4.4,0,0,0,.049-.51l-.718-1.061a2.188,2.188,0,0,1,1.479-3.389l1.32-.2a.4.4,0,0,0,.342-.4V9.855A.4.4,0,0,0,21.395,9.46Zm-.478,2.463-.979.151a2.992,2.992,0,0,0-2.022,4.636l.532.786L17.22,18.724l-.479-.352a2.992,2.992,0,0,0-4.727,1.958l-.09.587H10.187l-.179-.932A2.992,2.992,0,0,0,5.3,18.137l-.8.586L3.274,17.5l.533-.786a2.992,2.992,0,0,0-2.023-4.635L.8,11.924V10.188l.932-.179A2.992,2.992,0,0,0,3.584,5.3L3,4.5,4.226,3.274l1.1.742A2.992,2.992,0,0,0,9.938,2.1l.25-1.3h1.736l.151.979A2.992,2.992,0,0,0,16.71,3.807l.786-.532L18.724,4.5l-.586.8a2.993,2.993,0,0,0,1.848,4.708l.931.179Z" fill="#fff"/>
  <path id="Path_1104" data-name="Path 1104" d="M21.224,17a4.224,4.224,0,1,0,4.224,4.224A4.228,4.228,0,0,0,21.224,17Zm0,7.643a3.419,3.419,0,1,1,3.419-3.419A3.423,3.423,0,0,1,21.224,24.643Z" transform="translate(-10.162 -10.162)" fill="#fff"/>
  <path id="Path_1105" data-name="Path 1105" d="M24.212,22a2.212,2.212,0,1,0,2.212,2.212A2.215,2.215,0,0,0,24.212,22Zm0,3.62a1.408,1.408,0,1,1,1.408-1.408A1.409,1.409,0,0,1,24.212,25.62Z" transform="translate(-13.15 -13.15)" fill="#fff"/>
</svg>
