<svg xmlns="http://www.w3.org/2000/svg" width="18.777" height="22.532" viewBox="0 0 18.777 22.532">
  <g id="document" transform="translate(0 0)">
    <g id="Group_135" data-name="Group 135" transform="translate(0 0)">
      <g id="Group_134" data-name="Group 134" transform="translate(0 0)">
        <path id="Path_1092" data-name="Path 1092" d="M59.737,3.811a.341.341,0,0,0-.17-.249L55.189-.816a.341.341,0,0,0-.249-.17.321.321,0,0,0-.1-.007H44.348A1.106,1.106,0,0,0,43.221.133V1.26H42.095a1.106,1.106,0,0,0-1.127,1.127V20.411a1.106,1.106,0,0,0,1.127,1.127h14.27a1.106,1.106,0,0,0,1.127-1.127V19.285h1.127a1.106,1.106,0,0,0,1.127-1.127V3.909A.32.32,0,0,0,59.737,3.811Zm-1.27-.3H55.613a.355.355,0,0,1-.375-.375V.284Zm-1.727,16.9a.355.355,0,0,1-.375.375H42.095a.355.355,0,0,1-.375-.375V2.386a.376.376,0,0,1,.375-.375h1.127V18.158a1.106,1.106,0,0,0,1.127,1.127H56.74v1.127Zm2.253-2.253a.355.355,0,0,1-.375.376H44.348a.355.355,0,0,1-.376-.376V.133a.376.376,0,0,1,.376-.375H54.487v3.38a1.106,1.106,0,0,0,1.127,1.127h3.38Z" transform="translate(-40.968 0.994)" fill="#fff"/>
        <path id="Path_1093" data-name="Path 1093" d="M150.458,100.507h6.759a.375.375,0,1,0,0-.751h-6.759a.375.375,0,1,0,0,.751Z" transform="translate(-145.2 -95.248)" fill="#fff"/>
        <path id="Path_1094" data-name="Path 1094" d="M150.082,150.491a.355.355,0,0,0,.376.375h11.266a.375.375,0,1,0,0-.751H150.458A.355.355,0,0,0,150.082,150.491Z" transform="translate(-145.2 -143.355)" fill="#fff"/>
        <path id="Path_1095" data-name="Path 1095" d="M161.723,200.477H150.458a.375.375,0,1,0,0,.751h11.266a.375.375,0,0,0,0-.751Z" transform="translate(-145.2 -191.463)" fill="#fff"/>
        <path id="Path_1096" data-name="Path 1096" d="M161.723,250.837H150.458a.376.376,0,1,0,0,.751h11.266a.376.376,0,0,0,0-.751Z" transform="translate(-145.2 -239.57)" fill="#fff"/>
        <path id="Path_1097" data-name="Path 1097" d="M161.723,301.2H150.458a.375.375,0,1,0,0,.751h11.266a.375.375,0,0,0,0-.751Z" transform="translate(-145.2 -287.678)" fill="#fff"/>
        <path id="Path_1098" data-name="Path 1098" d="M161.723,351.559H150.458a.375.375,0,1,0,0,.751h11.266a.375.375,0,0,0,0-.751Z" transform="translate(-145.2 -335.786)" fill="#fff"/>
      </g>
    </g>
  </g>
</svg>
