<svg xmlns="http://www.w3.org/2000/svg" width="26" height="26" viewBox="0 0 26 26">
  <path id="user" d="M26,13A13,13,0,1,0,4.22,22.577l-.012.011.422.355c.027.023.057.042.085.065.224.186.456.362.693.533.077.055.153.111.231.165q.379.261.776.5l.174.1c.29.165.586.321.889.463l.067.03a12.883,12.883,0,0,0,3.144,1l.087.016c.342.059.688.106,1.039.138l.128.01c.349.029.7.047,1.059.047s.7-.018,1.05-.046l.132-.01q.521-.048,1.03-.136l.088-.016a12.882,12.882,0,0,0,3.1-.971l.108-.049q.438-.206.856-.442l.208-.12c.254-.15.5-.306.747-.473.087-.06.173-.122.26-.185.208-.149.411-.3.609-.465.044-.035.091-.066.134-.1l.433-.361-.013-.011A12.966,12.966,0,0,0,26,13ZM.945,13a12.055,12.055,0,1,1,20.049,9.012,3.543,3.543,0,0,0-.422-.254l-4-2a1.048,1.048,0,0,1-.582-.942v-1.4c.093-.114.191-.244.292-.386a9.633,9.633,0,0,0,1.237-2.422,1.716,1.716,0,0,0,.986-1.555V11.378a1.72,1.72,0,0,0-.419-1.12V8.052a3.813,3.813,0,0,0-.89-2.772A5.321,5.321,0,0,0,13,3.782a5.323,5.323,0,0,0-4.192,1.5,3.813,3.813,0,0,0-.89,2.772v2.206a1.722,1.722,0,0,0-.419,1.12v1.676a1.72,1.72,0,0,0,.633,1.334,8.883,8.883,0,0,0,1.462,3.02v1.368a1.054,1.054,0,0,1-.549.926L5.307,21.74a3.416,3.416,0,0,0-.355.225A12.026,12.026,0,0,1,.945,13Zm19.126,9.753q-.248.18-.5.347c-.078.051-.156.1-.236.152-.223.138-.45.269-.682.392l-.154.079a12.046,12.046,0,0,1-1.649.7l-.06.02q-.445.147-.9.261h0c-.306.076-.616.139-.928.19l-.026,0c-.294.048-.589.082-.886.108l-.158.012c-.294.022-.589.036-.885.036s-.6-.015-.9-.037l-.154-.012c-.3-.026-.6-.062-.893-.11l-.04-.007a12.01,12.01,0,0,1-1.839-.459l-.056-.019q-.446-.152-.88-.337l-.006,0c-.273-.118-.541-.248-.806-.386l-.1-.053c-.242-.129-.478-.269-.711-.414l-.206-.132c-.215-.14-.426-.286-.633-.441L5.714,22.6l.045-.026L9.5,20.531a2,2,0,0,0,1.042-1.756v-1.7l-.109-.131A7.893,7.893,0,0,1,9.012,14l-.043-.187-.161-.1a.783.783,0,0,1-.364-.658V11.377a.772.772,0,0,1,.263-.578l.156-.141V8.025l0-.062A2.847,2.847,0,0,1,9.519,5.9,4.455,4.455,0,0,1,13,4.727a4.466,4.466,0,0,1,3.473,1.166,2.9,2.9,0,0,1,.668,2.071l0,2.7.156.141a.773.773,0,0,1,.263.578v1.676A.79.79,0,0,1,17,13.8l-.235.072-.076.234a8.746,8.746,0,0,1-1.18,2.379c-.124.175-.244.33-.348.449l-.117.134v1.749A1.988,1.988,0,0,0,16.147,20.6l4,2,.076.039C20.175,22.681,20.123,22.716,20.072,22.753Z" fill="#0F2046"/>
</svg>
