<svg id="Component_17_7" data-name="Component 17 – 7" xmlns="http://www.w3.org/2000/svg" width="46" height="46" viewBox="0 0 46 46">
  <path id="Subtraction_5" data-name="Subtraction 5" d="M23,46a23.371,23.371,0,0,1-2.352-.119A22.966,22.966,0,0,1,.119,25.352a23.345,23.345,0,0,1,0-4.7A22.957,22.957,0,0,1,6.311,7.174L9.67,10.533a18.251,18.251,0,0,0,25.8,25.8l3.359,3.359a23.032,23.032,0,0,1-6.874,4.5,22.871,22.871,0,0,1-6.6,1.689A23.371,23.371,0,0,1,23,46Zm16.689-7.174h0L36.33,35.467a18.251,18.251,0,0,0-25.8-25.8L7.174,6.311a23.031,23.031,0,0,1,6.874-4.5,22.871,22.871,0,0,1,6.6-1.689,23.345,23.345,0,0,1,4.7,0,22.966,22.966,0,0,1,20.53,20.53,23.345,23.345,0,0,1,0,4.7,22.958,22.958,0,0,1-6.192,13.475Z" fill="#fff"/>
  <path id="Subtraction_3" data-name="Subtraction 3" d="M16.5,33a16.622,16.622,0,0,1-3.325-.335,16.409,16.409,0,0,1-5.9-2.483A16.548,16.548,0,0,1,1.3,22.923a16.417,16.417,0,0,1-.961-3.1,16.661,16.661,0,0,1,0-6.651,16.41,16.41,0,0,1,2.483-5.9A16.548,16.548,0,0,1,10.077,1.3a16.417,16.417,0,0,1,3.1-.961,16.661,16.661,0,0,1,6.651,0,16.409,16.409,0,0,1,5.9,2.483,16.548,16.548,0,0,1,5.978,7.26,16.417,16.417,0,0,1,.961,3.1,16.661,16.661,0,0,1,0,6.651,16.409,16.409,0,0,1-2.483,5.9A16.548,16.548,0,0,1,22.923,31.7a16.417,16.417,0,0,1-3.1.961A16.621,16.621,0,0,1,16.5,33Zm0-31.5a15,15,0,1,0,15,15A15.017,15.017,0,0,0,16.5,1.5Z" transform="translate(6 6)" fill="#fff"/>
</svg>
