<svg xmlns="http://www.w3.org/2000/svg" width="46" height="46" viewBox="0 0 46 46">
  <g id="Group_115" data-name="Group 115" transform="translate(0.565 1)">
    <circle id="Oval_1_" cx="22" cy="22" r="22" transform="translate(0.435)" fill="none" stroke="#fff" stroke-width="2"/>
    <circle id="Oval_1_2" data-name="Oval_1_" cx="22" cy="22" r="22" transform="translate(0.435)" fill="none" stroke="#fff" stroke-width="2"/>
    <path id="Shape_1_" d="M130.5,56.8a4.7,4.7,0,0,0,1.9-2.5,9.038,9.038,0,0,1-2.7,1.1,4.1,4.1,0,0,0-3.1-1.4,4.378,4.378,0,0,0-4.3,4.5,3.083,3.083,0,0,0,.1,1,12.143,12.143,0,0,1-8.9-4.7,4.645,4.645,0,0,0-.6,2.3,4.73,4.73,0,0,0,1.9,3.8,3.606,3.606,0,0,1-2-.6v.1a4.622,4.622,0,0,0,3.5,4.5,4.253,4.253,0,0,1-1.1.2,2.2,2.2,0,0,1-.8-.1,4.385,4.385,0,0,0,4,3.2,8.452,8.452,0,0,1-5.4,1.9,3.4,3.4,0,0,1-1-.1,11.671,11.671,0,0,0,6.6,2c7.9,0,12.3-6.9,12.3-12.9v-.6a7.018,7.018,0,0,0,2.1-2.4A7.172,7.172,0,0,1,130.5,56.8Z" transform="translate(-100 -40)" fill="#fff"/>
  </g>
</svg>
