<svg xmlns="http://www.w3.org/2000/svg" width="57.239" height="155.777" viewBox="0 0 57.239 155.777">
  <g id="Group_521" data-name="Group 521" transform="translate(-152 -128)">
    <g id="Group_519" data-name="Group 519" transform="translate(152 128)">
      <path id="Path_586" data-name="Path 586" d="M298.333,286.718l-46.411-26.724a1.709,1.709,0,0,1,.067-3l5.839-3.013a1.728,1.728,0,0,1,1.641.038l47.97,27.624a1.714,1.714,0,0,1-.067,3.008l-4.236,2.18A5.006,5.006,0,0,1,298.333,286.718Z" transform="translate(-251.062 -131.611)" fill="#d6d8e5" opacity="0.4"/>
      <path id="Path_587" data-name="Path 587" d="M306.016,150.036,266.46,127.2c-3.369-1.925-6.07-7.124-6.07-11.591V5.273c0-4.467,2.72-6.522,6.07-4.587l39.557,22.878c3.37,1.925,6.07,7.124,6.07,11.591V145.477C312.086,149.92,309.367,151.971,306.016,150.036Z" transform="translate(-255.9 0.043)" fill="#b1b4c4"/>
      <path id="Path_588" data-name="Path 588" d="M356.59,308.624l3.134-1.584-3-5.15Z" transform="translate(-305.794 -156.557)" fill="#b1b4c4"/>
      <path id="Path_590" data-name="Path 590" d="M300.847,152.676l-39.552-22.835c-3.369-1.925-6.065-7.124-6.065-11.591V7.933c0-4.467,2.715-6.522,6.065-4.587L300.847,26.18c3.369,1.925,6.065,7.124,6.065,11.591V148.094C306.887,152.561,304.173,154.611,300.847,152.676Z" transform="translate(-253.224 -1.338)" fill="#616e84"/>
      <path id="Path_591" data-name="Path 591" d="M305.982,38.361V148.675c0,4.472-2.715,6.522-6.065,4.592l-15.509-8.958-4.813-2.782-19.23-11.095c-3.369-1.925-6.065-7.124-6.065-11.6V8.523c0-4.452,2.715-6.522,6.065-4.592l39.552,22.835C303.252,28.7,305.982,33.913,305.982,38.361Z" transform="translate(-252.741 -1.644)" fill="#20232d"/>
      <path id="Path_592" data-name="Path 592" d="M306.187,42.037V149.483c0,2.705-1.9,3.807-4.245,2.45l-12.366-7.138-1.078-.631-.366-.212-2.671-1.545-7.735-4.457h0l-3.211-1.853-1.29-.746-8.794-5.059a9.385,9.385,0,0,1-4.241-7.355V15.491c0-2.71,1.9-3.807,4.241-2.455l15.442,8.919V22a7.321,7.321,0,0,0,3.331,5.723c1.829,1.045,3.312.2,3.312-1.925v-.048l15.441,8.919A9.455,9.455,0,0,1,306.187,42.037Z" transform="translate(-255.796 -6.441)" fill="#757575"/>
      <ellipse id="Ellipse_67" data-name="Ellipse 67" cx="1.029" cy="1.777" rx="1.029" ry="1.777" transform="translate(26.215 17.681) rotate(-29.887)" fill="#2b303f"/>
      <path id="Path_593" data-name="Path 593" d="M307.429,38.52a1.169,1.169,0,0,1-.529-.929c0-.337.236-.481.524-.3a1.155,1.155,0,0,1,.525.91C307.949,38.553,307.713,38.688,307.429,38.52Z" transform="translate(-280.023 -19.28)" fill="#fff" opacity="0.1"/>
      <path id="Path_594" data-name="Path 594" d="M364.367,99.567h0c-.322.188-.587,0-.587-.443v-4.7a1.411,1.411,0,0,1,.587-1.117h0c.323-.183.583,0,.583.443v4.7A1.4,1.4,0,0,1,364.367,99.567Z" transform="translate(-309.524 -48.338)" fill="#757b89"/>
      <path id="Path_595" data-name="Path 595" d="M364.367,115.576h0c-.322.188-.587,0-.587-.438v-4.707a1.411,1.411,0,0,1,.587-1.117h0c.323-.183.583,0,.583.443v4.7A1.392,1.392,0,0,1,364.367,115.576Z" transform="translate(-309.524 -56.641)" fill="#757b89"/>
    </g>
    <path id="Path_1590" data-name="Path 1590" d="M189.267,21.565c-4.532-2.616-8.345-1.246-9.439,2.958a7.443,7.443,0,0,0-.645-.417c-2.858-1.649-5.232-.633-5.712,2.227-3.292-1.905-5.882-.412-5.882,3.252a12.894,12.894,0,0,0,5.076,9.539c.236.167.46.317.691.449a6.856,6.856,0,0,0,.662.337l24.9,14.423c4.521,2.61,8.2.518,8.21-4.679s-3.634-11.511-8.155-14.127c-.106-.063-.207-.115-.311-.173-1.07-5.43-4.863-11.177-9.387-13.79" transform="translate(-8.276 167.741)" fill="#f0f0f0"/>
  </g>
</svg>
