<svg xmlns="http://www.w3.org/2000/svg" width="22.284" height="21.284" viewBox="0 0 22.284 21.284">
  <g id="Group_81" data-name="Group 81" transform="translate(-696.5 -1498.5)">
    <path id="Union_1" data-name="Union 1" d="M10.642,12.281a1.846,1.846,0,0,1-1.413-.533L.54,3.123A1.82,1.82,0,0,1,.54.536a1.853,1.853,0,0,1,2.607,0l7.5,7.44,7.5-7.44a1.853,1.853,0,0,1,2.607,0,1.82,1.82,0,0,1,0,2.588l-8.689,8.625a1.845,1.845,0,0,1-1.3.536Q10.7,12.284,10.642,12.281Z" transform="translate(706.5 1519.784) rotate(-90)" fill="#0f2046"/>
    <path id="Union_1-2" data-name="Union 1" d="M10.642,12.281a1.846,1.846,0,0,1-1.413-.533L.54,3.123A1.82,1.82,0,0,1,.54.536a1.853,1.853,0,0,1,2.607,0l7.5,7.44,7.5-7.44a1.853,1.853,0,0,1,2.607,0,1.82,1.82,0,0,1,0,2.588l-8.689,8.625a1.845,1.845,0,0,1-1.3.536Q10.7,12.284,10.642,12.281Z" transform="translate(696.5 1519.784) rotate(-90)" fill="#0f2046"/>
  </g>
</svg>
