<svg xmlns="http://www.w3.org/2000/svg" width="341.69" height="266.404" viewBox="0 0 341.69 266.404">
  <g id="Слой_2" data-name="Слой 2" transform="translate(-99.66 -49.618)">
    <path id="Path_1726" data-name="Path 1726" d="M125.17,301.28l-1.46-1.74c-29.24-34.79-31.79-66.31-7.8-96.36,20.43-25.58,56.49-45.62,88.31-63.3,6.71-3.73,13-7.25,19.06-10.72l6.82-4,6.83,4c36.89,21.29,75.6,31.38,121.84,31.76l9.39.07.13,5.42c.65,26.7,18.13,49.06,55,70.35l6.83,3.94-6.83,3.94c-6,3.48-12.11,7.14-18.57,11-30.62,18.38-65.34,39.2-109.64,51-52.05,13.85-106.65,12.38-166.92-4.5Zm105-160.39c-4.06,2.29-8.24,4.61-12.57,7-63.33,35.2-135,75.05-78,145,121.2,33,190.24-8.45,251.2-45,4.2-2.48,8.2-4.89,12.2-7.23-33.82-20.89-51.05-43-53.66-68.79-44.72-1.5-82.98-11.45-119.16-30.98Z" fill="#d6d8e5" opacity="0.4"/>
    <path id="Path_1727" data-name="Path 1727" d="M136.35,294.57l-1.46-1.73c-29.24-34.8-31.79-66.32-7.8-96.37,20.43-25.58,56.5-45.62,88.31-63.3,6.71-3.73,13-7.25,19.06-10.72l6.83-3.94,6.82,3.94C285,143.74,323.71,153.83,370,154.21l9.39.07.13,5.42c.65,26.7,18.13,49.06,55,70.35l6.83,3.94-6.83,3.95c-6,3.47-12.11,7.13-18.56,11-30.63,18.37-65.34,39.19-109.65,51-52,13.86-106.65,12.38-166.92-4.5Zm105-160.39c-4.06,2.29-8.24,4.61-12.56,7-63.34,35.2-135,75.05-78,145,121.19,33,190.23-8.45,251.19-45,4.17-2.49,8.19-4.91,12.15-7.25-33.81-20.89-51.05-43-53.66-68.79-44.67-1.48-82.93-11.43-119.11-30.96Z" fill="#7d90e2"/>
    <path id="Path_1728" data-name="Path 1728" d="M136.35,294.57V278.92L354.79,215.7l86.09,2.24.44,16.05L327.95,285.82l-70.72,17.71-97.83-7.75Z" fill="#7d90e2"/>
    <path id="Path_1729" data-name="Path 1729" d="M110.84,237.79v-14.7l7.84,10.78Z" fill="#7d90e2"/>
    <path id="Path_1730" data-name="Path 1730" d="M427.66,218.34c-38.6-22.29-57.15-45.73-57.84-74.21-49.33-.4-89.93-11.11-128.53-33.39-63.33,36.56-167.16,81.37-97.71,164C286.72,314.85,364.33,254.9,427.66,218.34Z" fill="#525bff"/>
    <path id="Path_1731" data-name="Path 1731" d="M136.35,278.92l-1.46-1.74c-29.24-34.79-31.79-66.31-7.8-96.36,20.43-25.58,56.5-45.62,88.31-63.31,6.71-3.72,13-7.24,19.06-10.72l6.83-3.94,6.82,3.94c36.89,21.3,75.6,31.39,121.84,31.76l9.39.08.13,5.42c.65,26.7,18.13,49,55,70.35l6.83,3.94-6.83,3.94c-6,3.48-12.11,7.13-18.56,11-30.63,18.37-65.34,39.2-109.65,51-52,13.85-106.65,12.38-166.92-4.51Zm105-160.39c-4.06,2.29-8.24,4.61-12.56,7-63.34,35.19-135,75.05-78,145,121.19,32.95,190.23-8.45,251.19-45,4.17-2.5,8.19-4.91,12.15-7.25-33.81-20.89-51.05-43-53.66-68.79-44.67-1.49-82.93-11.44-119.11-30.96Z" fill="#97a6ff"/>
    <ellipse id="Ellipse_194" data-name="Ellipse 194" cx="40.58" cy="23.43" rx="40.58" ry="23.43" transform="translate(224.32 179.97)" opacity="0.1"/>
    <path id="Path_1732" data-name="Path 1732" d="M294.2,144l-41.95-24.22c-3.11-1.8-5.63-6.61-5.63-10.75V80.53c0-4.14,2.52-6,5.63-4.25L294.2,100.5c3.11,1.8,5.63,6.61,5.63,10.75v28.5C299.83,143.89,297.31,145.79,294.2,144Z" fill="#e8a30a"/>
    <path id="Path_1733" data-name="Path 1733" d="M279.37,155.36l18.74-11.21-11.36-25.77-17.64,8.72Z" fill="#e8a30a"/>
    <path id="Path_1734" data-name="Path 1734" d="M230.49,86.83,248.98,75.8l4.63,34.34Z" fill="#e8a30a"/>
    <path id="Path_1735" data-name="Path 1735" d="M275.82,155l-42-24.22c-3.11-1.79-5.62-6.6-5.62-10.74V91.52c0-4.14,2.51-6,5.62-4.25l42,24.23c3.1,1.79,5.62,6.6,5.62,10.74v28.5C281.44,154.88,278.92,156.79,275.82,155Z" fill="#f9cb07"/>
    <path id="Path_1736" data-name="Path 1736" d="M251.12,86.44V64.79c0-8.79,6.17-12.35,13.78-8h0c7.61,4.39,13.78,15.08,13.78,23.86V102.3" fill="none" stroke="#cc8b09" stroke-miterlimit="10" stroke-width="10.46"/>
    <ellipse id="Ellipse_195" data-name="Ellipse 195" cx="6.11" cy="3.53" rx="6.11" ry="3.53" transform="translate(244.82 83.06)" fill="#cc8b09"/>
    <ellipse id="Ellipse_196" data-name="Ellipse 196" cx="6.11" cy="3.53" rx="6.11" ry="3.53" transform="translate(272.57 97.8)" fill="#cc8b09"/>
  </g>
</svg>
