<svg xmlns="http://www.w3.org/2000/svg" xmlns:xlink="http://www.w3.org/1999/xlink" width="44.234" height="81.715" viewBox="0 0 44.234 81.715">
  <defs>
    <clipPath id="clip-path">
      <rect width="44.234" height="81.715" fill="none"/>
    </clipPath>
  </defs>
  <g id="Repeat_Grid_4" data-name="Repeat Grid 4" clip-path="url(#clip-path)">
    <g id="Group_52" data-name="Group 52">
      <path id="Path_1033" data-name="Path 1033" d="M59.05,213.514s.216,6.4,4.769,17.877c0,0,4.24-9.243,4.679-18.071S59.05,213.514,59.05,213.514Z" transform="translate(-41.702 -149.676)" fill="#fc6500"/>
      <path id="Path_1034" data-name="Path 1034" d="M22.637,153.81,12.1,164.06,10.85,177.446l12.741-6.389,2.318-16.326Z" transform="translate(-10.85 -114.064)" fill="#233f71"/>
      <path id="Path_1035" data-name="Path 1035" d="M95.182,153.81l10.531,10.25,1.256,13.385-12.788-6.831L91.91,154.731Z" transform="translate(-62.735 -114.064)" fill="#233f71"/>
      <ellipse id="Ellipse_99" data-name="Ellipse 99" cx="5.237" cy="3.023" rx="5.237" ry="3.023" transform="translate(16.747 59.408)" fill="#424956"/>
      <path id="Path_1036" data-name="Path 1036" d="M49.87,203.6V200.88H65.731V203.7Z" transform="translate(-35.826 -144.193)" fill="#494949"/>
      <ellipse id="Ellipse_100" data-name="Ellipse 100" cx="7.94" cy="4.585" rx="7.94" ry="4.585" transform="translate(14.044 54.819)" fill="#2b303f"/>
      <ellipse id="Ellipse_101" data-name="Ellipse 101" cx="9.689" cy="5.593" rx="9.689" ry="5.593" transform="translate(12.27 49.683)" fill="#edeff9"/>
      <path id="Path_1037" data-name="Path 1037" d="M64,88.706h0v2.4c0,.486-.025.95-.043,1.4,0,.565-.04,1.1-.068,1.616s-.054,1.019-.09,1.483a22,22,0,0,1-.4,4.117c-1.371,3.207-6.011,1.44-8.3.288-.846-.425-1.4-.774-1.4-.774H53.49a16.686,16.686,0,0,1-1.641.749c-2.4.972-6.68,2.7-7.868-.274a21.5,21.5,0,0,1-.554-4.135c-.032-.461-.061-.954-.09-1.479s-.043-1.047-.065-1.612c0-.45-.025-.914-.036-1.4v-1.08h0V88.692h0C43.171,76.134,44.5,56.055,48.9,47.485c1.27-2.48,2.8-4,4.621-4.085h.209c1.8.094,3.344,1.6,4.618,4.071C62.686,56.008,64.079,76.008,64,88.706Z" transform="translate(-31.578 -43.393)" fill="#edeff9"/>
      <circle id="Ellipse_102" data-name="Ellipse 102" cx="3.66" cy="3.66" r="3.66" transform="translate(18.349 26.152)" fill="#2b303f"/>
      <path id="Path_1038" data-name="Path 1038" d="M64.537,122.943a4.2,4.2,0,1,1,4.2-4.2A4.2,4.2,0,0,1,64.537,122.943Zm0-7.321a3.124,3.124,0,1,0,3.12,3.124A3.124,3.124,0,0,0,64.537,115.623Z" transform="translate(-42.528 -88.935)" fill="#424956"/>
      <path id="Path_1040" data-name="Path 1040" d="M63.94,189.39v1.324a5.943,5.943,0,0,1-2.93,3.239,16.529,16.529,0,0,1-14.94,0,6.017,6.017,0,0,1-2.93-3.239h0v-1.321a5.964,5.964,0,0,0,2.944,3.293,16.529,16.529,0,0,0,14.94,0A5.978,5.978,0,0,0,63.94,189.39Z" transform="translate(-31.518 -136.839)" fill="#233f71"/>
      <path id="Path_1041" data-name="Path 1041" d="M63.888,195.184c0,.482-.025.95-.043,1.4a6.1,6.1,0,0,1-2.879,3.063,16.507,16.507,0,0,1-14.94,0,6.167,6.167,0,0,1-2.879-3.084c0-.45-.025-.914-.036-1.393a5.945,5.945,0,0,0,2.912,3.2,16.507,16.507,0,0,0,14.94,0A6.012,6.012,0,0,0,63.888,195.184Z" transform="translate(-31.499 -140.538)" fill="#233f71"/>
      <path id="Path_1042" data-name="Path 1042" d="M63.981,184.829a6.251,6.251,0,0,1-2.8,2.879,16.529,16.529,0,0,1-14.94,0A6.29,6.29,0,0,1,43.43,184.8c.029.525.058,1.019.09,1.479a6.434,6.434,0,0,0,2.721,2.71,14.314,14.314,0,0,0,5.7,1.7,18.188,18.188,0,0,0,3.239.025,14.447,14.447,0,0,0,5.985-1.724,6.457,6.457,0,0,0,2.71-2.681Z" transform="translate(-31.704 -133.901)" fill="#233f71"/>
      <path id="Path_1043" data-name="Path 1043" d="M68.248,47.465a16.1,16.1,0,0,1-9.448,0c1.271-2.48,2.8-4,4.621-4.085h.209C65.448,43.488,66.974,45,68.248,47.465Z" transform="translate(-41.542 -43.38)" fill="#233f71"/>
      <rect id="Rectangle_47" data-name="Rectangle 47" width="1.796" height="23.578" transform="translate(21.217 39.775)" fill="#233f71"/>
      <circle id="Ellipse_159" data-name="Ellipse 159" cx="3.66" cy="3.66" r="3.66" transform="translate(18.348 15.151)" fill="#2b303f"/>
      <path id="Path_1591" data-name="Path 1591" d="M64.537,122.943a4.2,4.2,0,1,1,4.2-4.2A4.2,4.2,0,0,1,64.537,122.943Zm0-7.321a3.124,3.124,0,1,0,3.12,3.124A3.124,3.124,0,0,0,64.537,115.623Z" transform="translate(-42.528 -99.935)" fill="#424956"/>
    </g>
  </g>
</svg>
