<svg id="Group_77" data-name="Group 77" xmlns="http://www.w3.org/2000/svg" xmlns:xlink="http://www.w3.org/1999/xlink" width="74.286" height="77.705" viewBox="0 0 74.286 77.705">
  <defs>
    <linearGradient id="linear-gradient" x1="-1.812" y1="7.404" x2="-1.812" y2="6.912" gradientUnits="objectBoundingBox">
      <stop offset="0.21" stop-color="#fff" stop-opacity="0"/>
      <stop offset="1" stop-color="#fff" stop-opacity="0.2"/>
    </linearGradient>
  </defs>
  <path id="Path_823" data-name="Path 823" d="M250.886,58.673,209.617,34.846a2.508,2.508,0,0,1-1.047-2V.921c0-.772.468-1.127,1.047-.792l41.269,23.827a2.51,2.51,0,0,1,1.049,2V57.873C251.935,58.653,251.465,59.007,250.886,58.673Z" transform="translate(-177.649 -0.003)" fill="#b1b4c4"/>
  <path id="Path_824" data-name="Path 824" d="M443.74,318.909l.458-.262-.2-1.356Z" transform="translate(-370.29 -259.91)" fill="#b1b4c4"/>
  <path id="Path_826" data-name="Path 826" d="M248.788,59.879,207.519,36.053a2.513,2.513,0,0,1-1.049-2V2.128c0-.772.47-1.127,1.049-.794l41.269,23.828a2.507,2.507,0,0,1,1.049,2V59.087C249.837,59.86,249.366,60.214,248.788,59.879Z" transform="translate(-175.929 -0.991)" fill="#e4e7f2"/>
  <path id="Path_827" data-name="Path 827" d="M248.388,60.109,207.119,36.283a2.513,2.513,0,0,1-1.049-2V2.356c0-.77.47-1.125,1.049-.792l41.269,23.828a2.506,2.506,0,0,1,1.047,2V59.317C249.435,60.089,248.966,60.444,248.388,60.109Z" transform="translate(-175.601 -1.179)" fill="#d6d8e5"/>
  <path id="Path_828" data-name="Path 828" d="M251.269,61.281,209,36.874,209.022,5.6c0-.32.224-.45.5-.289l41.269,23.827a1.114,1.114,0,0,1,.5.87Z" transform="translate(-178.001 -4.291)" fill="#1e212d"/>
  <path id="Path_829" data-name="Path 829" d="M251.174,61.248,208.9,36.843l.022-31.286c0-.32.226-.45.5-.289L250.693,29.1a1.107,1.107,0,0,1,.5.87Z" transform="translate(-177.919 -4.259)" opacity="0.5" fill="url(#linear-gradient)"/>
  <path id="Path_830" data-name="Path 830" d="M79.258,240.862,37.98,217.033c-.579-.333-.506-.917.163-1.3l27.646-15.962a2.512,2.512,0,0,1,2.259-.092L109.317,223.5c.579.335.506.917-.163,1.3L81.508,240.768A2.5,2.5,0,0,1,79.258,240.862Z" transform="translate(-37.59 -163.381)" fill="#d6d8e5" opacity="0.4"/>
  <path id="Path_831" data-name="Path 831" d="M84.239,237.869,42.97,214.042c-.579-.335-.506-.917.163-1.3l27.646-15.962a2.514,2.514,0,0,1,2.257-.094l41.271,23.828c.579.333.506.917-.163,1.3L86.5,237.776A2.512,2.512,0,0,1,84.239,237.869Z" transform="translate(-41.677 -160.93)" fill="#b1b4c4"/>
  <path id="Path_833" data-name="Path 833" d="M438.427,329.23v-.76l-.647.222.429.629Z" transform="translate(-365.407 -269.068)" fill="#b1b4c4"/>
  <path id="Path_834" data-name="Path 834" d="M84.239,234.243,42.97,210.416c-.579-.335-.506-.919.163-1.3l27.646-15.962a2.5,2.5,0,0,1,2.257-.094l41.271,23.826c.579.335.506.919-.163,1.3L86.5,234.148A2.506,2.506,0,0,1,84.239,234.243Z" transform="translate(-41.677 -157.959)" fill="#e4e7f2"/>
  <path id="Path_835" data-name="Path 835" d="M84.239,233.65,42.97,209.823c-.579-.335-.506-.919.163-1.3l27.646-15.969a2.5,2.5,0,0,1,2.257-.094l41.271,23.834c.579.335.506.919-.163,1.3L86.5,233.556A2.507,2.507,0,0,1,84.239,233.65Z" transform="translate(-41.677 -157.467)" fill="#d6d8e5"/>
  <path id="Path_836" data-name="Path 836" d="M185.089,212l-1.921-1.11c-.157-.09-.137-.248.043-.353l1.828-1.058a.678.678,0,0,1,.611-.025l1.921,1.109c.156.09.137.25-.045.362l-1.832,1.058A.682.682,0,0,1,185.089,212Z" transform="translate(-156.755 -171.527)" fill="#2b303f"/>
  <path id="Path_837" data-name="Path 837" d="M200.129,220.64l-1.921-1.109c-.157-.09-.137-.25.043-.362l1.834-1.06a.679.679,0,0,1,.611-.025l1.922,1.11c.157.09.137.248-.043.353l-1.834,1.058A.682.682,0,0,1,200.129,220.64Z" transform="translate(-169.075 -178.596)" fill="#2b303f"/>
  <path id="Path_838" data-name="Path 838" d="M215.345,229.471l-1.922-1.11c-.156-.09-.137-.248.045-.353l1.834-1.058a.678.678,0,0,1,.611-.025l1.921,1.109c.157.09.137.25-.043.353l-1.834,1.06A.684.684,0,0,1,215.345,229.471Z" transform="translate(-181.538 -185.837)" fill="#2b303f"/>
  <path id="Path_839" data-name="Path 839" d="M230.215,238.051l-1.922-1.109c-.156-.09-.137-.25.045-.353l1.832-1.06a.682.682,0,0,1,.613-.025l1.921,1.11c.157.09.137.248-.043.362l-1.834,1.058A.678.678,0,0,1,230.215,238.051Z" transform="translate(-193.719 -192.866)" fill="#2b303f"/>
  <path id="Path_840" data-name="Path 840" d="M245.258,246.738l-1.922-1.11c-.156-.09-.136-.248.045-.353l1.834-1.058a.673.673,0,0,1,.611-.025l1.921,1.109c.157.09.137.248-.043.362l-1.834,1.06A.684.684,0,0,1,245.258,246.738Z" transform="translate(-206.042 -199.981)" fill="#2b303f"/>
  <path id="Path_841" data-name="Path 841" d="M260.3,255.388l-1.921-1.109c-.157-.09-.137-.25.043-.362l1.834-1.058a.678.678,0,0,1,.611-.025l1.922,1.109c.155.09.136.25-.045.362l-1.834,1.058A.678.678,0,0,1,260.3,255.388Z" transform="translate(-218.363 -207.062)" fill="#2b303f"/>
  <path id="Path_842" data-name="Path 842" d="M275.339,264.13l-1.921-1.11c-.157-.09-.137-.248.043-.353l1.834-1.054a.683.683,0,0,1,.611-.025l1.922,1.11c.156.09.137.248-.045.353l-1.834,1.058A.678.678,0,0,1,275.339,264.13Z" transform="translate(-230.683 -214.232)" fill="#2b303f"/>
  <path id="Path_843" data-name="Path 843" d="M290.379,272.791l-1.921-1.11c-.157-.09-.137-.248.043-.353l1.834-1.058a.678.678,0,0,1,.611-.025l1.922,1.109c.157.09.137.25-.043.362L291,272.766A.682.682,0,0,1,290.379,272.791Z" transform="translate(-243.003 -221.323)" fill="#2b303f"/>
  <path id="Path_844" data-name="Path 844" d="M305.438,281.471l-1.919-1.109c-.157-.09-.137-.25.043-.353l1.834-1.06a.678.678,0,0,1,.611-.025l1.922,1.11c.157.09.137.248-.043.362l-1.836,1.049A.678.678,0,0,1,305.438,281.471Z" transform="translate(-255.34 -228.433)" fill="#2b303f"/>
  <path id="Path_845" data-name="Path 845" d="M320.449,290.142l-1.926-1.116c-.156-.09-.137-.248.045-.353l1.836-1.063a.682.682,0,0,1,.613-.025l1.921,1.11c.157.091.137.25-.043.362l-1.839,1.054A.678.678,0,0,1,320.449,290.142Z" transform="translate(-267.631 -235.527)" fill="#2b303f"/>
  <path id="Path_846" data-name="Path 846" d="M335.508,298.841l-1.922-1.109c-.156-.09-.136-.25.045-.353l1.834-1.06a.678.678,0,0,1,.611-.025l1.921,1.11c.157.09.137.248-.043.362l-1.834,1.058A.678.678,0,0,1,335.508,298.841Z" transform="translate(-279.97 -242.662)" fill="#2b303f"/>
  <path id="Path_847" data-name="Path 847" d="M350.549,307.528l-1.921-1.11c-.157-.09-.137-.248.043-.353l1.834-1.058a.673.673,0,0,1,.611-.025l1.921,1.109c.157.09.137.248-.044.353l-1.834,1.06A.684.684,0,0,1,350.549,307.528Z" transform="translate(-292.292 -249.778)" fill="#2b303f"/>
  <path id="Path_848" data-name="Path 848" d="M365.59,316.158l-1.921-1.109c-.157-.09-.137-.25.043-.362l1.834-1.058a.678.678,0,0,1,.611-.025l1.922,1.109c.156.09.136.25-.045.362l-1.834,1.058A.678.678,0,0,1,365.59,316.158Z" transform="translate(-304.612 -256.842)" fill="#2b303f"/>
  <path id="Path_849" data-name="Path 849" d="M381.941,325.652l-3.232-1.866c-.157-.09-.137-.248.043-.353l1.834-1.06a.684.684,0,0,1,.611-.025l3.232,1.866c.157.09.137.25-.043.353l-1.834,1.06A.678.678,0,0,1,381.941,325.652Z" transform="translate(-316.932 -264.004)" fill="#2b303f"/>
  <path id="Path_850" data-name="Path 850" d="M192.819,233.326l-1.921-1.1c-.157-.09-.137-.248.043-.353l1.834-1.058a.682.682,0,0,1,.613-.025l1.921,1.109c.157.09.137.25-.043.362l-1.834,1.051A.678.678,0,0,1,192.819,233.326Z" transform="translate(-163.086 -188.999)" fill="#2b303f"/>
  <path id="Path_851" data-name="Path 851" d="M207.889,242l-1.921-1.11c-.157-.09-.137-.248.043-.353l1.834-1.058a.678.678,0,0,1,.611-.025l1.922,1.109c.156.09.137.25-.045.353l-1.832,1.06A.682.682,0,0,1,207.889,242Z" transform="translate(-175.431 -196.101)" fill="#2b303f"/>
  <path id="Path_852" data-name="Path 852" d="M222.959,250.66l-1.921-1.11c-.157-.09-.137-.248.043-.362l1.834-1.058a.678.678,0,0,1,.611-.025l1.922,1.109c.156.09.136.25-.045.353l-1.834,1.06A.684.684,0,0,1,222.959,250.66Z" transform="translate(-187.776 -203.187)" fill="#2b303f"/>
  <path id="Path_853" data-name="Path 853" d="M238.028,259.4l-1.922-1.11c-.156-.09-.136-.248.045-.353l1.839-1.058a.672.672,0,0,1,.611-.025l1.921,1.109c.157.09.137.248-.043.353l-1.834,1.06A.683.683,0,0,1,238.028,259.4Z" transform="translate(-200.119 -210.352)" fill="#2b303f"/>
  <path id="Path_854" data-name="Path 854" d="M252.971,268.026l-1.922-1.11c-.157-.091-.137-.248.043-.353l1.834-1.06a.684.684,0,0,1,.611-.025l1.922,1.11c.157.091.137.248-.043.353L253.582,268A.683.683,0,0,1,252.971,268.026Z" transform="translate(-212.359 -217.419)" fill="#2b303f"/>
  <path id="Path_855" data-name="Path 855" d="M268.039,276.726l-1.921-1.11c-.157-.09-.137-.248.043-.353L268,274.2a.684.684,0,0,1,.611-.025l1.921,1.11c.155.09.137.248-.045.362l-1.832,1.058A.682.682,0,0,1,268.039,276.726Z" transform="translate(-224.703 -224.545)" fill="#2b303f"/>
  <path id="Path_856" data-name="Path 856" d="M283.109,285.383l-1.921-1.109c-.157-.09-.137-.248.043-.362l1.834-1.06a.684.684,0,0,1,.611-.025l1.921,1.11c.157.091.137.248-.043.353l-1.834,1.058A.678.678,0,0,1,283.109,285.383Z" transform="translate(-237.048 -231.631)" fill="#2b303f"/>
  <path id="Path_857" data-name="Path 857" d="M298.175,294.129l-1.922-1.109c-.156-.09-.137-.25.045-.353l1.832-1.058a.682.682,0,0,1,.613-.025l1.921,1.11c.157.09.137.248-.043.353l-1.834,1.058A.678.678,0,0,1,298.175,294.129Z" transform="translate(-249.389 -238.804)" fill="#2b303f"/>
  <path id="Path_858" data-name="Path 858" d="M313.241,302.821l-1.922-1.109c-.157-.09-.137-.25.043-.353l1.834-1.06a.678.678,0,0,1,.611-.025l1.922,1.11c.157.09.137.248-.043.353l-1.834,1.058A.678.678,0,0,1,313.241,302.821Z" transform="translate(-261.729 -245.922)" fill="#2b303f"/>
  <path id="Path_859" data-name="Path 859" d="M328.309,311.488l-1.921-1.109c-.157-.09-.137-.25.043-.362l1.834-1.058a.678.678,0,0,1,.611-.025l1.922,1.11c.156.091.137.248-.045.353l-1.832,1.058A.682.682,0,0,1,328.309,311.488Z" transform="translate(-274.074 -253.016)" fill="#2b303f"/>
  <path id="Path_860" data-name="Path 860" d="M343.379,320.158l-1.921-1.109c-.157-.09-.137-.25.043-.362l1.834-1.058a.678.678,0,0,1,.611-.025l1.921,1.109c.157.092.137.25-.043.362l-1.834,1.058A.678.678,0,0,1,343.379,320.158Z" transform="translate(-286.419 -260.118)" fill="#2b303f"/>
  <path id="Path_861" data-name="Path 861" d="M358.445,328.888l-1.922-1.109c-.155-.09-.137-.25.045-.362l1.834-1.058a.679.679,0,0,1,.611-.025l1.921,1.109c.157.09.137.25-.043.362l-1.836,1.058A.678.678,0,0,1,358.445,328.888Z" transform="translate(-298.759 -267.269)" fill="#2b303f"/>
  <path id="Path_862" data-name="Path 862" d="M171.821,221.136l-3.232-1.866c-.157-.09-.137-.248.043-.362l1.834-1.058a.678.678,0,0,1,.611-.025l3.232,1.865c.157.09.137.249-.043.362l-1.834,1.058A.678.678,0,0,1,171.821,221.136Z" transform="translate(-144.811 -178.383)" fill="#2b303f"/>
  <path id="Path_863" data-name="Path 863" d="M367.122,336.11,365.2,335a.626.626,0,0,0-.57,0l-1.939,1.119a.181.181,0,0,0,0,.329l.152.087a.161.161,0,0,1,0,.3l-2.053,1.179c-.157.092-.159.239,0,.329l1.223.707a.633.633,0,0,0,.57,0l1.917-1.107.4-.228.286-.166.288-.165,1.651-.953C367.277,336.347,367.279,336.209,367.122,336.11Z" transform="translate(-302.245 -274.361)" fill="#2b303f"/>
  <path id="Path_864" data-name="Path 864" d="M126.815,245.7l-1.922-1.109c-.156-.09-.137-.25.043-.353l1.834-1.06a.682.682,0,0,1,.613-.025l1.921,1.11c.157.09.137.248-.043.362l-1.834,1.058A.678.678,0,0,1,126.815,245.7Z" transform="translate(-109.018 -199.132)" fill="#2b303f"/>
  <path id="Path_865" data-name="Path 865" d="M141.828,254.287l-1.919-1.116c-.157-.09-.137-.25.043-.362l1.834-1.06a.678.678,0,0,1,.611-.025l1.922,1.11c.157.09.137.248-.043.353l-1.834,1.069A.678.678,0,0,1,141.828,254.287Z" transform="translate(-121.318 -206.152)" fill="#2b303f"/>
  <path id="Path_866" data-name="Path 866" d="M156.819,263.021l-1.921-1.109c-.157-.09-.137-.25.043-.353l1.834-1.06a.678.678,0,0,1,.611-.025l1.922,1.11c.157.09.137.248-.043.353L157.433,263A.682.682,0,0,1,156.819,263.021Z" transform="translate(-133.597 -213.32)" fill="#2b303f"/>
  <path id="Path_867" data-name="Path 867" d="M284.561,336.771l-1.922-1.11c-.157-.09-.137-.248.043-.353l1.834-1.058a.678.678,0,0,1,.611-.025l1.922,1.109c.157.09.137.25-.043.353l-1.834,1.06A.678.678,0,0,1,284.561,336.771Z" transform="translate(-238.236 -273.733)" fill="#2b303f"/>
  <path id="Path_868" data-name="Path 868" d="M299.559,345.39l-1.921-1.11c-.157-.09-.138-.248.043-.362l1.834-1.058a.678.678,0,0,1,.611-.025l1.922,1.109c.157.09.137.25-.043.353l-1.834,1.06A.682.682,0,0,1,299.559,345.39Z" transform="translate(-250.523 -280.785)" fill="#2b303f"/>
  <path id="Path_869" data-name="Path 869" d="M314.559,354.124l-1.921-1.11c-.157-.09-.137-.248.043-.353l1.834-1.051a.679.679,0,0,1,.611-.025l1.922,1.11c.156.09.137.25-.045.353l-1.832,1.06A.687.687,0,0,1,314.559,354.124Z" transform="translate(-262.81 -287.953)" fill="#2b303f"/>
  <path id="Path_870" data-name="Path 870" d="M329.559,362.748l-1.921-1.11c-.157-.09-.137-.248.043-.353l1.834-1.058a.673.673,0,0,1,.611-.025l1.922,1.109c.155.09.136.248-.045.353l-1.834,1.06A.684.684,0,0,1,329.559,362.748Z" transform="translate(-275.098 -295.011)" fill="#2b303f"/>
  <path id="Path_871" data-name="Path 871" d="M172.529,272.052l-2.62-1.512c-.157-.09-.137-.25.043-.362l1.834-1.058a.678.678,0,0,1,.611-.025l2.62,1.514c.157.09.137.248-.043.362l-1.834,1.058A.678.678,0,0,1,172.529,272.052Z" transform="translate(-145.893 -220.381)" fill="#2b303f"/>
  <path id="Path_872" data-name="Path 872" d="M266.4,326.284l-2.62-1.514c-.157-.09-.137-.248.043-.353l1.834-1.058a.678.678,0,0,1,.611-.025l2.62,1.517c.157.09.137.25-.043.353l-1.834,1.06A.678.678,0,0,1,266.4,326.284Z" transform="translate(-222.787 -264.812)" fill="#2b303f"/>
  <path id="Path_873" data-name="Path 873" d="M201.542,288.807l-12.773-7.375c-.157-.09-.137-.25.043-.353l1.834-1.06a.678.678,0,0,1,.611-.025l12.775,7.375c.157.09.137.25-.043.353l-1.834,1.06A.682.682,0,0,1,201.542,288.807Z" transform="translate(-161.342 -229.31)" fill="#2b303f"/>
  <path id="Path_874" data-name="Path 874" d="M182.338,244.122l-1.922-1.11c-.156-.09-.136-.248.045-.353l1.834-1.049a.678.678,0,0,1,.611-.025l1.921,1.109c.157.09.137.25-.043.353l-1.834,1.06A.678.678,0,0,1,182.338,244.122Z" transform="translate(-154.5 -197.846)" fill="#2b303f"/>
  <path id="Path_875" data-name="Path 875" d="M197.359,252.751l-1.921-1.109c-.157-.09-.137-.25.043-.353l1.834-1.06a.678.678,0,0,1,.611-.025l1.922,1.11c.157.09.137.248-.043.353l-1.834,1.058A.682.682,0,0,1,197.359,252.751Z" transform="translate(-166.806 -204.907)" fill="#2b303f"/>
  <path id="Path_876" data-name="Path 876" d="M212.388,261.39l-1.922-1.11c-.155-.09-.136-.248.045-.362l1.834-1.058a.678.678,0,0,1,.611-.025l1.921,1.109c.157.09.137.25-.043.353l-1.825,1.069A.678.678,0,0,1,212.388,261.39Z" transform="translate(-179.116 -211.977)" fill="#2b303f"/>
  <path id="Path_877" data-name="Path 877" d="M227.434,270.126l-1.915-1.109c-.157-.09-.137-.25.043-.353l1.828-1.054a.678.678,0,0,1,.611-.025l1.922,1.11c.155.09.137.248-.043.353l-1.83,1.053A.682.682,0,0,1,227.434,270.126Z" transform="translate(-191.446 -219.144)" fill="#2b303f"/>
  <path id="Path_878" data-name="Path 878" d="M242.446,278.781l-1.921-1.11c-.156-.09-.136-.248.045-.353l1.834-1.058a.678.678,0,0,1,.611-.025l1.921,1.109c.157.09.137.248-.043.353l-1.836,1.06A.684.684,0,0,1,242.446,278.781Z" transform="translate(-203.74 -226.23)" fill="#2b303f"/>
  <path id="Path_879" data-name="Path 879" d="M257.443,287.418l-1.924-1.108c-.157-.091-.138-.25.043-.362l1.834-1.058a.678.678,0,0,1,.611-.025l1.922,1.109c.156.092.138.25-.045.362l-1.834,1.058A.681.681,0,0,1,257.443,287.418Z" transform="translate(-216.02 -233.299)" fill="#2b303f"/>
  <path id="Path_880" data-name="Path 880" d="M272.453,296.127l-1.93-1.11c-.156-.09-.137-.248.045-.353l1.841-1.058a.678.678,0,0,1,.611-.027l1.92,1.112c.157.09.138.248-.043.353l-1.834,1.06A.683.683,0,0,1,272.453,296.127Z" transform="translate(-228.312 -240.438)" fill="#2b303f"/>
  <path id="Path_881" data-name="Path 881" d="M287.509,304.768l-1.921-1.109c-.157-.09-.137-.25.043-.362l1.834-1.058a.678.678,0,0,1,.611-.025L290,303.323c.155.09.137.25-.045.362l-1.832,1.058A.682.682,0,0,1,287.509,304.768Z" transform="translate(-240.652 -247.511)" fill="#2b303f"/>
  <path id="Path_882" data-name="Path 882" d="M302.535,313.476l-1.922-1.11c-.156-.09-.137-.248.045-.353l1.832-1.06a.687.687,0,0,1,.613-.025l1.921,1.11c.157.09.138.248-.043.362l-1.834,1.058A.678.678,0,0,1,302.535,313.476Z" transform="translate(-252.96 -254.649)" fill="#2b303f"/>
  <path id="Path_883" data-name="Path 883" d="M317.559,322.142l-1.921-1.109c-.157-.092-.138-.25.043-.362l1.834-1.061a.678.678,0,0,1,.611-.025l1.922,1.11c.156.09.136.25-.045.362l-1.834,1.058A.678.678,0,0,1,317.559,322.142Z" transform="translate(-265.268 -261.74)" fill="#2b303f"/>
  <path id="Path_884" data-name="Path 884" d="M332.585,330.824l-1.922-1.109c-.156-.09-.137-.248.043-.353l1.834-1.06a.687.687,0,0,1,.613-.025l1.921,1.11c.157.09.138.248-.043.353L333.2,330.8A.678.678,0,0,1,332.585,330.824Z" transform="translate(-277.575 -268.861)" fill="#2b303f"/>
  <path id="Path_885" data-name="Path 885" d="M347.609,339.5l-1.921-1.11c-.157-.09-.137-.248.043-.353l1.834-1.058a.678.678,0,0,1,.611-.025l1.922,1.109c.156.09.136.25-.045.353l-1.834,1.06A.678.678,0,0,1,347.609,339.5Z" transform="translate(-289.884 -275.969)" fill="#2b303f"/>
  <path id="Path_886" data-name="Path 886" d="M157.987,230l-3.979-2.293c-.157-.09-.137-.25.043-.362l1.834-1.058a.678.678,0,0,1,.611-.025l3.979,2.295c.157.09.137.248-.043.353L158.6,229.97A.682.682,0,0,1,157.987,230Z" transform="translate(-132.868 -185.297)" fill="#2b303f"/>
  <path id="Path_887" data-name="Path 887" d="M160.3,248.158l-1.921-1.109c-.157-.092-.137-.25.043-.362l1.834-1.058a.678.678,0,0,1,.611-.025l1.922,1.109c.156.09.136.25-.045.362l-1.834,1.058A.678.678,0,0,1,160.3,248.158Z" transform="translate(-136.448 -201.139)" fill="#2b303f"/>
  <path id="Path_888" data-name="Path 888" d="M175.319,256.82l-1.921-1.109c-.157-.09-.137-.25.043-.362l1.834-1.06a.678.678,0,0,1,.611-.025l1.922,1.11c.157.09.137.248-.043.353l-1.834,1.058A.682.682,0,0,1,175.319,256.82Z" transform="translate(-148.751 -208.233)" fill="#2b303f"/>
  <path id="Path_889" data-name="Path 889" d="M190.341,265.536l-1.922-1.11c-.157-.09-.137-.248.043-.353l1.834-1.058a.682.682,0,0,1,.613-.027l1.921,1.11c.157.09.137.248-.043.362l-1.834,1.06A.684.684,0,0,1,190.341,265.536Z" transform="translate(-161.055 -215.38)" fill="#2b303f"/>
  <path id="Path_890" data-name="Path 890" d="M205.368,274.191l-1.922-1.11c-.156-.09-.136-.248.045-.353l1.834-1.058a.678.678,0,0,1,.611-.025l1.921,1.109c.157.091.137.25-.043.362l-1.834,1.058a.678.678,0,0,1-.611.018Z" transform="translate(-173.366 -222.47)" fill="#2b303f"/>
  <path id="Path_891" data-name="Path 891" d="M220.43,282.881l-1.912-1.109c-.157-.09-.137-.25.043-.353l1.834-1.06a.678.678,0,0,1,.611-.025l1.922,1.11c.155.09.136.248-.045.353l-1.834,1.058A.678.678,0,0,1,220.43,282.881Z" transform="translate(-185.712 -229.588)" fill="#2b303f"/>
  <path id="Path_892" data-name="Path 892" d="M235.434,291.515l-1.915-1.111c-.157-.09-.137-.248.043-.362l1.834-1.06a.684.684,0,0,1,.611-.025l1.922,1.11c.156.09.137.248-.045.353l-1.834,1.069A.687.687,0,0,1,235.434,291.515Z" transform="translate(-197.999 -236.652)" fill="#2b303f"/>
  <path id="Path_893" data-name="Path 893" d="M250.439,300.224l-1.921-1.1c-.157-.09-.137-.248.043-.353l1.834-1.058a.678.678,0,0,1,.611-.025l1.922,1.109c.157.09.137.25-.043.362l-1.836,1.051A.678.678,0,0,1,250.439,300.224Z" transform="translate(-210.286 -243.801)" fill="#2b303f"/>
  <path id="Path_894" data-name="Path 894" d="M265.447,308.868l-1.924-1.109c-.156-.09-.137-.25.045-.362l1.832-1.058a.682.682,0,0,1,.613-.025l1.921,1.109c.157.092.137.25-.043.362l-1.836,1.058A.679.679,0,0,1,265.447,308.868Z" transform="translate(-222.578 -250.87)" fill="#2b303f"/>
  <path id="Path_895" data-name="Path 895" d="M280.447,317.574l-1.928-1.109c-.157-.09-.137-.248.043-.353l1.834-1.06a.684.684,0,0,1,.611-.025l1.921,1.11c.157.091.137.248-.043.353l-1.834,1.058A.673.673,0,0,1,280.447,317.574Z" transform="translate(-234.861 -258.008)" fill="#2b303f"/>
  <path id="Path_896" data-name="Path 896" d="M295.5,326.251l-1.921-1.11c-.157-.09-.137-.248.043-.353l1.834-1.058a.678.678,0,0,1,.611-.025l1.922,1.109c.156.09.136.25-.045.353l-1.834,1.06A.678.678,0,0,1,295.5,326.251Z" transform="translate(-247.197 -265.115)" fill="#2b303f"/>
  <path id="Path_897" data-name="Path 897" d="M310.519,334.888,308.6,333.78c-.157-.09-.138-.25.043-.362l1.834-1.058a.678.678,0,0,1,.611-.025l1.922,1.109c.157.09.137.25-.043.362l-1.834,1.058A.681.681,0,0,1,310.519,334.888Z" transform="translate(-259.501 -272.184)" fill="#2b303f"/>
  <path id="Path_898" data-name="Path 898" d="M328.9,345.536l-5.284-3.051c-.157-.09-.137-.25.043-.353l1.834-1.06a.687.687,0,0,1,.613-.025l5.284,3.051c.156.09.136.25-.045.362l-1.834,1.051a.678.678,0,0,1-.611.025Z" transform="translate(-271.805 -279.322)" fill="#2b303f"/>
  <path id="Path_899" data-name="Path 899" d="M142.134,237.682l-2.615-1.506c-.157-.09-.137-.248.043-.362l1.834-1.058a.682.682,0,0,1,.613-.027l2.619,1.514c.157.09.137.248-.043.362l-1.834,1.06A.684.684,0,0,1,142.134,237.682Z" transform="translate(-120.998 -192.23)" fill="#2b303f"/>
  <path id="Path_900" data-name="Path 900" d="M236.9,226.855,198.319,204.58c-.157-.09-.137-.25.043-.362l.917-.528a.678.678,0,0,1,.611-.025l38.583,22.284c.157.09.137.248-.043.353l-.917.523A.678.678,0,0,1,236.9,226.855Z" transform="translate(-169.165 -166.784)" fill="#2b303f"/>
  <path id="Path_901" data-name="Path 901" d="M142.286,296.413a.575.575,0,0,1-.266.277L131.4,302.821a1.306,1.306,0,0,1-1.177.047L112.085,292.4a.4.4,0,0,1-.181-.192c-.067-.161.025-.349.266-.488l10.617-6.131a1.311,1.311,0,0,1,1.177-.049l18.141,10.476A.32.32,0,0,1,142.286,296.413Z" transform="translate(-98.447 -233.809)" fill="#b1b4c4"/>
  <path id="Path_902" data-name="Path 902" d="M142.382,297.38a.575.575,0,0,1-.266.277L131.5,303.787a1.306,1.306,0,0,1-1.177.047l-18.141-10.466a.4.4,0,0,1-.181-.192.591.591,0,0,1,.266-.277l10.617-6.129a1.311,1.311,0,0,1,1.177-.049L142.2,297.19A.4.4,0,0,1,142.382,297.38Z" transform="translate(-98.543 -234.776)" fill="#c3c6d1"/>
  <path id="Path_903" data-name="Path 903" d="M252.3,216.292l-38.591-22.277a.678.678,0,0,1-.284-.542v-.452c0-.21.127-.306.284-.215L252.3,215.083a.678.678,0,0,1,.284.543v.454C252.6,216.287,252.462,216.383,252.3,216.292Z" transform="translate(-181.63 -157.911)" fill="#2b303f"/>
  <path id="Path_1014" data-name="Path 1014" d="M181.209,21.07c-2.848-1.643-5.243-.783-5.93,1.859a4.675,4.675,0,0,0-.4-.262c-1.8-1.036-3.287-.4-3.589,1.4-2.068-1.2-3.7-.259-3.7,2.043a8.1,8.1,0,0,0,3.189,5.993c.148.1.289.2.434.282a4.306,4.306,0,0,0,.416.212l15.646,9.062c2.84,1.64,5.149.325,5.158-2.94a11.293,11.293,0,0,0-5.124-8.875c-.067-.04-.13-.072-.2-.108a13.645,13.645,0,0,0-5.9-8.664" transform="translate(-128.744 -0.455)" fill="#d3d3dd"/>
</svg>
