<svg xmlns="http://www.w3.org/2000/svg" width="81" height="67.181" viewBox="0 0 81 67.181">
  <g id="Group_452" data-name="Group 452" transform="translate(0 5.288)">
    <path id="Path_1553" data-name="Path 1553" d="M105.707,166.911l-.346-.412c-6.932-8.247-7.536-15.719-1.849-22.843,4.843-6.064,13.391-10.815,20.935-15.006,1.591-.884,3.082-1.719,4.518-2.541l1.617-.948,1.619.948c8.745,5.047,17.922,7.439,28.883,7.529l2.226.017.031,1.285c.154,6.33,4.3,11.63,13.038,16.677l1.619.934-1.619.934c-1.422.825-2.871,1.693-4.4,2.608-7.259,4.357-15.489,9.293-25.991,12.09-12.339,3.283-25.282,2.935-39.57-1.067ZM130.6,128.889c-.962.543-1.953,1.093-2.98,1.659-15.013,8.344-32,17.791-18.49,34.374,28.731,7.823,45.1-2,59.549-10.668,1-.588,1.944-1.159,2.892-1.714-8.017-4.952-12.1-10.194-12.72-16.307a61.958,61.958,0,0,1-28.248-7.344Z" transform="translate(-99.66 -108.513)" fill="#d6d8e5" opacity="0.4"/>
    <path id="Path_1554" data-name="Path 1554" d="M116.887,160.247l-.346-.41c-6.932-8.25-7.536-15.722-1.849-22.845,4.843-6.064,13.394-10.815,20.934-15.006,1.591-.884,3.082-1.719,4.518-2.541l1.619-.934,1.617.934c8.745,5.047,17.921,7.439,28.895,7.529l2.226.017.031,1.285c.154,6.329,4.3,11.63,13.038,16.677l1.619.934-1.619.936c-1.422.823-2.871,1.69-4.4,2.608-7.261,4.355-15.489,9.29-25.993,12.09-12.327,3.286-25.282,2.935-39.57-1.067Zm24.891-38.022c-.962.543-1.953,1.093-2.977,1.659-15.015,8.344-32,17.791-18.49,34.373,28.729,7.823,45.1-2,59.546-10.668.989-.59,1.941-1.164,2.88-1.719-8.015-4.952-12.1-10.194-12.72-16.307a61.887,61.887,0,0,1-28.236-7.339Z" transform="translate(-108.19 -103.439)" fill="#7d90e2"/>
    <path id="Path_1555" data-name="Path 1555" d="M136.35,234.4v-3.71L188.133,215.7l20.408.531.1,3.8L181.77,232.323l-16.765,4.2-23.191-1.837Z" transform="translate(-127.652 -177.59)" fill="#7d90e2"/>
    <path id="Path_1556" data-name="Path 1556" d="M110.84,226.575V223.09l1.859,2.556Z" transform="translate(-108.19 -183.228)" fill="#7d90e2"/>
    <path id="Path_1557" data-name="Path 1557" d="M193.354,136.247c-9.15-5.284-13.548-10.841-13.711-17.592-11.694-.095-21.319-2.634-30.469-7.915-15.013,8.667-39.627,19.289-23.163,38.878C159.943,159.126,178.341,144.914,193.354,136.247Z" transform="translate(-115.599 -97.511)" fill="#525bff"/>
    <path id="Path_1558" data-name="Path 1558" d="M116.887,144.589l-.346-.412c-6.932-8.247-7.536-15.719-1.849-22.843,4.843-6.064,13.394-10.815,20.934-15.008,1.591-.882,3.082-1.716,4.518-2.541l1.619-.934,1.617.934c8.745,5.049,17.921,7.441,28.883,7.529l2.226.019.031,1.285c.154,6.329,4.3,11.616,13.038,16.677l1.619.934-1.619.934c-1.422.825-2.871,1.69-4.4,2.608-7.261,4.355-15.489,9.293-25.993,12.09-12.327,3.283-25.282,2.935-39.57-1.069Zm24.891-38.022c-.962.543-1.953,1.093-2.977,1.659-15.015,8.342-32,17.791-18.49,34.374,28.729,7.811,45.1-2,59.546-10.668.989-.593,1.941-1.164,2.88-1.719-8.015-4.952-12.1-10.194-12.72-16.307a61.946,61.946,0,0,1-28.236-7.339Z" transform="translate(-108.19 -91.492)" fill="#97a6ff"/>
    <ellipse id="Ellipse_148" data-name="Ellipse 148" cx="9.62" cy="5.554" rx="9.62" ry="5.554" transform="translate(29.551 29.64)" opacity="0.1"/>
    <path id="Path_1559" data-name="Path 1559" d="M257.9,91.833l-9.945-5.742a3.2,3.2,0,0,1-1.335-2.548V76.787c0-.981.6-1.422,1.335-1.007l9.945,5.742a3.2,3.2,0,0,1,1.335,2.548v6.756C259.234,91.807,258.636,92.257,257.9,91.833Z" transform="translate(-211.782 -70.719)" fill="#e8a30a"/>
    <path id="Path_1560" data-name="Path 1560" d="M271.542,127.146l4.442-2.657-2.693-6.109-4.182,2.067Z" transform="translate(-228.941 -103.34)" fill="#e8a30a"/>
    <path id="Path_1561" data-name="Path 1561" d="M230.49,78.415l4.383-2.615,1.1,8.141Z" transform="translate(-199.476 -70.854)" fill="#e8a30a"/>
    <path id="Path_1562" data-name="Path 1562" d="M239.489,102.825l-9.956-5.742a3.186,3.186,0,0,1-1.332-2.546V87.777c0-.981.595-1.422,1.332-1.007l9.956,5.744a3.193,3.193,0,0,1,1.332,2.546v6.756C240.821,102.8,240.224,103.249,239.489,102.825Z" transform="translate(-197.729 -79.104)" fill="#f9cb07"/>
    <path id="Path_1563" data-name="Path 1563" d="M251.12,62.4V57.272c0-2.084,1.463-2.928,3.267-1.9h0a7.219,7.219,0,0,1,3.267,5.656v5.132" transform="translate(-215.215 -54.936)" fill="none" stroke="#cc8b09" stroke-miterlimit="10" stroke-width="10.46"/>
    <ellipse id="Ellipse_149" data-name="Ellipse 149" cx="1.448" cy="0.837" rx="1.448" ry="0.837" transform="translate(34.411 6.667)" fill="#cc8b09"/>
    <ellipse id="Ellipse_150" data-name="Ellipse 150" cx="1.448" cy="0.837" rx="1.448" ry="0.837" transform="translate(40.99 10.162)" fill="#cc8b09"/>
  </g>
</svg>
