<svg id="Group_83" data-name="Group 83" xmlns="http://www.w3.org/2000/svg" width="39.394" height="75.003" viewBox="0 0 39.394 75.003">
  <path id="Path_586" data-name="Path 586" d="M271.585,268.085l-20.15-11.6a.742.742,0,0,1,.029-1.3L254,253.87a.75.75,0,0,1,.713.017l20.827,11.993a.744.744,0,0,1-.029,1.306l-1.839.947A2.173,2.173,0,0,1,271.585,268.085Z" transform="translate(-236.518 -200.743)" fill="#d6d8e5" opacity="0.4"/>
  <path id="Path_587" data-name="Path 587" d="M280.2,65.116,263.025,55.2a6.28,6.28,0,0,1-2.635-5.032V2.265c0-1.939,1.181-2.832,2.635-1.992L280.2,10.206a6.28,6.28,0,0,1,2.635,5.032v47.9C282.834,65.065,281.654,65.956,280.2,65.116Z" transform="translate(-243.897 0.043)" fill="#b1b4c4"/>
  <path id="Path_588" data-name="Path 588" d="M356.59,304.814l1.36-.688-1.3-2.236Z" transform="translate(-319.993 -238.792)" fill="#b1b4c4"/>
  <path id="Path_590" data-name="Path 590" d="M275.035,67.767l-17.172-9.914a6.279,6.279,0,0,1-2.633-5.032V4.925c0-1.939,1.179-2.832,2.633-1.992l17.172,9.914a6.279,6.279,0,0,1,2.633,5.032v47.9C277.658,67.717,276.479,68.607,275.035,67.767Z" transform="translate(-239.816 -2.062)" fill="#616e84"/>
  <path id="Path_591" data-name="Path 591" d="M276.738,18.47V66.364c0,1.941-1.179,2.832-2.633,1.994l-6.733-3.889-2.09-1.208-8.349-4.817a6.28,6.28,0,0,1-2.633-5.034V5.515c0-1.933,1.179-2.832,2.633-1.994L274.1,13.436A6.342,6.342,0,0,1,276.738,18.47Z" transform="translate(-239.08 -2.528)" fill="#20232d"/>
  <path id="Path_592" data-name="Path 592" d="M280.16,25.3V71.948c0,1.174-.826,1.653-1.843,1.064l-5.369-3.1-.468-.274-.159-.092-1.16-.671L267.8,66.941h0l-1.394-.8-.56-.324-3.818-2.2a4.075,4.075,0,0,1-1.841-3.193V13.774c0-1.177.823-1.653,1.841-1.066l6.7,3.872V16.6a3.179,3.179,0,0,0,1.446,2.485c.794.453,1.438.086,1.438-.836v-.021l6.7,3.872A4.105,4.105,0,0,1,280.16,25.3Z" transform="translate(-243.739 -9.845)" fill="#fff"/>
  <ellipse id="Ellipse_67" data-name="Ellipse 67" cx="0.447" cy="0.772" rx="0.447" ry="0.772" transform="translate(25.925 7.677) rotate(-29.887)" fill="#2b303f"/>
  <path id="Path_593" data-name="Path 593" d="M307.13,37.779a.508.508,0,0,1-.23-.4c0-.146.1-.209.228-.132a.5.5,0,0,1,.228.395C307.356,37.793,307.253,37.852,307.13,37.779Z" transform="translate(-280.688 -29.425)" fill="#fff" opacity="0.1"/>
  <path id="Path_594" data-name="Path 594" d="M364.035,95.983h0c-.14.081-.255,0-.255-.192V93.749a.613.613,0,0,1,.255-.485h0c.14-.079.253,0,.253.192V95.5A.607.607,0,0,1,364.035,95.983Z" transform="translate(-325.681 -73.741)" fill="#757b89"/>
  <path id="Path_595" data-name="Path 595" d="M364.035,111.993h0c-.14.081-.255,0-.255-.19v-2.044a.613.613,0,0,1,.255-.485h0c.14-.079.253,0,.253.192v2.042A.6.6,0,0,1,364.035,111.993Z" transform="translate(-325.681 -86.405)" fill="#757b89"/>
  <ellipse id="Ellipse_68" data-name="Ellipse 68" cx="7.935" cy="4.581" rx="7.935" ry="4.581" transform="translate(0 65.842)" fill="#d6d8e5" opacity="0.4"/>
  <g id="Men_2" transform="translate(0.472 23.24)">
    <path id="Path_638" data-name="Path 638" d="M184.623,166.22c-.094.819-1.072,4.355-.863,5.565s3.553,3.239,3.553,3.239l.464-2.075-1.852-1.812.5-3.434Z" transform="translate(-183.73 -154.714)" fill="#ffcea9"/>
    <path id="Path_639" data-name="Path 639" d="M189.355,149.029a1.463,1.463,0,0,0-1.86.562,16.916,16.916,0,0,0-1.045,4.083,1.969,1.969,0,0,0,1.724.794Z" transform="translate(-185.882 -141.009)" fill="#ededed"/>
    <path id="Path_640" data-name="Path 640" d="M217.417,334.99a2.862,2.862,0,0,0,2.171-.261c.522.017,3.344-1.193,3.732-.178.336.89-.888,1.714-1.542,1.881-1.427.345-2.483,1.057-3.057,1.179a1.458,1.458,0,0,1-1.321-.186A2.571,2.571,0,0,1,217.417,334.99Z" transform="translate(-210.128 -287.546)" fill="#0f2046"/>
    <path id="Path_641" data-name="Path 641" d="M219.1,339.567c.575-.121,1.63-.836,3.057-1.179.55-.134,1.494-.734,1.588-1.448.127.819-.978,1.546-1.588,1.695-1.427.345-2.483,1.057-3.057,1.179a1.457,1.457,0,0,1-1.321-.186.845.845,0,0,1-.186-.343A1.705,1.705,0,0,0,219.1,339.567Z" transform="translate(-210.514 -289.757)" fill="#284688"/>
    <path id="Path_642" data-name="Path 642" d="M195.471,325.137a2.861,2.861,0,0,0,2.159-.261c.522.017,3.344-1.2,3.732-.178.336.89-.886,1.714-1.54,1.881-1.429.345-2.485,1.057-3.059,1.179a1.451,1.451,0,0,1-1.321-.188A2.6,2.6,0,0,1,195.471,325.137Z" transform="translate(-192.767 -279.751)" fill="#0f2046"/>
    <path id="Path_643" data-name="Path 643" d="M197.157,329.717c.575-.121,1.63-.836,3.059-1.179.548-.134,1.492-.733,1.586-1.448.127.819-.976,1.547-1.586,1.695-1.429.345-2.485,1.057-3.059,1.179a1.452,1.452,0,0,1-1.321-.188.824.824,0,0,1-.186-.341A1.705,1.705,0,0,0,197.157,329.717Z" transform="translate(-193.159 -281.966)" fill="#284688"/>
    <path id="Path_644" data-name="Path 644" d="M195.414,231.03a17.2,17.2,0,0,1,.652-3.1s-.194-2.671-.29-5.2c-.111-2.876-1.11-5.406-.322-7.7L204.316,217s-.537,11.46-.654,12.848a25.947,25.947,0,0,1-.4,3.218c-.405,2.224-1.062,7.523-1.062,7.523a3.323,3.323,0,0,1-2.169.242s.067-6.687.127-8.3c.073-1.956.134-1.808.134-1.808L200,225.855l-.192-2.426s-.247,1.781-.405,3.371c-.14,1.386-.474,2.642-.848,5.225-.324,2.24-.851,6.738-.851,6.738a3.006,3.006,0,0,1-2.211.094A72.391,72.391,0,0,1,195.414,231.03Z" transform="translate(-192.766 -193.324)" fill="#4e0404"/>
    <path id="Path_645" data-name="Path 645" d="M201.169,121.008c.675.031,1.179.209,1.254,0a8.576,8.576,0,0,0,.155-1.055c-.077-.2-.144-.408-.144-.408a3.247,3.247,0,1,1,4.706-3.438,6.8,6.8,0,0,1,.054,3.705c-.272.752-.627,1.348-.976,1.463a8.637,8.637,0,0,1-1.016-.09h0s-.092.506-.155.836-.038.5.61.9-.98,1.218-2.042,1.139a3.338,3.338,0,0,1-2.573-1.4C200.673,121.89,200.7,120.985,201.169,121.008Z" transform="translate(-197.225 -112.938)" fill="#ffcea9"/>
    <path id="Path_646" data-name="Path 646" d="M193.912,149.622c-.188.468.288,1.045,1.557,1.438s1.381-.115,1.381-.115a22.668,22.668,0,0,1,2.466,1.271c.763.533,1.1,2.073,1.2,4.673.119,3.009.13,7.473.029,8.244A4.607,4.607,0,0,1,197.3,166.4c-1.82-.148-4.886-1.762-5.628-3.005.019-2.639.328-3.068-.1-4.6-.978-3.479-1.494-4.9-1.018-7.216.391-1.906.94-2.142,1.693-2.125A15.687,15.687,0,0,1,193.912,149.622Z" transform="translate(-188.99 -141.454)" fill="#f4f4f4"/>
    <path id="Path_647" data-name="Path 647" d="M232.64,170.309c-1.5-.349-3.457-.522-4.123-.974-1.613-1.093-2.94-2.194-3.918-2.759a2.161,2.161,0,0,0-2.236-.3c-.731.265-.788,1.133.462,2.175a32.488,32.488,0,0,0,4.679,3.187c.531.315,6.432.867,8,.928.418.017.736.046,1.542.077a4.98,4.98,0,0,0,2.334-.443c.593-.318.759-.527.746-.675-.015-.186-.186-.234-.474-.119a4.092,4.092,0,0,1-1.411.393s.644-.209,1.016-.382a4.049,4.049,0,0,0,.926-.564c.268-.226.219-.742-.073-.627s-.491.272-1.045.508a4.035,4.035,0,0,1-.917.27,7.514,7.514,0,0,0,1.045-.627,1.7,1.7,0,0,0,.627-.719c.069-.155-.052-.443-.4-.259a6.076,6.076,0,0,1-1.275.723c-.466.159-.817.209-.779.115s.318-.165.614-.474.387-.757.209-.9-.148-.115-.487.144a11.186,11.186,0,0,0-1.168.788,2.552,2.552,0,0,1-1.03.66A5.687,5.687,0,0,1,232.64,170.309Z" transform="translate(-213.878 -154.611)" fill="#ffcea9"/>
    <path id="Path_648" data-name="Path 648" d="M220.055,161.853c.708-.721,1.542-.786,2.8.155s2.257,1.745,2.257,1.745a2.717,2.717,0,0,1-.664,1.9c-.78.949-1.463.752-1.463.752s-1.22-1.064-2.035-1.8S219.179,162.741,220.055,161.853Z" transform="translate(-212.189 -150.828)" fill="#ededed"/>
    <path id="Path_649" data-name="Path 649" d="M207.883,114.1s1.578-2.4-1.839-2.886a3.5,3.5,0,0,0-4.23,2.951,5.38,5.38,0,0,0,1.565,4.021,2.92,2.92,0,0,0,2.13-.257,12.251,12.251,0,0,0,.046-1.344S204.355,114.056,207.883,114.1Z" transform="translate(-198.019 -111.164)" fill="#240c00"/>
  </g>
</svg>
